<svg width="90" height="90" viewBox="0 0 90 90" fill="none" xmlns="http://www.w3.org/2000/svg">
<g filter="url(#filter0_i_85_37)">
<circle cx="45" cy="45" r="45" fill="#F56762"/>
<path d="M33.4507 37.2793H31.6812L31.898 36.0371L33.2691 36.0488C33.4995 36.0449 33.7026 36 33.8784 35.9141C34.0542 35.8242 34.1948 35.6973 34.3003 35.5332C34.4058 35.3691 34.4741 35.1719 34.5054 34.9414C34.5327 34.7422 34.5327 34.5684 34.5054 34.4199C34.4819 34.2676 34.4136 34.1465 34.3003 34.0566C34.1909 33.9629 34.0288 33.9102 33.814 33.8984L32.8472 33.8926L31.6167 41H29.9409L31.4116 32.4688L33.8843 32.4746C34.2437 32.4824 34.5718 32.5352 34.8687 32.6328C35.1655 32.7266 35.4175 32.8691 35.6245 33.0605C35.8355 33.248 35.9937 33.4844 36.0991 33.7695C36.2046 34.0508 36.2437 34.3809 36.2163 34.7598C36.1851 35.1934 36.0679 35.5586 35.8648 35.8555C35.6655 36.1484 35.4019 36.377 35.0737 36.541C34.7456 36.7051 34.3726 36.7988 33.9546 36.8223L33.4507 37.2793ZM32.7651 41H30.5386L31.4351 39.5879L32.8472 39.5938C33.0776 39.5859 33.2749 39.5312 33.439 39.4297C33.6069 39.3281 33.7398 39.1914 33.8374 39.0195C33.939 38.8477 34.0054 38.6484 34.0366 38.4219C34.0601 38.2578 34.0659 38.0918 34.0542 37.9238C34.0425 37.752 33.9937 37.6074 33.9077 37.4902C33.8218 37.3691 33.6734 37.3008 33.4624 37.2852L31.9507 37.2793L32.1792 36.0371L33.8726 36.043L34.1597 36.5293C34.5308 36.541 34.8316 36.6328 35.062 36.8047C35.2964 36.9766 35.4644 37.2051 35.5659 37.4902C35.6675 37.7715 35.7046 38.0898 35.6773 38.4453C35.6421 39 35.4956 39.4688 35.2378 39.8516C34.9839 40.2305 34.6441 40.5195 34.2183 40.7188C33.7925 40.9141 33.3081 41.0078 32.7651 41ZM39.4355 36.1602L38.5976 41H36.998L38.0995 34.6602H39.6112L39.4355 36.1602ZM41.1171 34.6074L40.9003 36.2422C40.8144 36.2227 40.7265 36.209 40.6366 36.2012C40.5507 36.1895 40.4667 36.1836 40.3847 36.1836C40.1776 36.1797 39.9999 36.2129 39.8515 36.2832C39.7069 36.3535 39.5859 36.4531 39.4882 36.582C39.3905 36.707 39.3085 36.8496 39.2421 37.0098C39.1796 37.1699 39.1308 37.3359 39.0956 37.5078L38.8144 37.3906C38.8456 37.1445 38.8944 36.8574 38.9609 36.5293C39.0312 36.2012 39.1308 35.8848 39.2597 35.5801C39.3925 35.2754 39.5683 35.0234 39.787 34.8242C40.0058 34.625 40.2812 34.5254 40.6132 34.5254C40.703 34.5293 40.787 34.5391 40.8651 34.5547C40.9472 34.5703 41.0312 34.5879 41.1171 34.6074ZM44.2542 39.541L44.723 36.5996C44.7347 36.4863 44.7366 36.3711 44.7288 36.2539C44.721 36.1367 44.6878 36.0371 44.6292 35.9551C44.5745 35.8691 44.4749 35.8242 44.3304 35.8203C44.1741 35.8164 44.0491 35.8496 43.9554 35.9199C43.8616 35.9902 43.7894 36.082 43.7386 36.1953C43.6878 36.3086 43.6507 36.4277 43.6273 36.5527L42.0218 36.5645C42.0413 36.2441 42.1214 35.959 42.262 35.709C42.4066 35.4551 42.5921 35.2402 42.8187 35.0645C43.0452 34.8887 43.2991 34.7559 43.5804 34.666C43.8655 34.5762 44.1605 34.5332 44.4651 34.5371C44.887 34.5449 45.2444 34.6367 45.5374 34.8125C45.8304 34.9883 46.0452 35.2305 46.1819 35.5391C46.3187 35.8477 46.3655 36.2129 46.3226 36.6348L45.8714 39.4648C45.8362 39.6953 45.805 39.9355 45.7776 40.1855C45.7542 40.4316 45.7816 40.6699 45.8597 40.9004L45.8538 41L44.2894 41.0059C44.2191 40.7676 44.1878 40.5254 44.1956 40.2793C44.2034 40.0293 44.223 39.7832 44.2542 39.541ZM44.8694 37.127L44.7054 38.1113L44.1839 38.1055C44.0316 38.1094 43.8909 38.1387 43.762 38.1934C43.637 38.2441 43.5237 38.3184 43.4222 38.416C43.3245 38.5098 43.2444 38.6191 43.1819 38.7441C43.1234 38.8652 43.0862 39.002 43.0706 39.1543C43.055 39.2559 43.053 39.3594 43.0648 39.4648C43.0804 39.5664 43.1175 39.6523 43.1761 39.7227C43.2386 39.793 43.3323 39.8301 43.4573 39.834C43.5941 39.834 43.7288 39.8066 43.8616 39.752C43.9944 39.6934 44.1058 39.6113 44.1956 39.5059C44.2855 39.4004 44.3382 39.2773 44.3538 39.1367L44.6468 39.793C44.5804 39.9688 44.4964 40.1387 44.3948 40.3027C44.2972 40.4629 44.18 40.6074 44.0433 40.7363C43.9105 40.8613 43.7581 40.959 43.5862 41.0293C43.4183 41.0996 43.2269 41.1328 43.012 41.1289C42.6722 41.125 42.3792 41.0371 42.1331 40.8652C41.8909 40.6895 41.7093 40.4629 41.5882 40.1855C41.4671 39.9082 41.4144 39.6035 41.43 39.2715C41.4456 38.8965 41.5316 38.5742 41.6878 38.3047C41.8441 38.0312 42.0452 37.8066 42.2913 37.6309C42.5413 37.4551 42.8245 37.3262 43.1409 37.2441C43.4612 37.1621 43.7952 37.1211 44.1429 37.1211L44.8694 37.127ZM49.7878 36.1016L48.9382 41H47.321L48.4226 34.6602H49.9343L49.7878 36.1016ZM49.2898 37.6133L48.9206 37.6367C48.948 37.3008 49.0105 36.9512 49.1081 36.5879C49.2058 36.2207 49.3464 35.8789 49.53 35.5625C49.7175 35.2461 49.9538 34.9941 50.239 34.8066C50.5241 34.6152 50.8737 34.5254 51.2878 34.5371C51.6159 34.5488 51.8737 34.6309 52.0612 34.7832C52.2526 34.9355 52.3913 35.1348 52.4773 35.3809C52.5671 35.623 52.6179 35.8828 52.6296 36.1602C52.6413 36.4336 52.6335 36.7031 52.6062 36.9688L51.9323 41H50.3327L51.0007 36.9512C51.0163 36.791 51.0202 36.6328 51.0124 36.4766C51.0085 36.3164 50.9675 36.1816 50.8894 36.0723C50.8151 35.9629 50.6765 35.9082 50.4734 35.9082C50.2624 35.8965 50.0866 35.9492 49.946 36.0664C49.8054 36.1836 49.6901 36.334 49.6003 36.5176C49.5144 36.6973 49.446 36.8848 49.3952 37.0801C49.3484 37.2754 49.3132 37.4531 49.2898 37.6133ZM56.9327 39.5234L58.2335 32H59.839L58.2804 41L56.8331 41.0059L56.9327 39.5234ZM53.9972 38.0527L54.0441 37.6426C54.0909 37.2988 54.1632 36.9434 54.2608 36.5762C54.3585 36.2051 54.4991 35.8633 54.6827 35.5508C54.8702 35.2344 55.1085 34.9844 55.3976 34.8008C55.6866 34.6133 56.0441 34.5273 56.4698 34.543C56.8175 34.5547 57.0968 34.666 57.3077 34.877C57.5187 35.0879 57.6749 35.3516 57.7765 35.668C57.878 35.9844 57.9405 36.3125 57.964 36.6523C57.9913 36.9883 57.9972 37.291 57.9816 37.5605L57.9054 38.1699C57.8507 38.4551 57.7667 38.7695 57.6534 39.1133C57.5441 39.457 57.3956 39.7832 57.2081 40.0918C57.0206 40.4004 56.7941 40.6523 56.5284 40.8477C56.2667 41.043 55.9562 41.1348 55.5968 41.123C55.1944 41.1152 54.878 41.0117 54.6476 40.8125C54.4171 40.6094 54.2491 40.3516 54.1437 40.0391C54.0421 39.7266 53.9835 39.3945 53.9679 39.043C53.9562 38.6914 53.9659 38.3613 53.9972 38.0527ZM55.6612 37.6309L55.6202 38.0645C55.6085 38.1973 55.5929 38.3574 55.5733 38.5449C55.5577 38.7285 55.5597 38.9121 55.5792 39.0957C55.6026 39.2793 55.6593 39.4336 55.7491 39.5586C55.8429 39.6797 55.9894 39.7422 56.1886 39.7461C56.4308 39.7539 56.63 39.6895 56.7862 39.5527C56.9425 39.416 57.0636 39.2461 57.1495 39.043C57.2355 38.8359 57.2921 38.6309 57.3194 38.4277L57.4776 37.3086C57.4894 37.1758 57.4913 37.0312 57.4835 36.875C57.4796 36.7188 57.4581 36.5684 57.4191 36.4238C57.3839 36.2793 57.3155 36.1602 57.214 36.0664C57.1163 35.9727 56.9796 35.9219 56.8038 35.9141C56.5773 35.8945 56.3917 35.9414 56.2472 36.0547C56.1066 36.1641 55.9972 36.3105 55.9191 36.4941C55.8409 36.6777 55.7823 36.8711 55.7433 37.0742C55.7042 37.2773 55.6769 37.4629 55.6612 37.6309ZM22.8347 48.0742L19.8757 55H18.0593L22.1257 46.4688H23.2683L22.8347 48.0742ZM23.0515 55L22.4655 47.9336L22.5593 46.4688H23.6433L24.7741 55H23.0515ZM23.655 51.8184L23.403 53.2422H19.653L19.905 51.8184H23.655ZM28.5558 53.7637C28.7433 53.7676 28.8937 53.7246 29.0069 53.6348C29.1202 53.541 29.2062 53.4199 29.2648 53.2715C29.3234 53.123 29.3644 52.9727 29.3878 52.8203L30.8878 52.8145C30.8526 53.248 30.7296 53.6426 30.5187 53.998C30.3077 54.3496 30.0245 54.627 29.6691 54.8301C29.3175 55.0332 28.9151 55.1309 28.462 55.123C28.0167 55.1113 27.6515 55.0195 27.3663 54.8477C27.0851 54.6719 26.8683 54.4395 26.7159 54.1504C26.5675 53.8574 26.4718 53.5332 26.4288 53.1777C26.3898 52.8184 26.3917 52.4473 26.4347 52.0645L26.4874 51.6016C26.5421 51.1992 26.6339 50.8125 26.7628 50.4414C26.8956 50.0664 27.0753 49.7344 27.3019 49.4453C27.5323 49.1562 27.8155 48.9316 28.1515 48.7715C28.4874 48.6074 28.8839 48.5312 29.3409 48.543C29.8253 48.5547 30.2101 48.6777 30.4952 48.9121C30.7804 49.1426 30.9816 49.4434 31.0987 49.8145C31.2198 50.1855 31.2706 50.5898 31.2511 51.0273L29.7452 51.0215C29.7491 50.8691 29.7452 50.709 29.7335 50.541C29.7218 50.3691 29.673 50.2207 29.587 50.0957C29.505 49.9707 29.3663 49.9043 29.171 49.8965C28.9405 49.8887 28.7569 49.9395 28.6202 50.0488C28.4835 50.1582 28.38 50.3027 28.3097 50.4824C28.2394 50.6621 28.1886 50.8516 28.1573 51.0508C28.13 51.25 28.1046 51.4316 28.0812 51.5957L28.0401 52.0645C28.0284 52.1973 28.0109 52.3594 27.9874 52.5508C27.964 52.7383 27.9581 52.9258 27.9698 53.1133C27.9816 53.2969 28.0284 53.4512 28.1105 53.5762C28.1964 53.6973 28.3448 53.7598 28.5558 53.7637ZM35.8472 48.6602L35.6245 49.8965H32.478L32.7007 48.6602H35.8472ZM33.6968 47.0957H35.2905L34.271 53.0781C34.2593 53.1836 34.2534 53.2832 34.2534 53.377C34.2534 53.4707 34.2749 53.5488 34.3179 53.6113C34.3648 53.6738 34.4507 53.707 34.5757 53.7109C34.6421 53.7109 34.7066 53.707 34.7691 53.6992C34.8355 53.6914 34.9019 53.6816 34.9683 53.6699L34.8394 54.9648C34.7026 55.0156 34.564 55.0527 34.4234 55.0762C34.2827 55.0996 34.1382 55.1094 33.9898 55.1055C33.6265 55.1016 33.3433 55.0117 33.1401 54.8359C32.937 54.6562 32.7984 54.4277 32.7241 54.1504C32.6499 53.8691 32.6284 53.5664 32.6597 53.2422L33.6968 47.0957ZM39.0077 48.6602L37.9062 55H36.3007L37.4023 48.6602H39.0077ZM37.6132 47.0488C37.6093 46.7949 37.6894 46.5801 37.8534 46.4043C38.0175 46.2285 38.2304 46.1387 38.4921 46.1348C38.7382 46.1309 38.9433 46.209 39.1073 46.3691C39.2714 46.5293 39.3515 46.7344 39.3476 46.9844C39.3554 47.2383 39.2773 47.4531 39.1132 47.6289C38.953 47.8047 38.7421 47.8945 38.4804 47.8984C38.2343 47.9062 38.0292 47.8301 37.8651 47.6699C37.7011 47.5059 37.6171 47.2988 37.6132 47.0488ZM41.8401 53.6641L43.5921 48.6602H45.303L42.6194 55H41.5941L41.8401 53.6641ZM42.0276 48.6602L42.2444 53.8164L42.0745 55H41.0843L40.387 48.6602H42.0276ZM48.4519 53.541L48.9206 50.5996C48.9323 50.4863 48.9343 50.3711 48.9265 50.2539C48.9187 50.1367 48.8855 50.0371 48.8269 49.9551C48.7722 49.8691 48.6726 49.8242 48.528 49.8203C48.3718 49.8164 48.2468 49.8496 48.153 49.9199C48.0593 49.9902 47.987 50.082 47.9362 50.1953C47.8855 50.3086 47.8484 50.4277 47.8249 50.5527L46.2194 50.5645C46.239 50.2441 46.3191 49.959 46.4597 49.709C46.6042 49.4551 46.7898 49.2402 47.0163 49.0645C47.2429 48.8887 47.4968 48.7559 47.778 48.666C48.0632 48.5762 48.3581 48.5332 48.6628 48.5371C49.0847 48.5449 49.4421 48.6367 49.7351 48.8125C50.028 48.9883 50.2429 49.2305 50.3796 49.5391C50.5163 49.8477 50.5632 50.2129 50.5202 50.6348L50.0691 53.4648C50.0339 53.6953 50.0026 53.9355 49.9753 54.1855C49.9519 54.4316 49.9792 54.6699 50.0573 54.9004L50.0515 55L48.487 55.0059C48.4167 54.7676 48.3855 54.5254 48.3933 54.2793C48.4011 54.0293 48.4206 53.7832 48.4519 53.541ZM49.0671 51.127L48.903 52.1113L48.3816 52.1055C48.2292 52.1094 48.0886 52.1387 47.9597 52.1934C47.8347 52.2441 47.7214 52.3184 47.6198 52.416C47.5222 52.5098 47.4421 52.6191 47.3796 52.7441C47.321 52.8652 47.2839 53.002 47.2683 53.1543C47.2526 53.2559 47.2507 53.3594 47.2624 53.4648C47.278 53.5664 47.3151 53.6523 47.3737 53.7227C47.4362 53.793 47.53 53.8301 47.655 53.834C47.7917 53.834 47.9265 53.8066 48.0593 53.752C48.1921 53.6934 48.3034 53.6113 48.3933 53.5059C48.4831 53.4004 48.5359 53.2773 48.5515 53.1367L48.8444 53.793C48.778 53.9688 48.6941 54.1387 48.5925 54.3027C48.4948 54.4629 48.3776 54.6074 48.2409 54.7363C48.1081 54.8613 47.9558 54.959 47.7839 55.0293C47.6159 55.0996 47.4245 55.1328 47.2097 55.1289C46.8698 55.125 46.5769 55.0371 46.3308 54.8652C46.0886 54.6895 45.9069 54.4629 45.7859 54.1855C45.6648 53.9082 45.612 53.6035 45.6276 53.2715C45.6433 52.8965 45.7292 52.5742 45.8855 52.3047C46.0417 52.0312 46.2429 51.8066 46.489 51.6309C46.739 51.4551 47.0222 51.3262 47.3386 51.2441C47.6589 51.1621 47.9929 51.1211 48.3405 51.1211L49.0671 51.127ZM55.3566 48.6602L55.1339 49.8965H51.9874L52.2101 48.6602H55.3566ZM53.2062 47.0957H54.7999L53.7804 53.0781C53.7687 53.1836 53.7628 53.2832 53.7628 53.377C53.7628 53.4707 53.7843 53.5488 53.8273 53.6113C53.8741 53.6738 53.9601 53.707 54.0851 53.7109C54.1515 53.7109 54.2159 53.707 54.2784 53.6992C54.3448 53.6914 54.4112 53.6816 54.4776 53.6699L54.3487 54.9648C54.212 55.0156 54.0733 55.0527 53.9327 55.0762C53.7921 55.0996 53.6476 55.1094 53.4991 55.1055C53.1358 55.1016 52.8526 55.0117 52.6495 54.8359C52.4464 54.6562 52.3077 54.4277 52.2335 54.1504C52.1593 53.8691 52.1378 53.5664 52.1691 53.2422L53.2062 47.0957ZM58.5171 48.6602L57.4155 55H55.8101L56.9116 48.6602H58.5171ZM57.1226 47.0488C57.1187 46.7949 57.1987 46.5801 57.3628 46.4043C57.5269 46.2285 57.7398 46.1387 58.0015 46.1348C58.2476 46.1309 58.4526 46.209 58.6167 46.3691C58.7808 46.5293 58.8609 46.7344 58.8569 46.9844C58.8648 47.2383 58.7866 47.4531 58.6226 47.6289C58.4624 47.8047 58.2515 47.8945 57.9898 47.8984C57.7437 47.9062 57.5386 47.8301 57.3745 47.6699C57.2105 47.5059 57.1265 47.2988 57.1226 47.0488ZM59.6034 52.0469L59.6562 51.625C59.6991 51.2266 59.7909 50.8418 59.9316 50.4707C60.0761 50.0996 60.2675 49.7656 60.5058 49.4688C60.748 49.1719 61.039 48.9414 61.3788 48.7773C61.7226 48.6094 62.1171 48.5312 62.5624 48.543C62.9999 48.5508 63.3593 48.6445 63.6405 48.8242C63.9257 49.0039 64.1483 49.2422 64.3085 49.5391C64.4687 49.832 64.5722 50.1602 64.6191 50.5234C64.6698 50.8828 64.6757 51.248 64.6366 51.6191L64.5898 52.041C64.539 52.4434 64.4433 52.8301 64.3026 53.2012C64.162 53.5723 63.9706 53.9043 63.7284 54.1973C63.4901 54.4902 63.1991 54.7207 62.8554 54.8887C62.5155 55.0527 62.123 55.1289 61.6776 55.1172C61.2441 55.1094 60.8847 55.0156 60.5995 54.8359C60.3183 54.6562 60.0976 54.4199 59.9374 54.127C59.7773 53.834 59.6718 53.5078 59.621 53.1484C59.5702 52.7852 59.5644 52.418 59.6034 52.0469ZM61.2675 51.6191L61.2206 52.0586C61.2089 52.1836 61.1972 52.3398 61.1855 52.5273C61.1737 52.7109 61.1816 52.8965 61.2089 53.084C61.2362 53.2715 61.2968 53.4297 61.3905 53.5586C61.4843 53.6836 61.6288 53.75 61.8241 53.7578C62.0429 53.7734 62.2245 53.7246 62.3691 53.6113C62.5175 53.4941 62.6327 53.3438 62.7148 53.1602C62.7968 52.9766 62.8593 52.7852 62.9023 52.5859C62.9452 52.3828 62.9765 52.1992 62.996 52.0352L63.037 51.6074C63.0448 51.4863 63.0526 51.332 63.0605 51.1445C63.0722 50.9531 63.0644 50.7656 63.037 50.582C63.0097 50.3945 62.9472 50.2363 62.8495 50.1074C62.7558 49.9785 62.6132 49.9082 62.4218 49.8965C62.2069 49.8848 62.0292 49.9375 61.8886 50.0547C61.7519 50.1719 61.6405 50.3223 61.5546 50.5059C61.4687 50.6855 61.4042 50.877 61.3612 51.0801C61.3183 51.2832 61.287 51.4629 61.2675 51.6191ZM68.0784 50.1016L67.2288 55H65.6116L66.7132 48.6602H68.2249L68.0784 50.1016ZM67.5804 51.6133L67.2112 51.6367C67.2386 51.3008 67.3011 50.9512 67.3987 50.5879C67.4964 50.2207 67.637 49.8789 67.8206 49.5625C68.0081 49.2461 68.2444 48.9941 68.5296 48.8066C68.8148 48.6152 69.1644 48.5254 69.5784 48.5371C69.9066 48.5488 70.1644 48.6309 70.3519 48.7832C70.5433 48.9355 70.6819 49.1348 70.7679 49.3809C70.8577 49.623 70.9085 49.8828 70.9202 50.1602C70.9319 50.4336 70.9241 50.7031 70.8968 50.9688L70.223 55H68.6234L69.2913 50.9512C69.3069 50.791 69.3109 50.6328 69.303 50.4766C69.2991 50.3164 69.2581 50.1816 69.18 50.0723C69.1058 49.9629 68.9671 49.9082 68.764 49.9082C68.553 49.8965 68.3773 49.9492 68.2366 50.0664C68.096 50.1836 67.9808 50.334 67.8909 50.5176C67.805 50.6973 67.7366 50.8848 67.6859 51.0801C67.639 51.2754 67.6038 51.4531 67.5804 51.6133Z" fill="white"/>
</g>
<defs>
<filter id="filter0_i_85_37" x="0" y="0" width="90" height="94" filterUnits="userSpaceOnUse" color-interpolation-filters="sRGB">
<feFlood flood-opacity="0" result="BackgroundImageFix"/>
<feBlend mode="normal" in="SourceGraphic" in2="BackgroundImageFix" result="shape"/>
<feColorMatrix in="SourceAlpha" type="matrix" values="0 0 0 0 0 0 0 0 0 0 0 0 0 0 0 0 0 0 127 0" result="hardAlpha"/>
<feOffset dy="4"/>
<feGaussianBlur stdDeviation="2"/>
<feComposite in2="hardAlpha" operator="arithmetic" k2="-1" k3="1"/>
<feColorMatrix type="matrix" values="0 0 0 0 0 0 0 0 0 0 0 0 0 0 0 0 0 0 0.25 0"/>
<feBlend mode="normal" in2="shape" result="effect1_innerShadow_85_37"/>
</filter>
</defs>
</svg>
