<svg width="90" height="90" viewBox="0 0 90 90" fill="none" xmlns="http://www.w3.org/2000/svg">
<g filter="url(#filter0_i_85_40)">
<circle cx="45" cy="45" r="45" fill="#72BDBF"/>
<path d="M29.0538 38.1641L30.6651 38.1406C30.6026 38.7344 30.4366 39.2578 30.1671 39.7109C29.9015 40.1641 29.5401 40.5156 29.0831 40.7656C28.63 41.0156 28.0948 41.1328 27.4776 41.1172C26.962 41.1055 26.5382 40.9941 26.2062 40.7832C25.8741 40.5684 25.6183 40.2871 25.4386 39.9395C25.2589 39.5879 25.1476 39.1992 25.1046 38.7734C25.0616 38.3438 25.0675 37.9062 25.1222 37.4609L25.3448 36.0137C25.4151 35.541 25.5343 35.084 25.7023 34.6426C25.8702 34.1973 26.0929 33.8008 26.3702 33.4531C26.6476 33.1016 26.9874 32.8262 27.3898 32.627C27.796 32.4277 28.2648 32.334 28.796 32.3457C29.4093 32.3574 29.8937 32.5 30.2491 32.7734C30.6085 33.043 30.8663 33.4043 31.0226 33.8574C31.1788 34.3105 31.2589 34.8125 31.2628 35.3633L29.587 35.3574C29.6026 35.0918 29.5987 34.8398 29.5753 34.6016C29.5519 34.3594 29.4737 34.1621 29.3409 34.0098C29.212 33.8535 28.9874 33.7695 28.6671 33.7578C28.3546 33.7461 28.0968 33.8086 27.8937 33.9453C27.6944 34.082 27.5343 34.2637 27.4132 34.4902C27.296 34.7168 27.2062 34.9629 27.1437 35.2285C27.0851 35.4941 27.0382 35.752 27.003 36.002L26.798 37.4668C26.7706 37.6699 26.7452 37.8965 26.7218 38.1465C26.7023 38.3965 26.7081 38.6387 26.7394 38.873C26.7706 39.1074 26.8507 39.3027 26.9796 39.459C27.1085 39.6152 27.3175 39.7012 27.6066 39.7168C27.9464 39.7285 28.212 39.666 28.4034 39.5293C28.5948 39.3926 28.7374 39.2051 28.8312 38.9668C28.9288 38.7246 29.003 38.457 29.0538 38.1641ZM32.1323 38.0469L32.1851 37.625C32.228 37.2266 32.3198 36.8418 32.4605 36.4707C32.605 36.0996 32.7964 35.7656 33.0347 35.4688C33.2769 35.1719 33.5679 34.9414 33.9077 34.7773C34.2515 34.6094 34.646 34.5312 35.0913 34.543C35.5288 34.5508 35.8882 34.6445 36.1694 34.8242C36.4546 35.0039 36.6773 35.2422 36.8374 35.5391C36.9976 35.832 37.1011 36.1602 37.148 36.5234C37.1987 36.8828 37.2046 37.248 37.1655 37.6191L37.1187 38.041C37.0679 38.4434 36.9722 38.8301 36.8316 39.2012C36.6909 39.5723 36.4995 39.9043 36.2573 40.1973C36.0191 40.4902 35.728 40.7207 35.3843 40.8887C35.0444 41.0527 34.6519 41.1289 34.2066 41.1172C33.773 41.1094 33.4136 41.0156 33.1284 40.8359C32.8472 40.6562 32.6265 40.4199 32.4663 40.127C32.3062 39.834 32.2007 39.5078 32.1499 39.1484C32.0991 38.7852 32.0933 38.418 32.1323 38.0469ZM33.7964 37.6191L33.7495 38.0586C33.7378 38.1836 33.7261 38.3398 33.7144 38.5273C33.7026 38.7109 33.7105 38.8965 33.7378 39.084C33.7651 39.2715 33.8257 39.4297 33.9194 39.5586C34.0132 39.6836 34.1577 39.75 34.353 39.7578C34.5718 39.7734 34.7534 39.7246 34.898 39.6113C35.0464 39.4941 35.1616 39.3438 35.2437 39.1602C35.3257 38.9766 35.3882 38.7852 35.4312 38.5859C35.4741 38.3828 35.5054 38.1992 35.5249 38.0352L35.5659 37.6074C35.5737 37.4863 35.5816 37.332 35.5894 37.1445C35.6011 36.9531 35.5933 36.7656 35.5659 36.582C35.5386 36.3945 35.4761 36.2363 35.3784 36.1074C35.2847 35.9785 35.1421 35.9082 34.9507 35.8965C34.7359 35.8848 34.5581 35.9375 34.4175 36.0547C34.2808 36.1719 34.1694 36.3223 34.0835 36.5059C33.9976 36.6855 33.9331 36.877 33.8901 37.0801C33.8472 37.2832 33.8159 37.4629 33.7964 37.6191ZM40.6073 36.1016L39.7577 41H38.1405L39.2421 34.6602H40.7538L40.6073 36.1016ZM40.1093 37.6133L39.7401 37.6367C39.7675 37.3008 39.83 36.9512 39.9276 36.5879C40.0253 36.2207 40.1659 35.8789 40.3495 35.5625C40.537 35.2461 40.7733 34.9941 41.0585 34.8066C41.3437 34.6152 41.6933 34.5254 42.1073 34.5371C42.4355 34.5488 42.6933 34.6309 42.8808 34.7832C43.0722 34.9355 43.2108 35.1348 43.2968 35.3809C43.3866 35.623 43.4374 35.8828 43.4491 36.1602C43.4608 36.4336 43.453 36.7031 43.4257 36.9688L42.7519 41H41.1523L41.8202 36.9512C41.8358 36.791 41.8398 36.6328 41.8319 36.4766C41.828 36.3164 41.787 36.1816 41.7089 36.0723C41.6347 35.9629 41.496 35.9082 41.2929 35.9082C41.0819 35.8965 40.9062 35.9492 40.7655 36.0664C40.6249 36.1836 40.5097 36.334 40.4198 36.5176C40.3339 36.6973 40.2655 36.8848 40.2148 37.0801C40.1679 37.2754 40.1327 37.4531 40.1093 37.6133ZM48.3089 34.6602L48.0862 35.8965H44.9398L45.1624 34.6602H48.3089ZM46.1585 33.0957H47.7523L46.7327 39.0781C46.721 39.1836 46.7151 39.2832 46.7151 39.377C46.7151 39.4707 46.7366 39.5488 46.7796 39.6113C46.8265 39.6738 46.9124 39.707 47.0374 39.7109C47.1038 39.7109 47.1683 39.707 47.2308 39.6992C47.2972 39.6914 47.3636 39.6816 47.43 39.6699L47.3011 40.9648C47.1644 41.0156 47.0257 41.0527 46.8851 41.0762C46.7444 41.0996 46.5999 41.1094 46.4515 41.1055C46.0882 41.1016 45.805 41.0117 45.6019 40.8359C45.3987 40.6562 45.2601 40.4277 45.1859 40.1504C45.1116 39.8691 45.0901 39.5664 45.1214 39.2422L46.1585 33.0957ZM51.2585 41.1172C50.8366 41.1094 50.4753 41.0273 50.1745 40.8711C49.8737 40.7148 49.6335 40.502 49.4538 40.2324C49.2741 39.959 49.1511 39.6504 49.0847 39.3066C49.0183 38.959 49.0046 38.5879 49.0437 38.1934L49.1023 37.6719C49.1569 37.2656 49.2526 36.873 49.3894 36.4941C49.5261 36.1152 49.7097 35.7773 49.9401 35.4805C50.1745 35.1797 50.4616 34.9453 50.8015 34.7773C51.1413 34.6094 51.5398 34.5293 51.9968 34.5371C52.4343 34.5488 52.7878 34.6465 53.0573 34.8301C53.3308 35.0098 53.5359 35.248 53.6726 35.5449C53.8132 35.8418 53.8991 36.1719 53.9304 36.5352C53.9616 36.8945 53.9538 37.2578 53.9069 37.625L53.8015 38.375H49.6706L49.8757 37.2207L52.3776 37.2266L52.4069 37.0625C52.4343 36.8984 52.4441 36.7285 52.4362 36.5527C52.4284 36.373 52.3816 36.2227 52.2956 36.1016C52.2097 35.9766 52.0612 35.9082 51.8503 35.8965C51.6198 35.8848 51.4323 35.9375 51.2878 36.0547C51.1472 36.168 51.0378 36.3184 50.9597 36.5059C50.8816 36.6934 50.8249 36.8906 50.7898 37.0977C50.7585 37.3008 50.7331 37.4922 50.7136 37.6719L50.6491 38.1992C50.6296 38.375 50.6218 38.5527 50.6257 38.7324C50.6296 38.9082 50.653 39.0723 50.696 39.2246C50.7429 39.377 50.8249 39.502 50.9421 39.5996C51.0632 39.6973 51.2351 39.748 51.4577 39.752C51.7312 39.7598 51.9831 39.709 52.2136 39.5996C52.448 39.4902 52.6667 39.3496 52.8698 39.1777L53.4148 40.1797C53.2507 40.3984 53.0515 40.5801 52.8171 40.7246C52.5827 40.8652 52.3288 40.9668 52.0554 41.0293C51.7859 41.0918 51.5202 41.1211 51.2585 41.1172ZM57.2901 36.1016L56.4405 41H54.8233L55.9249 34.6602H57.4366L57.2901 36.1016ZM56.7921 37.6133L56.423 37.6367C56.4503 37.3008 56.5128 36.9512 56.6105 36.5879C56.7081 36.2207 56.8487 35.8789 57.0323 35.5625C57.2198 35.2461 57.4562 34.9941 57.7413 34.8066C58.0265 34.6152 58.3761 34.5254 58.7901 34.5371C59.1183 34.5488 59.3761 34.6309 59.5636 34.7832C59.755 34.9355 59.8937 35.1348 59.9796 35.3809C60.0694 35.623 60.1202 35.8828 60.1319 36.1602C60.1437 36.4336 60.1358 36.7031 60.1085 36.9688L59.4347 41H57.8351L58.503 36.9512C58.5187 36.791 58.5226 36.6328 58.5148 36.4766C58.5108 36.3164 58.4698 36.1816 58.3917 36.0723C58.3175 35.9629 58.1788 35.9082 57.9757 35.9082C57.7648 35.8965 57.589 35.9492 57.4483 36.0664C57.3077 36.1836 57.1925 36.334 57.1026 36.5176C57.0167 36.6973 56.9483 36.8848 56.8976 37.0801C56.8507 37.2754 56.8155 37.4531 56.7921 37.6133ZM64.9917 34.6602L64.7691 35.8965H61.6226L61.8452 34.6602H64.9917ZM62.8413 33.0957H64.4351L63.4155 39.0781C63.4038 39.1836 63.398 39.2832 63.398 39.377C63.398 39.4707 63.4194 39.5488 63.4624 39.6113C63.5093 39.6738 63.5952 39.707 63.7202 39.7109C63.7866 39.7109 63.8511 39.707 63.9136 39.6992C63.98 39.6914 64.0464 39.6816 64.1128 39.6699L63.9839 40.9648C63.8472 41.0156 63.7085 41.0527 63.5679 41.0762C63.4273 41.0996 63.2827 41.1094 63.1343 41.1055C62.771 41.1016 62.4878 41.0117 62.2847 40.8359C62.0816 40.6562 61.9429 40.4277 61.8687 40.1504C61.7944 39.8691 61.773 39.5664 61.8042 39.2422L62.8413 33.0957ZM21.2597 46.4688H22.6249L23.1405 52.627L25.7714 46.4688H27.2304L23.3398 55H22.1972L21.2597 46.4688ZM20.4745 46.4688H21.8808L21.0722 52.75L20.6737 55H19.0038L20.4745 46.4688ZM26.5566 46.4688H27.9687L26.4921 55H24.8163L25.2382 52.5977L26.5566 46.4688ZM31.3226 53.541L31.7913 50.5996C31.803 50.4863 31.805 50.3711 31.7972 50.2539C31.7894 50.1367 31.7562 50.0371 31.6976 49.9551C31.6429 49.8691 31.5433 49.8242 31.3987 49.8203C31.2425 49.8164 31.1175 49.8496 31.0237 49.9199C30.93 49.9902 30.8577 50.082 30.8069 50.1953C30.7562 50.3086 30.7191 50.4277 30.6956 50.5527L29.0901 50.5645C29.1097 50.2441 29.1898 49.959 29.3304 49.709C29.4749 49.4551 29.6605 49.2402 29.887 49.0645C30.1136 48.8887 30.3675 48.7559 30.6487 48.666C30.9339 48.5762 31.2288 48.5332 31.5335 48.5371C31.9554 48.5449 32.3128 48.6367 32.6058 48.8125C32.8987 48.9883 33.1136 49.2305 33.2503 49.5391C33.387 49.8477 33.4339 50.2129 33.3909 50.6348L32.9398 53.4648C32.9046 53.6953 32.8734 53.9355 32.846 54.1855C32.8226 54.4316 32.8499 54.6699 32.928 54.9004L32.9222 55L31.3577 55.0059C31.2874 54.7676 31.2562 54.5254 31.264 54.2793C31.2718 54.0293 31.2913 53.7832 31.3226 53.541ZM31.9378 51.127L31.7737 52.1113L31.2523 52.1055C31.0999 52.1094 30.9593 52.1387 30.8304 52.1934C30.7054 52.2441 30.5921 52.3184 30.4905 52.416C30.3929 52.5098 30.3128 52.6191 30.2503 52.7441C30.1917 52.8652 30.1546 53.002 30.139 53.1543C30.1234 53.2559 30.1214 53.3594 30.1331 53.4648C30.1487 53.5664 30.1859 53.6523 30.2444 53.7227C30.3069 53.793 30.4007 53.8301 30.5257 53.834C30.6624 53.834 30.7972 53.8066 30.93 53.752C31.0628 53.6934 31.1741 53.6113 31.264 53.5059C31.3538 53.4004 31.4066 53.2773 31.4222 53.1367L31.7151 53.793C31.6487 53.9688 31.5648 54.1387 31.4632 54.3027C31.3655 54.4629 31.2484 54.6074 31.1116 54.7363C30.9788 54.8613 30.8265 54.959 30.6546 55.0293C30.4866 55.0996 30.2952 55.1328 30.0804 55.1289C29.7405 55.125 29.4476 55.0371 29.2015 54.8652C28.9593 54.6895 28.7776 54.4629 28.6566 54.1855C28.5355 53.9082 28.4827 53.6035 28.4984 53.2715C28.514 52.8965 28.5999 52.5742 28.7562 52.3047C28.9124 52.0312 29.1136 51.8066 29.3597 51.6309C29.6097 51.4551 29.8929 51.3262 30.2093 51.2441C30.5296 51.1621 30.8636 51.1211 31.2112 51.1211L31.9378 51.127ZM36.8679 50.1602L36.03 55H34.4304L35.5319 48.6602H37.0437L36.8679 50.1602ZM38.5495 48.6074L38.3327 50.2422C38.2468 50.2227 38.1589 50.209 38.0691 50.2012C37.9831 50.1895 37.8991 50.1836 37.8171 50.1836C37.6101 50.1797 37.4323 50.2129 37.2839 50.2832C37.1394 50.3535 37.0183 50.4531 36.9206 50.582C36.823 50.707 36.7409 50.8496 36.6745 51.0098C36.612 51.1699 36.5632 51.3359 36.528 51.5078L36.2468 51.3906C36.278 51.1445 36.3269 50.8574 36.3933 50.5293C36.4636 50.2012 36.5632 49.8848 36.6921 49.5801C36.8249 49.2754 37.0007 49.0234 37.2194 48.8242C37.4382 48.625 37.7136 48.5254 38.0456 48.5254C38.1355 48.5293 38.2194 48.5391 38.2976 48.5547C38.3796 48.5703 38.4636 48.5879 38.5495 48.6074ZM42.0499 45.9941L40.4855 55H38.8859L40.4503 45.9941H42.0499ZM44.8741 48.6602L42.1202 51.8477L40.5792 53.3359L40.2101 51.9941L41.464 50.4941L42.8702 48.6602H44.8741ZM42.0909 55L41.2296 52.0176L42.4542 51.0273L43.8487 55H42.0909ZM47.5073 55.1172C47.0855 55.1094 46.7241 55.0273 46.4234 54.8711C46.1226 54.7148 45.8823 54.502 45.7026 54.2324C45.523 53.959 45.3999 53.6504 45.3335 53.3066C45.2671 52.959 45.2534 52.5879 45.2925 52.1934L45.3511 51.6719C45.4058 51.2656 45.5015 50.873 45.6382 50.4941C45.7749 50.1152 45.9585 49.7773 46.189 49.4805C46.4234 49.1797 46.7105 48.9453 47.0503 48.7773C47.3901 48.6094 47.7886 48.5293 48.2456 48.5371C48.6831 48.5488 49.0366 48.6465 49.3062 48.8301C49.5796 49.0098 49.7847 49.248 49.9214 49.5449C50.062 49.8418 50.148 50.1719 50.1792 50.5352C50.2105 50.8945 50.2026 51.2578 50.1558 51.625L50.0503 52.375H45.9194L46.1245 51.2207L48.6265 51.2266L48.6558 51.0625C48.6831 50.8984 48.6929 50.7285 48.6851 50.5527C48.6773 50.373 48.6304 50.2227 48.5444 50.1016C48.4585 49.9766 48.3101 49.9082 48.0991 49.8965C47.8687 49.8848 47.6812 49.9375 47.5366 50.0547C47.396 50.168 47.2866 50.3184 47.2085 50.5059C47.1304 50.6934 47.0737 50.8906 47.0386 51.0977C47.0073 51.3008 46.9819 51.4922 46.9624 51.6719L46.898 52.1992C46.8784 52.375 46.8706 52.5527 46.8745 52.7324C46.8784 52.9082 46.9019 53.0723 46.9448 53.2246C46.9917 53.377 47.0737 53.502 47.1909 53.5996C47.312 53.6973 47.4839 53.748 47.7066 53.752C47.98 53.7598 48.2319 53.709 48.4624 53.5996C48.6968 53.4902 48.9155 53.3496 49.1187 53.1777L49.6636 54.1797C49.4995 54.3984 49.3003 54.5801 49.0659 54.7246C48.8316 54.8652 48.5776 54.9668 48.3042 55.0293C48.0347 55.0918 47.7691 55.1211 47.5073 55.1172ZM54.9101 48.6602L54.6874 49.8965H51.5409L51.7636 48.6602H54.9101ZM52.7597 47.0957H54.3534L53.3339 53.0781C53.3222 53.1836 53.3163 53.2832 53.3163 53.377C53.3163 53.4707 53.3378 53.5488 53.3808 53.6113C53.4277 53.6738 53.5136 53.707 53.6386 53.7109C53.705 53.7109 53.7694 53.707 53.8319 53.6992C53.8984 53.6914 53.9648 53.6816 54.0312 53.6699L53.9023 54.9648C53.7655 55.0156 53.6269 55.0527 53.4862 55.0762C53.3456 55.0996 53.2011 55.1094 53.0527 55.1055C52.6894 55.1016 52.4062 55.0117 52.203 54.8359C51.9999 54.6562 51.8612 54.4277 51.787 54.1504C51.7128 53.8691 51.6913 53.5664 51.7226 53.2422L52.7597 47.0957ZM58.0706 48.6602L56.9691 55H55.3636L56.4651 48.6602H58.0706ZM56.6761 47.0488C56.6722 46.7949 56.7523 46.5801 56.9163 46.4043C57.0804 46.2285 57.2933 46.1387 57.555 46.1348C57.8011 46.1309 58.0062 46.209 58.1702 46.3691C58.3343 46.5293 58.4144 46.7344 58.4105 46.9844C58.4183 47.2383 58.3401 47.4531 58.1761 47.6289C58.0159 47.8047 57.805 47.8945 57.5433 47.8984C57.2972 47.9062 57.0921 47.8301 56.928 47.6699C56.764 47.5059 56.68 47.2988 56.6761 47.0488ZM61.2429 50.1016L60.3933 55H58.7761L59.8776 48.6602H61.3894L61.2429 50.1016ZM60.7448 51.6133L60.3757 51.6367C60.403 51.3008 60.4655 50.9512 60.5632 50.5879C60.6609 50.2207 60.8015 49.8789 60.9851 49.5625C61.1726 49.2461 61.4089 48.9941 61.6941 48.8066C61.9792 48.6152 62.3288 48.5254 62.7429 48.5371C63.071 48.5488 63.3288 48.6309 63.5163 48.7832C63.7077 48.9355 63.8464 49.1348 63.9323 49.3809C64.0222 49.623 64.073 49.8828 64.0847 50.1602C64.0964 50.4336 64.0886 50.7031 64.0612 50.9688L63.3874 55H61.7878L62.4558 50.9512C62.4714 50.791 62.4753 50.6328 62.4675 50.4766C62.4636 50.3164 62.4226 50.1816 62.3444 50.0723C62.2702 49.9629 62.1316 49.9082 61.9284 49.9082C61.7175 49.8965 61.5417 49.9492 61.4011 50.0664C61.2605 50.1836 61.1452 50.334 61.0554 50.5176C60.9694 50.6973 60.9011 50.8848 60.8503 51.0801C60.8034 51.2754 60.7683 51.4531 60.7448 51.6133ZM69.4718 48.6602H70.9366L69.8585 54.9941C69.7882 55.5254 69.6261 55.9805 69.3722 56.3594C69.1222 56.7422 68.7941 57.0312 68.3878 57.2266C67.9855 57.4258 67.5108 57.5195 66.964 57.5078C66.7335 57.4961 66.505 57.4609 66.2784 57.4023C66.0558 57.3477 65.8409 57.2637 65.6339 57.1504C65.4308 57.0371 65.2491 56.9023 65.089 56.7461L65.7569 55.6152C65.9093 55.791 66.0929 55.9277 66.3077 56.0254C66.5226 56.127 66.7452 56.1816 66.9757 56.1895C67.2374 56.1973 67.4542 56.1523 67.6261 56.0547C67.8019 55.957 67.9386 55.8184 68.0362 55.6387C68.1378 55.4629 68.2081 55.2539 68.2472 55.0117L69.0851 50.0488L69.4718 48.6602ZM65.4757 52.0938L65.5226 51.6719C65.5616 51.3164 65.6339 50.9531 65.7394 50.582C65.8487 50.2109 65.9991 49.8672 66.1905 49.5508C66.3819 49.2344 66.6261 48.9844 66.923 48.8008C67.2237 48.6133 67.589 48.5273 68.0187 48.543C68.3976 48.5547 68.6925 48.6621 68.9034 48.8652C69.1183 49.0684 69.2726 49.3262 69.3663 49.6387C69.4601 49.9473 69.5167 50.2734 69.5362 50.6172C69.5558 50.957 69.5538 51.2715 69.5304 51.5605L69.4542 52.1699C69.4034 52.4629 69.3214 52.7812 69.2081 53.125C69.0987 53.4688 68.9523 53.7949 68.7687 54.1035C68.5851 54.4121 68.3605 54.6621 68.0948 54.8535C67.8292 55.0449 67.5108 55.1367 67.1398 55.1289C66.7413 55.1172 66.423 55.0137 66.1847 54.8184C65.9503 54.623 65.7765 54.373 65.6632 54.0684C65.5538 53.7598 65.4874 53.4316 65.464 53.084C65.4405 52.7363 65.4444 52.4062 65.4757 52.0938ZM67.1339 51.6309L67.087 52.0645C67.0753 52.2051 67.0636 52.3711 67.0519 52.5625C67.0441 52.75 67.0519 52.9336 67.0753 53.1133C67.1026 53.2891 67.1651 53.4375 67.2628 53.5586C67.3644 53.6758 67.5187 53.7383 67.7257 53.7461C67.9796 53.7578 68.1886 53.6973 68.3526 53.5645C68.5206 53.4316 68.6476 53.2637 68.7335 53.0605C68.8194 52.8535 68.8819 52.6426 68.921 52.4277L69.0792 51.3086C69.087 51.1641 69.087 51.0137 69.0792 50.8574C69.0714 50.7012 69.046 50.5527 69.003 50.4121C68.964 50.2715 68.8917 50.1562 68.7862 50.0664C68.6808 49.9727 68.5382 49.9219 68.3585 49.9141C68.128 49.8984 67.9366 49.9473 67.7843 50.0605C67.6358 50.1699 67.5167 50.3145 67.4269 50.4941C67.3409 50.6699 67.2745 50.8613 67.2276 51.0684C67.1847 51.2715 67.1534 51.459 67.1339 51.6309Z" fill="white"/>
</g>
<defs>
<filter id="filter0_i_85_40" x="0" y="0" width="90" height="94" filterUnits="userSpaceOnUse" color-interpolation-filters="sRGB">
<feFlood flood-opacity="0" result="BackgroundImageFix"/>
<feBlend mode="normal" in="SourceGraphic" in2="BackgroundImageFix" result="shape"/>
<feColorMatrix in="SourceAlpha" type="matrix" values="0 0 0 0 0 0 0 0 0 0 0 0 0 0 0 0 0 0 127 0" result="hardAlpha"/>
<feOffset dy="4"/>
<feGaussianBlur stdDeviation="2"/>
<feComposite in2="hardAlpha" operator="arithmetic" k2="-1" k3="1"/>
<feColorMatrix type="matrix" values="0 0 0 0 0 0 0 0 0 0 0 0 0 0 0 0 0 0 0.25 0"/>
<feBlend mode="normal" in2="shape" result="effect1_innerShadow_85_40"/>
</filter>
</defs>
</svg>
