<svg width="90" height="90" viewBox="0 0 90 90" fill="none" xmlns="http://www.w3.org/2000/svg">
<g filter="url(#filter0_i_85_34)">
<circle cx="45" cy="45" r="45" fill="#47689B"/>
<path d="M30.0558 41H28.5089L28.7667 39.582L30.1378 39.5879C30.5987 39.5918 30.9659 39.498 31.2394 39.3066C31.5167 39.1113 31.7237 38.8496 31.8605 38.5215C31.9972 38.1895 32.0968 37.8145 32.1593 37.3965L32.3468 36.0605C32.378 35.8145 32.3995 35.5664 32.4112 35.3164C32.4269 35.0664 32.4073 34.8359 32.3526 34.625C32.298 34.4141 32.1886 34.2441 32.0245 34.1152C31.8644 33.9824 31.6261 33.9102 31.3097 33.8984L29.7101 33.8926L29.962 32.4688L31.38 32.4746C31.8956 32.4863 32.3331 32.5918 32.6925 32.791C33.0519 32.9902 33.339 33.2578 33.5538 33.5938C33.7726 33.9297 33.9191 34.3105 33.9933 34.7363C34.0675 35.1621 34.0753 35.6094 34.0167 36.0781L33.8175 37.4023C33.7394 37.9062 33.6007 38.3789 33.4015 38.8203C33.2062 39.2578 32.9503 39.6406 32.6339 39.9688C32.3214 40.293 31.9503 40.5469 31.5206 40.7305C31.0948 40.9141 30.6066 41.0039 30.0558 41ZM30.9581 32.4688L29.4816 41H27.8058L29.2765 32.4688H30.9581ZM37.6812 34.6602L36.5796 41H34.9741L36.0757 34.6602H37.6812ZM36.2866 33.0488C36.2827 32.7949 36.3628 32.5801 36.5269 32.4043C36.6909 32.2285 36.9038 32.1387 37.1655 32.1348C37.4116 32.1309 37.6167 32.209 37.7808 32.3691C37.9448 32.5293 38.0249 32.7344 38.021 32.9844C38.0288 33.2383 37.9507 33.4531 37.7866 33.6289C37.6265 33.8047 37.4155 33.8945 37.1538 33.8984C36.9077 33.9062 36.7026 33.8301 36.5386 33.6699C36.3745 33.5059 36.2905 33.2988 36.2866 33.0488ZM42.7519 34.6602H44.2167L43.1386 40.9941C43.0683 41.5254 42.9062 41.9805 42.6523 42.3594C42.4023 42.7422 42.0741 43.0312 41.6679 43.2266C41.2655 43.4258 40.7909 43.5195 40.2441 43.5078C40.0136 43.4961 39.7851 43.4609 39.5585 43.4023C39.3358 43.3477 39.121 43.2637 38.914 43.1504C38.7108 43.0371 38.5292 42.9023 38.3691 42.7461L39.037 41.6152C39.1894 41.791 39.373 41.9277 39.5878 42.0254C39.8026 42.127 40.0253 42.1816 40.2558 42.1895C40.5175 42.1973 40.7343 42.1523 40.9062 42.0547C41.0819 41.957 41.2187 41.8184 41.3163 41.6387C41.4179 41.4629 41.4882 41.2539 41.5273 41.0117L42.3651 36.0488L42.7519 34.6602ZM38.7558 38.0938L38.8026 37.6719C38.8417 37.3164 38.914 36.9531 39.0194 36.582C39.1288 36.2109 39.2792 35.8672 39.4706 35.5508C39.662 35.2344 39.9062 34.9844 40.203 34.8008C40.5038 34.6133 40.8691 34.5273 41.2987 34.543C41.6776 34.5547 41.9726 34.6621 42.1835 34.8652C42.3983 35.0684 42.5526 35.3262 42.6464 35.6387C42.7401 35.9473 42.7968 36.2734 42.8163 36.6172C42.8358 36.957 42.8339 37.2715 42.8105 37.5605L42.7343 38.1699C42.6835 38.4629 42.6015 38.7812 42.4882 39.125C42.3788 39.4688 42.2323 39.7949 42.0487 40.1035C41.8651 40.4121 41.6405 40.6621 41.3749 40.8535C41.1093 41.0449 40.7909 41.1367 40.4198 41.1289C40.0214 41.1172 39.703 41.0137 39.4648 40.8184C39.2304 40.623 39.0566 40.373 38.9433 40.0684C38.8339 39.7598 38.7675 39.4316 38.7441 39.084C38.7206 38.7363 38.7245 38.4062 38.7558 38.0938ZM40.414 37.6309L40.3671 38.0645C40.3554 38.2051 40.3437 38.3711 40.3319 38.5625C40.3241 38.75 40.3319 38.9336 40.3554 39.1133C40.3827 39.2891 40.4452 39.4375 40.5429 39.5586C40.6444 39.6758 40.7987 39.7383 41.0058 39.7461C41.2597 39.7578 41.4687 39.6973 41.6327 39.5645C41.8007 39.4316 41.9276 39.2637 42.0136 39.0605C42.0995 38.8535 42.162 38.6426 42.2011 38.4277L42.3593 37.3086C42.3671 37.1641 42.3671 37.0137 42.3593 36.8574C42.3515 36.7012 42.3261 36.5527 42.2831 36.4121C42.2441 36.2715 42.1718 36.1562 42.0663 36.0664C41.9608 35.9727 41.8183 35.9219 41.6386 35.9141C41.4081 35.8984 41.2167 35.9473 41.0644 36.0605C40.9159 36.1699 40.7968 36.3145 40.7069 36.4941C40.621 36.6699 40.5546 36.8613 40.5077 37.0684C40.4648 37.2715 40.4335 37.459 40.414 37.6309ZM47.6702 34.6602L46.5687 41H44.9632L46.0648 34.6602H47.6702ZM46.2757 33.0488C46.2718 32.7949 46.3519 32.5801 46.5159 32.4043C46.68 32.2285 46.8929 32.1387 47.1546 32.1348C47.4007 32.1309 47.6058 32.209 47.7698 32.3691C47.9339 32.5293 48.014 32.7344 48.0101 32.9844C48.0179 33.2383 47.9398 33.4531 47.7757 33.6289C47.6155 33.8047 47.4046 33.8945 47.1429 33.8984C46.8968 33.9062 46.6917 33.8301 46.5276 33.6699C46.3636 33.5059 46.2796 33.2988 46.2757 33.0488ZM52.2136 34.6602L51.9909 35.8965H48.8444L49.0671 34.6602H52.2136ZM50.0632 33.0957H51.6569L50.6374 39.0781C50.6257 39.1836 50.6198 39.2832 50.6198 39.377C50.6198 39.4707 50.6413 39.5488 50.6843 39.6113C50.7312 39.6738 50.8171 39.707 50.9421 39.7109C51.0085 39.7109 51.073 39.707 51.1355 39.6992C51.2019 39.6914 51.2683 39.6816 51.3347 39.6699L51.2058 40.9648C51.0691 41.0156 50.9304 41.0527 50.7898 41.0762C50.6491 41.0996 50.5046 41.1094 50.3562 41.1055C49.9929 41.1016 49.7097 41.0117 49.5066 40.8359C49.3034 40.6562 49.1648 40.4277 49.0905 40.1504C49.0163 39.8691 48.9948 39.5664 49.0261 39.2422L50.0632 33.0957ZM55.5675 39.541L56.0362 36.5996C56.048 36.4863 56.0499 36.3711 56.0421 36.2539C56.0343 36.1367 56.0011 36.0371 55.9425 35.9551C55.8878 35.8691 55.7882 35.8242 55.6437 35.8203C55.4874 35.8164 55.3624 35.8496 55.2687 35.9199C55.1749 35.9902 55.1026 36.082 55.0519 36.1953C55.0011 36.3086 54.964 36.4277 54.9405 36.5527L53.3351 36.5645C53.3546 36.2441 53.4347 35.959 53.5753 35.709C53.7198 35.4551 53.9054 35.2402 54.1319 35.0645C54.3585 34.8887 54.6124 34.7559 54.8937 34.666C55.1788 34.5762 55.4737 34.5332 55.7784 34.5371C56.2003 34.5449 56.5577 34.6367 56.8507 34.8125C57.1437 34.9883 57.3585 35.2305 57.4952 35.5391C57.6319 35.8477 57.6788 36.2129 57.6358 36.6348L57.1847 39.4648C57.1495 39.6953 57.1183 39.9355 57.0909 40.1855C57.0675 40.4316 57.0948 40.6699 57.173 40.9004L57.1671 41L55.6026 41.0059C55.5323 40.7676 55.5011 40.5254 55.5089 40.2793C55.5167 40.0293 55.5362 39.7832 55.5675 39.541ZM56.1827 37.127L56.0187 38.1113L55.4972 38.1055C55.3448 38.1094 55.2042 38.1387 55.0753 38.1934C54.9503 38.2441 54.837 38.3184 54.7355 38.416C54.6378 38.5098 54.5577 38.6191 54.4952 38.7441C54.4366 38.8652 54.3995 39.002 54.3839 39.1543C54.3683 39.2559 54.3663 39.3594 54.378 39.4648C54.3937 39.5664 54.4308 39.6523 54.4894 39.7227C54.5519 39.793 54.6456 39.8301 54.7706 39.834C54.9073 39.834 55.0421 39.8066 55.1749 39.752C55.3077 39.6934 55.4191 39.6113 55.5089 39.5059C55.5987 39.4004 55.6515 39.2773 55.6671 39.1367L55.9601 39.793C55.8937 39.9688 55.8097 40.1387 55.7081 40.3027C55.6105 40.4629 55.4933 40.6074 55.3566 40.7363C55.2237 40.8613 55.0714 40.959 54.8995 41.0293C54.7316 41.0996 54.5401 41.1328 54.3253 41.1289C53.9855 41.125 53.6925 41.0371 53.4464 40.8652C53.2042 40.6895 53.0226 40.4629 52.9015 40.1855C52.7804 39.9082 52.7276 39.6035 52.7433 39.2715C52.7589 38.8965 52.8448 38.5742 53.0011 38.3047C53.1573 38.0312 53.3585 37.8066 53.6046 37.6309C53.8546 37.4551 54.1378 37.3262 54.4542 37.2441C54.7745 37.1621 55.1085 37.1211 55.4562 37.1211L56.1827 37.127ZM61.9214 32L60.3569 41H58.7515L60.3101 32H61.9214ZM21.2597 46.4688H22.6249L23.1405 52.627L25.7714 46.4688H27.2304L23.3398 55H22.1972L21.2597 46.4688ZM20.4745 46.4688H21.8808L21.0722 52.75L20.6737 55H19.0038L20.4745 46.4688ZM26.5566 46.4688H27.9687L26.4921 55H24.8163L25.2382 52.5977L26.5566 46.4688ZM31.3226 53.541L31.7913 50.5996C31.803 50.4863 31.805 50.3711 31.7972 50.2539C31.7894 50.1367 31.7562 50.0371 31.6976 49.9551C31.6429 49.8691 31.5433 49.8242 31.3987 49.8203C31.2425 49.8164 31.1175 49.8496 31.0237 49.9199C30.93 49.9902 30.8577 50.082 30.8069 50.1953C30.7562 50.3086 30.7191 50.4277 30.6956 50.5527L29.0901 50.5645C29.1097 50.2441 29.1898 49.959 29.3304 49.709C29.4749 49.4551 29.6605 49.2402 29.887 49.0645C30.1136 48.8887 30.3675 48.7559 30.6487 48.666C30.9339 48.5762 31.2288 48.5332 31.5335 48.5371C31.9554 48.5449 32.3128 48.6367 32.6058 48.8125C32.8987 48.9883 33.1136 49.2305 33.2503 49.5391C33.387 49.8477 33.4339 50.2129 33.3909 50.6348L32.9398 53.4648C32.9046 53.6953 32.8734 53.9355 32.846 54.1855C32.8226 54.4316 32.8499 54.6699 32.928 54.9004L32.9222 55L31.3577 55.0059C31.2874 54.7676 31.2562 54.5254 31.264 54.2793C31.2718 54.0293 31.2913 53.7832 31.3226 53.541ZM31.9378 51.127L31.7737 52.1113L31.2523 52.1055C31.0999 52.1094 30.9593 52.1387 30.8304 52.1934C30.7054 52.2441 30.5921 52.3184 30.4905 52.416C30.3929 52.5098 30.3128 52.6191 30.2503 52.7441C30.1917 52.8652 30.1546 53.002 30.139 53.1543C30.1234 53.2559 30.1214 53.3594 30.1331 53.4648C30.1487 53.5664 30.1859 53.6523 30.2444 53.7227C30.3069 53.793 30.4007 53.8301 30.5257 53.834C30.6624 53.834 30.7972 53.8066 30.93 53.752C31.0628 53.6934 31.1741 53.6113 31.264 53.5059C31.3538 53.4004 31.4066 53.2773 31.4222 53.1367L31.7151 53.793C31.6487 53.9688 31.5648 54.1387 31.4632 54.3027C31.3655 54.4629 31.2484 54.6074 31.1116 54.7363C30.9788 54.8613 30.8265 54.959 30.6546 55.0293C30.4866 55.0996 30.2952 55.1328 30.0804 55.1289C29.7405 55.125 29.4476 55.0371 29.2015 54.8652C28.9593 54.6895 28.7776 54.4629 28.6566 54.1855C28.5355 53.9082 28.4827 53.6035 28.4984 53.2715C28.514 52.8965 28.5999 52.5742 28.7562 52.3047C28.9124 52.0312 29.1136 51.8066 29.3597 51.6309C29.6097 51.4551 29.8929 51.3262 30.2093 51.2441C30.5296 51.1621 30.8636 51.1211 31.2112 51.1211L31.9378 51.127ZM36.8679 50.1602L36.03 55H34.4304L35.5319 48.6602H37.0437L36.8679 50.1602ZM38.5495 48.6074L38.3327 50.2422C38.2468 50.2227 38.1589 50.209 38.0691 50.2012C37.9831 50.1895 37.8991 50.1836 37.8171 50.1836C37.6101 50.1797 37.4323 50.2129 37.2839 50.2832C37.1394 50.3535 37.0183 50.4531 36.9206 50.582C36.823 50.707 36.7409 50.8496 36.6745 51.0098C36.612 51.1699 36.5632 51.3359 36.528 51.5078L36.2468 51.3906C36.278 51.1445 36.3269 50.8574 36.3933 50.5293C36.4636 50.2012 36.5632 49.8848 36.6921 49.5801C36.8249 49.2754 37.0007 49.0234 37.2194 48.8242C37.4382 48.625 37.7136 48.5254 38.0456 48.5254C38.1355 48.5293 38.2194 48.5391 38.2976 48.5547C38.3796 48.5703 38.4636 48.5879 38.5495 48.6074ZM42.0499 45.9941L40.4855 55H38.8859L40.4503 45.9941H42.0499ZM44.8741 48.6602L42.1202 51.8477L40.5792 53.3359L40.2101 51.9941L41.464 50.4941L42.8702 48.6602H44.8741ZM42.0909 55L41.2296 52.0176L42.4542 51.0273L43.8487 55H42.0909ZM47.5073 55.1172C47.0855 55.1094 46.7241 55.0273 46.4234 54.8711C46.1226 54.7148 45.8823 54.502 45.7026 54.2324C45.523 53.959 45.3999 53.6504 45.3335 53.3066C45.2671 52.959 45.2534 52.5879 45.2925 52.1934L45.3511 51.6719C45.4058 51.2656 45.5015 50.873 45.6382 50.4941C45.7749 50.1152 45.9585 49.7773 46.189 49.4805C46.4234 49.1797 46.7105 48.9453 47.0503 48.7773C47.3901 48.6094 47.7886 48.5293 48.2456 48.5371C48.6831 48.5488 49.0366 48.6465 49.3062 48.8301C49.5796 49.0098 49.7847 49.248 49.9214 49.5449C50.062 49.8418 50.148 50.1719 50.1792 50.5352C50.2105 50.8945 50.2026 51.2578 50.1558 51.625L50.0503 52.375H45.9194L46.1245 51.2207L48.6265 51.2266L48.6558 51.0625C48.6831 50.8984 48.6929 50.7285 48.6851 50.5527C48.6773 50.373 48.6304 50.2227 48.5444 50.1016C48.4585 49.9766 48.3101 49.9082 48.0991 49.8965C47.8687 49.8848 47.6812 49.9375 47.5366 50.0547C47.396 50.168 47.2866 50.3184 47.2085 50.5059C47.1304 50.6934 47.0737 50.8906 47.0386 51.0977C47.0073 51.3008 46.9819 51.4922 46.9624 51.6719L46.898 52.1992C46.8784 52.375 46.8706 52.5527 46.8745 52.7324C46.8784 52.9082 46.9019 53.0723 46.9448 53.2246C46.9917 53.377 47.0737 53.502 47.1909 53.5996C47.312 53.6973 47.4839 53.748 47.7066 53.752C47.98 53.7598 48.2319 53.709 48.4624 53.5996C48.6968 53.4902 48.9155 53.3496 49.1187 53.1777L49.6636 54.1797C49.4995 54.3984 49.3003 54.5801 49.0659 54.7246C48.8316 54.8652 48.5776 54.9668 48.3042 55.0293C48.0347 55.0918 47.7691 55.1211 47.5073 55.1172ZM54.9101 48.6602L54.6874 49.8965H51.5409L51.7636 48.6602H54.9101ZM52.7597 47.0957H54.3534L53.3339 53.0781C53.3222 53.1836 53.3163 53.2832 53.3163 53.377C53.3163 53.4707 53.3378 53.5488 53.3808 53.6113C53.4277 53.6738 53.5136 53.707 53.6386 53.7109C53.705 53.7109 53.7694 53.707 53.8319 53.6992C53.8984 53.6914 53.9648 53.6816 54.0312 53.6699L53.9023 54.9648C53.7655 55.0156 53.6269 55.0527 53.4862 55.0762C53.3456 55.0996 53.2011 55.1094 53.0527 55.1055C52.6894 55.1016 52.4062 55.0117 52.203 54.8359C51.9999 54.6562 51.8612 54.4277 51.787 54.1504C51.7128 53.8691 51.6913 53.5664 51.7226 53.2422L52.7597 47.0957ZM58.0706 48.6602L56.9691 55H55.3636L56.4651 48.6602H58.0706ZM56.6761 47.0488C56.6722 46.7949 56.7523 46.5801 56.9163 46.4043C57.0804 46.2285 57.2933 46.1387 57.555 46.1348C57.8011 46.1309 58.0062 46.209 58.1702 46.3691C58.3343 46.5293 58.4144 46.7344 58.4105 46.9844C58.4183 47.2383 58.3401 47.4531 58.1761 47.6289C58.0159 47.8047 57.805 47.8945 57.5433 47.8984C57.2972 47.9062 57.0921 47.8301 56.928 47.6699C56.764 47.5059 56.68 47.2988 56.6761 47.0488ZM61.2429 50.1016L60.3933 55H58.7761L59.8776 48.6602H61.3894L61.2429 50.1016ZM60.7448 51.6133L60.3757 51.6367C60.403 51.3008 60.4655 50.9512 60.5632 50.5879C60.6609 50.2207 60.8015 49.8789 60.9851 49.5625C61.1726 49.2461 61.4089 48.9941 61.6941 48.8066C61.9792 48.6152 62.3288 48.5254 62.7429 48.5371C63.071 48.5488 63.3288 48.6309 63.5163 48.7832C63.7077 48.9355 63.8464 49.1348 63.9323 49.3809C64.0222 49.623 64.073 49.8828 64.0847 50.1602C64.0964 50.4336 64.0886 50.7031 64.0612 50.9688L63.3874 55H61.7878L62.4558 50.9512C62.4714 50.791 62.4753 50.6328 62.4675 50.4766C62.4636 50.3164 62.4226 50.1816 62.3444 50.0723C62.2702 49.9629 62.1316 49.9082 61.9284 49.9082C61.7175 49.8965 61.5417 49.9492 61.4011 50.0664C61.2605 50.1836 61.1452 50.334 61.0554 50.5176C60.9694 50.6973 60.9011 50.8848 60.8503 51.0801C60.8034 51.2754 60.7683 51.4531 60.7448 51.6133ZM69.4718 48.6602H70.9366L69.8585 54.9941C69.7882 55.5254 69.6261 55.9805 69.3722 56.3594C69.1222 56.7422 68.7941 57.0312 68.3878 57.2266C67.9855 57.4258 67.5108 57.5195 66.964 57.5078C66.7335 57.4961 66.505 57.4609 66.2784 57.4023C66.0558 57.3477 65.8409 57.2637 65.6339 57.1504C65.4308 57.0371 65.2491 56.9023 65.089 56.7461L65.7569 55.6152C65.9093 55.791 66.0929 55.9277 66.3077 56.0254C66.5226 56.127 66.7452 56.1816 66.9757 56.1895C67.2374 56.1973 67.4542 56.1523 67.6261 56.0547C67.8019 55.957 67.9386 55.8184 68.0362 55.6387C68.1378 55.4629 68.2081 55.2539 68.2472 55.0117L69.0851 50.0488L69.4718 48.6602ZM65.4757 52.0938L65.5226 51.6719C65.5616 51.3164 65.6339 50.9531 65.7394 50.582C65.8487 50.2109 65.9991 49.8672 66.1905 49.5508C66.3819 49.2344 66.6261 48.9844 66.923 48.8008C67.2237 48.6133 67.589 48.5273 68.0187 48.543C68.3976 48.5547 68.6925 48.6621 68.9034 48.8652C69.1183 49.0684 69.2726 49.3262 69.3663 49.6387C69.4601 49.9473 69.5167 50.2734 69.5362 50.6172C69.5558 50.957 69.5538 51.2715 69.5304 51.5605L69.4542 52.1699C69.4034 52.4629 69.3214 52.7812 69.2081 53.125C69.0987 53.4688 68.9523 53.7949 68.7687 54.1035C68.5851 54.4121 68.3605 54.6621 68.0948 54.8535C67.8292 55.0449 67.5108 55.1367 67.1398 55.1289C66.7413 55.1172 66.423 55.0137 66.1847 54.8184C65.9503 54.623 65.7765 54.373 65.6632 54.0684C65.5538 53.7598 65.4874 53.4316 65.464 53.084C65.4405 52.7363 65.4444 52.4062 65.4757 52.0938ZM67.1339 51.6309L67.087 52.0645C67.0753 52.2051 67.0636 52.3711 67.0519 52.5625C67.0441 52.75 67.0519 52.9336 67.0753 53.1133C67.1026 53.2891 67.1651 53.4375 67.2628 53.5586C67.3644 53.6758 67.5187 53.7383 67.7257 53.7461C67.9796 53.7578 68.1886 53.6973 68.3526 53.5645C68.5206 53.4316 68.6476 53.2637 68.7335 53.0605C68.8194 52.8535 68.8819 52.6426 68.921 52.4277L69.0792 51.3086C69.087 51.1641 69.087 51.0137 69.0792 50.8574C69.0714 50.7012 69.046 50.5527 69.003 50.4121C68.964 50.2715 68.8917 50.1562 68.7862 50.0664C68.6808 49.9727 68.5382 49.9219 68.3585 49.9141C68.128 49.8984 67.9366 49.9473 67.7843 50.0605C67.6358 50.1699 67.5167 50.3145 67.4269 50.4941C67.3409 50.6699 67.2745 50.8613 67.2276 51.0684C67.1847 51.2715 67.1534 51.459 67.1339 51.6309Z" fill="white"/>
</g>
<defs>
<filter id="filter0_i_85_34" x="0" y="0" width="90" height="94" filterUnits="userSpaceOnUse" color-interpolation-filters="sRGB">
<feFlood flood-opacity="0" result="BackgroundImageFix"/>
<feBlend mode="normal" in="SourceGraphic" in2="BackgroundImageFix" result="shape"/>
<feColorMatrix in="SourceAlpha" type="matrix" values="0 0 0 0 0 0 0 0 0 0 0 0 0 0 0 0 0 0 127 0" result="hardAlpha"/>
<feOffset dy="4"/>
<feGaussianBlur stdDeviation="2"/>
<feComposite in2="hardAlpha" operator="arithmetic" k2="-1" k3="1"/>
<feColorMatrix type="matrix" values="0 0 0 0 0 0 0 0 0 0 0 0 0 0 0 0 0 0 0.25 0"/>
<feBlend mode="normal" in2="shape" result="effect1_innerShadow_85_34"/>
</filter>
</defs>
</svg>
