<svg width="90" height="90" viewBox="0 0 90 90" fill="none" xmlns="http://www.w3.org/2000/svg">
<g filter="url(#filter0_i_85_43)">
<circle cx="45" cy="45" r="45" fill="#A53C6C"/>
<path d="M21.603 38.709C21.6265 38.5332 21.6206 38.3809 21.5855 38.252C21.5542 38.123 21.4956 38.0098 21.4097 37.9121C21.3276 37.8105 21.2261 37.7207 21.105 37.6426C20.9839 37.5605 20.8472 37.4844 20.6948 37.4141C20.4136 37.2773 20.1519 37.127 19.9097 36.9629C19.6675 36.7988 19.4526 36.6133 19.2651 36.4062C19.0816 36.1992 18.9429 35.9629 18.8491 35.6973C18.7554 35.4277 18.7202 35.125 18.7437 34.7891C18.771 34.4062 18.8687 34.0625 19.0366 33.7578C19.2046 33.4531 19.4234 33.1953 19.6929 32.9844C19.9624 32.7695 20.2651 32.6094 20.6011 32.5039C20.937 32.3945 21.2886 32.3438 21.6558 32.3516C22.1714 32.3633 22.6011 32.4883 22.9448 32.7266C23.2925 32.9609 23.5503 33.2754 23.7183 33.6699C23.8901 34.0605 23.9683 34.5 23.9526 34.9883L22.2827 34.9824C22.2944 34.7949 22.2827 34.6055 22.2476 34.4141C22.2163 34.2227 22.1421 34.0664 22.0249 33.9453C21.9116 33.8203 21.7378 33.7559 21.5034 33.752C21.2964 33.752 21.1148 33.7988 20.9585 33.8926C20.8023 33.9824 20.6753 34.1055 20.5776 34.2617C20.48 34.418 20.4175 34.5938 20.3901 34.7891C20.3706 34.9414 20.3862 35.0781 20.437 35.1992C20.4917 35.3203 20.5659 35.4297 20.6597 35.5273C20.7573 35.6211 20.8667 35.707 20.9878 35.7852C21.1089 35.8633 21.23 35.9277 21.3511 35.9785C21.6441 36.123 21.9136 36.2793 22.1597 36.4473C22.4097 36.6113 22.6206 36.8008 22.7925 37.0156C22.9683 37.2266 23.0952 37.4707 23.1734 37.748C23.2554 38.0254 23.2847 38.3418 23.2612 38.6973C23.23 39.0918 23.1343 39.4395 22.9741 39.7402C22.8179 40.041 22.6109 40.2969 22.353 40.5078C22.0952 40.7148 21.8003 40.8711 21.4683 40.9766C21.1362 41.082 20.7808 41.1309 20.4019 41.123C19.9956 41.1113 19.6323 41.0352 19.312 40.8945C18.9917 40.75 18.7222 40.5527 18.5034 40.3027C18.2886 40.0488 18.1284 39.752 18.023 39.4121C17.9175 39.0684 17.8765 38.6992 17.8999 38.3047L19.5698 38.3105C19.5581 38.4941 19.5601 38.6719 19.5757 38.8438C19.5913 39.0156 19.6343 39.166 19.7046 39.2949C19.7749 39.4238 19.8765 39.5273 20.0093 39.6055C20.1421 39.6836 20.3179 39.7227 20.5366 39.7227C20.7437 39.7227 20.9214 39.6797 21.0698 39.5938C21.2183 39.5039 21.3374 39.3828 21.4273 39.2305C21.5171 39.0781 21.5757 38.9043 21.603 38.709ZM28.2909 34.6602L28.0683 35.8965H24.9218L25.1444 34.6602H28.2909ZM26.1405 33.0957H27.7343L26.7148 39.0781C26.703 39.1836 26.6972 39.2832 26.6972 39.377C26.6972 39.4707 26.7187 39.5488 26.7616 39.6113C26.8085 39.6738 26.8944 39.707 27.0194 39.7109C27.0859 39.7109 27.1503 39.707 27.2128 39.6992C27.2792 39.6914 27.3456 39.6816 27.412 39.6699L27.2831 40.9648C27.1464 41.0156 27.0077 41.0527 26.8671 41.0762C26.7265 41.0996 26.5819 41.1094 26.4335 41.1055C26.0702 41.1016 25.787 41.0117 25.5839 40.8359C25.3808 40.6562 25.2421 40.4277 25.1679 40.1504C25.0937 39.8691 25.0722 39.5664 25.1034 39.2422L26.1405 33.0957ZM31.1058 36.1602L30.2679 41H28.6683L29.7698 34.6602H31.2816L31.1058 36.1602ZM32.7874 34.6074L32.5706 36.2422C32.4847 36.2227 32.3968 36.209 32.3069 36.2012C32.221 36.1895 32.137 36.1836 32.055 36.1836C31.848 36.1797 31.6702 36.2129 31.5218 36.2832C31.3773 36.3535 31.2562 36.4531 31.1585 36.582C31.0609 36.707 30.9788 36.8496 30.9124 37.0098C30.8499 37.1699 30.8011 37.3359 30.7659 37.5078L30.4847 37.3906C30.5159 37.1445 30.5648 36.8574 30.6312 36.5293C30.7015 36.2012 30.8011 35.8848 30.93 35.5801C31.0628 35.2754 31.2386 35.0234 31.4573 34.8242C31.6761 34.625 31.9515 34.5254 32.2835 34.5254C32.3734 34.5293 32.4573 34.5391 32.5355 34.5547C32.6175 34.5703 32.7015 34.5879 32.7874 34.6074ZM35.9245 39.541L36.3933 36.5996C36.405 36.4863 36.4069 36.3711 36.3991 36.2539C36.3913 36.1367 36.3581 36.0371 36.2995 35.9551C36.2448 35.8691 36.1452 35.8242 36.0007 35.8203C35.8444 35.8164 35.7194 35.8496 35.6257 35.9199C35.5319 35.9902 35.4597 36.082 35.4089 36.1953C35.3581 36.3086 35.321 36.4277 35.2976 36.5527L33.6921 36.5645C33.7116 36.2441 33.7917 35.959 33.9323 35.709C34.0769 35.4551 34.2624 35.2402 34.489 35.0645C34.7155 34.8887 34.9694 34.7559 35.2507 34.666C35.5359 34.5762 35.8308 34.5332 36.1355 34.5371C36.5573 34.5449 36.9148 34.6367 37.2077 34.8125C37.5007 34.9883 37.7155 35.2305 37.8523 35.5391C37.989 35.8477 38.0359 36.2129 37.9929 36.6348L37.5417 39.4648C37.5066 39.6953 37.4753 39.9355 37.448 40.1855C37.4245 40.4316 37.4519 40.6699 37.53 40.9004L37.5241 41L35.9597 41.0059C35.8894 40.7676 35.8581 40.5254 35.8659 40.2793C35.8737 40.0293 35.8933 39.7832 35.9245 39.541ZM36.5398 37.127L36.3757 38.1113L35.8542 38.1055C35.7019 38.1094 35.5612 38.1387 35.4323 38.1934C35.3073 38.2441 35.1941 38.3184 35.0925 38.416C34.9948 38.5098 34.9148 38.6191 34.8523 38.7441C34.7937 38.8652 34.7566 39.002 34.7409 39.1543C34.7253 39.2559 34.7234 39.3594 34.7351 39.4648C34.7507 39.5664 34.7878 39.6523 34.8464 39.7227C34.9089 39.793 35.0026 39.8301 35.1276 39.834C35.2644 39.834 35.3991 39.8066 35.5319 39.752C35.6648 39.6934 35.7761 39.6113 35.8659 39.5059C35.9558 39.4004 36.0085 39.2773 36.0241 39.1367L36.3171 39.793C36.2507 39.9688 36.1667 40.1387 36.0651 40.3027C35.9675 40.4629 35.8503 40.6074 35.7136 40.7363C35.5808 40.8613 35.4284 40.959 35.2566 41.0293C35.0886 41.0996 34.8972 41.1328 34.6823 41.1289C34.3425 41.125 34.0495 41.0371 33.8034 40.8652C33.5612 40.6895 33.3796 40.4629 33.2585 40.1855C33.1374 39.9082 33.0847 39.6035 33.1003 39.2715C33.1159 38.8965 33.2019 38.5742 33.3581 38.3047C33.5144 38.0312 33.7155 37.8066 33.9616 37.6309C34.2116 37.4551 34.4948 37.3262 34.8112 37.2441C35.1316 37.1621 35.4655 37.1211 35.8132 37.1211L36.5398 37.127ZM42.8292 34.6602L42.6066 35.8965H39.4601L39.6827 34.6602H42.8292ZM40.6788 33.0957H42.2726L41.253 39.0781C41.2413 39.1836 41.2355 39.2832 41.2355 39.377C41.2355 39.4707 41.2569 39.5488 41.2999 39.6113C41.3468 39.6738 41.4327 39.707 41.5577 39.7109C41.6241 39.7109 41.6886 39.707 41.7511 39.6992C41.8175 39.6914 41.8839 39.6816 41.9503 39.6699L41.8214 40.9648C41.6847 41.0156 41.546 41.0527 41.4054 41.0762C41.2648 41.0996 41.1202 41.1094 40.9718 41.1055C40.6085 41.1016 40.3253 41.0117 40.1222 40.8359C39.9191 40.6562 39.7804 40.4277 39.7062 40.1504C39.6319 39.8691 39.6105 39.5664 39.6417 39.2422L40.6788 33.0957ZM45.7788 41.1172C45.3569 41.1094 44.9956 41.0273 44.6948 40.8711C44.3941 40.7148 44.1538 40.502 43.9741 40.2324C43.7944 39.959 43.6714 39.6504 43.605 39.3066C43.5386 38.959 43.5249 38.5879 43.564 38.1934L43.6226 37.6719C43.6773 37.2656 43.773 36.873 43.9097 36.4941C44.0464 36.1152 44.23 35.7773 44.4605 35.4805C44.6948 35.1797 44.9819 34.9453 45.3218 34.7773C45.6616 34.6094 46.0601 34.5293 46.5171 34.5371C46.9546 34.5488 47.3081 34.6465 47.5776 34.8301C47.8511 35.0098 48.0562 35.248 48.1929 35.5449C48.3335 35.8418 48.4194 36.1719 48.4507 36.5352C48.4819 36.8945 48.4741 37.2578 48.4273 37.625L48.3218 38.375H44.1909L44.396 37.2207L46.898 37.2266L46.9273 37.0625C46.9546 36.8984 46.9644 36.7285 46.9566 36.5527C46.9487 36.373 46.9019 36.2227 46.8159 36.1016C46.73 35.9766 46.5816 35.9082 46.3706 35.8965C46.1401 35.8848 45.9526 35.9375 45.8081 36.0547C45.6675 36.168 45.5581 36.3184 45.48 36.5059C45.4019 36.6934 45.3452 36.8906 45.3101 37.0977C45.2788 37.3008 45.2534 37.4922 45.2339 37.6719L45.1694 38.1992C45.1499 38.375 45.1421 38.5527 45.146 38.7324C45.1499 38.9082 45.1734 39.0723 45.2163 39.2246C45.2632 39.377 45.3452 39.502 45.4624 39.5996C45.5835 39.6973 45.7554 39.748 45.978 39.752C46.2515 39.7598 46.5034 39.709 46.7339 39.5996C46.9683 39.4902 47.187 39.3496 47.3901 39.1777L47.9351 40.1797C47.771 40.3984 47.5718 40.5801 47.3374 40.7246C47.103 40.8652 46.8491 40.9668 46.5757 41.0293C46.3062 41.0918 46.0405 41.1211 45.7788 41.1172ZM53.7089 34.6602H55.1737L54.0956 40.9941C54.0253 41.5254 53.8632 41.9805 53.6093 42.3594C53.3593 42.7422 53.0312 43.0312 52.6249 43.2266C52.2226 43.4258 51.748 43.5195 51.2011 43.5078C50.9706 43.4961 50.7421 43.4609 50.5155 43.4023C50.2929 43.3477 50.078 43.2637 49.871 43.1504C49.6679 43.0371 49.4862 42.9023 49.3261 42.7461L49.9941 41.6152C50.1464 41.791 50.33 41.9277 50.5448 42.0254C50.7597 42.127 50.9823 42.1816 51.2128 42.1895C51.4745 42.1973 51.6913 42.1523 51.8632 42.0547C52.039 41.957 52.1757 41.8184 52.2734 41.6387C52.3749 41.4629 52.4452 41.2539 52.4843 41.0117L53.3222 36.0488L53.7089 34.6602ZM49.7128 38.0938L49.7597 37.6719C49.7987 37.3164 49.871 36.9531 49.9765 36.582C50.0859 36.2109 50.2362 35.8672 50.4277 35.5508C50.6191 35.2344 50.8632 34.9844 51.1601 34.8008C51.4609 34.6133 51.8261 34.5273 52.2558 34.543C52.6347 34.5547 52.9296 34.6621 53.1405 34.8652C53.3554 35.0684 53.5097 35.3262 53.6034 35.6387C53.6972 35.9473 53.7538 36.2734 53.7734 36.6172C53.7929 36.957 53.7909 37.2715 53.7675 37.5605L53.6913 38.1699C53.6405 38.4629 53.5585 38.7812 53.4452 39.125C53.3359 39.4688 53.1894 39.7949 53.0058 40.1035C52.8222 40.4121 52.5976 40.6621 52.3319 40.8535C52.0663 41.0449 51.748 41.1367 51.3769 41.1289C50.9784 41.1172 50.6601 41.0137 50.4218 40.8184C50.1874 40.623 50.0136 40.373 49.9003 40.0684C49.7909 39.7598 49.7245 39.4316 49.7011 39.084C49.6777 38.7363 49.6816 38.4062 49.7128 38.0938ZM51.371 37.6309L51.3241 38.0645C51.3124 38.2051 51.3007 38.3711 51.289 38.5625C51.2812 38.75 51.289 38.9336 51.3124 39.1133C51.3398 39.2891 51.4023 39.4375 51.4999 39.5586C51.6015 39.6758 51.7558 39.7383 51.9628 39.7461C52.2167 39.7578 52.4257 39.6973 52.5898 39.5645C52.7577 39.4316 52.8847 39.2637 52.9706 39.0605C53.0566 38.8535 53.1191 38.6426 53.1581 38.4277L53.3163 37.3086C53.3241 37.1641 53.3241 37.0137 53.3163 36.8574C53.3085 36.7012 53.2831 36.5527 53.2402 36.4121C53.2011 36.2715 53.1288 36.1562 53.0234 36.0664C52.9179 35.9727 52.7753 35.9219 52.5956 35.9141C52.3652 35.8984 52.1737 35.9473 52.0214 36.0605C51.873 36.1699 51.7538 36.3145 51.664 36.4941C51.578 36.6699 51.5116 36.8613 51.4648 37.0684C51.4218 37.2715 51.3905 37.459 51.371 37.6309ZM57.4905 40.1855L59.7171 34.6602H61.4632L58.1995 41.9551C58.1058 42.166 58.0003 42.3691 57.8831 42.5645C57.7698 42.7598 57.637 42.9336 57.4847 43.0859C57.3323 43.2383 57.1546 43.3574 56.9515 43.4434C56.7523 43.5332 56.5276 43.5781 56.2776 43.5781C56.1526 43.5781 56.0316 43.5645 55.9144 43.5371C55.8011 43.5137 55.6839 43.4863 55.5628 43.4551L55.6917 42.1719C55.7269 42.1758 55.7601 42.1797 55.7913 42.1836C55.8226 42.1875 55.8538 42.1895 55.8851 42.1895C56.0609 42.1934 56.2112 42.168 56.3362 42.1133C56.4651 42.0625 56.5726 41.9863 56.6585 41.8848C56.7484 41.7832 56.8265 41.6562 56.8929 41.5039L57.4905 40.1855ZM58.1468 34.6602L58.3167 39.2891L58.2171 41.0645L57.1566 41.1758L56.4827 34.6602H58.1468ZM66.8351 36.4414L68.3526 35.3691C68.5245 35.2402 68.6612 35.0977 68.7628 34.9414C68.8683 34.7852 68.9308 34.5996 68.9503 34.3848C68.962 34.248 68.9386 34.1016 68.88 33.9453C68.8214 33.7852 68.7042 33.7051 68.5284 33.7051C68.38 33.7012 68.2569 33.75 68.1593 33.8516C68.0655 33.9492 67.9913 34.0684 67.9366 34.209C67.8859 34.3496 67.8526 34.4805 67.837 34.6016C67.8097 34.8047 67.8292 35.0059 67.8956 35.2051C67.962 35.4043 68.046 35.5996 68.1476 35.791C68.253 35.9785 68.3507 36.1562 68.4405 36.3242L70.9425 41H69.2257L67.2276 37.2207C67.0909 36.9551 66.9581 36.6836 66.8292 36.4062C66.7003 36.1289 66.5968 35.8418 66.5187 35.5449C66.4444 35.248 66.421 34.9453 66.4484 34.6367C66.4796 34.2305 66.5851 33.8516 66.7648 33.5C66.9484 33.1445 67.1984 32.8613 67.5148 32.6504C67.8351 32.4355 68.2159 32.332 68.6573 32.3398C69.005 32.3516 69.3077 32.4492 69.5655 32.6328C69.8234 32.8125 70.0187 33.0488 70.1515 33.3418C70.2843 33.6309 70.3409 33.9453 70.3214 34.2852C70.3058 34.5625 70.2452 34.8184 70.1398 35.0527C70.0343 35.2871 69.8995 35.502 69.7355 35.6973C69.5714 35.8887 69.3839 36.0625 69.173 36.2188L67.3448 37.5605C67.255 37.6504 67.1788 37.7578 67.1163 37.8828C67.0577 38.0039 67.0069 38.1328 66.964 38.2695C66.921 38.4023 66.8937 38.5293 66.8819 38.6504C66.8663 38.791 66.8702 38.9473 66.8937 39.1191C66.9171 39.2871 66.9718 39.4336 67.0577 39.5586C67.1437 39.6836 67.2784 39.752 67.462 39.7637C67.8175 39.7871 68.1339 39.7012 68.4112 39.5059C68.6886 39.3105 68.9249 39.0566 69.1202 38.7441C69.3194 38.4316 69.4757 38.1035 69.589 37.7598C69.7023 37.416 69.7784 37.1016 69.8175 36.8164L71.1593 36.8105C71.1241 37.2285 71.048 37.6367 70.9308 38.0352C70.8136 38.4297 70.6476 38.8008 70.4327 39.1484C70.2218 39.4922 69.9523 39.8027 69.6241 40.0801C69.5929 40.1113 69.5577 40.1406 69.5187 40.168C69.4796 40.1953 69.4464 40.2246 69.4191 40.2559C69.1066 40.5176 68.7726 40.7305 68.4171 40.8945C68.0655 41.0547 67.6808 41.1289 67.2628 41.1172C66.8097 41.1094 66.4269 40.998 66.1144 40.7832C65.8058 40.5684 65.5714 40.2832 65.4112 39.9277C65.255 39.5723 65.1925 39.1797 65.2237 38.75C65.2472 38.3984 65.337 38.0859 65.4933 37.8125C65.6495 37.5352 65.8448 37.2852 66.0792 37.0625C66.3175 36.8398 66.5694 36.6328 66.8351 36.4414ZM21.6628 52.1641L23.2741 52.1406C23.2116 52.7344 23.0456 53.2578 22.7761 53.7109C22.5105 54.1641 22.1491 54.5156 21.6921 54.7656C21.239 55.0156 20.7038 55.1328 20.0866 55.1172C19.571 55.1055 19.1472 54.9941 18.8151 54.7832C18.4831 54.5684 18.2273 54.2871 18.0476 53.9395C17.8679 53.5879 17.7566 53.1992 17.7136 52.7734C17.6706 52.3438 17.6765 51.9062 17.7312 51.4609L17.9538 50.0137C18.0241 49.541 18.1433 49.084 18.3112 48.6426C18.4792 48.1973 18.7019 47.8008 18.9792 47.4531C19.2566 47.1016 19.5964 46.8262 19.9987 46.627C20.405 46.4277 20.8737 46.334 21.405 46.3457C22.0183 46.3574 22.5026 46.5 22.8581 46.7734C23.2175 47.043 23.4753 47.4043 23.6316 47.8574C23.7878 48.3105 23.8679 48.8125 23.8718 49.3633L22.196 49.3574C22.2116 49.0918 22.2077 48.8398 22.1843 48.6016C22.1609 48.3594 22.0827 48.1621 21.9499 48.0098C21.821 47.8535 21.5964 47.7695 21.2761 47.7578C20.9636 47.7461 20.7058 47.8086 20.5026 47.9453C20.3034 48.082 20.1433 48.2637 20.0222 48.4902C19.905 48.7168 19.8151 48.9629 19.7526 49.2285C19.6941 49.4941 19.6472 49.752 19.612 50.002L19.4069 51.4668C19.3796 51.6699 19.3542 51.8965 19.3308 52.1465C19.3112 52.3965 19.3171 52.6387 19.3484 52.873C19.3796 53.1074 19.4597 53.3027 19.5886 53.459C19.7175 53.6152 19.9265 53.7012 20.2155 53.7168C20.5554 53.7285 20.821 53.666 21.0124 53.5293C21.2038 53.3926 21.3464 53.2051 21.4401 52.9668C21.5378 52.7246 21.612 52.457 21.6628 52.1641ZM24.7413 52.0469L24.7941 51.625C24.837 51.2266 24.9288 50.8418 25.0694 50.4707C25.214 50.0996 25.4054 49.7656 25.6437 49.4688C25.8859 49.1719 26.1769 48.9414 26.5167 48.7773C26.8605 48.6094 27.255 48.5312 27.7003 48.543C28.1378 48.5508 28.4972 48.6445 28.7784 48.8242C29.0636 49.0039 29.2862 49.2422 29.4464 49.5391C29.6066 49.832 29.7101 50.1602 29.7569 50.5234C29.8077 50.8828 29.8136 51.248 29.7745 51.6191L29.7276 52.041C29.6769 52.4434 29.5812 52.8301 29.4405 53.2012C29.2999 53.5723 29.1085 53.9043 28.8663 54.1973C28.628 54.4902 28.337 54.7207 27.9933 54.8887C27.6534 55.0527 27.2609 55.1289 26.8155 55.1172C26.3819 55.1094 26.0226 55.0156 25.7374 54.8359C25.4562 54.6562 25.2355 54.4199 25.0753 54.127C24.9151 53.834 24.8097 53.5078 24.7589 53.1484C24.7081 52.7852 24.7023 52.418 24.7413 52.0469ZM26.4054 51.6191L26.3585 52.0586C26.3468 52.1836 26.3351 52.3398 26.3234 52.5273C26.3116 52.7109 26.3194 52.8965 26.3468 53.084C26.3741 53.2715 26.4347 53.4297 26.5284 53.5586C26.6222 53.6836 26.7667 53.75 26.962 53.7578C27.1808 53.7734 27.3624 53.7246 27.5069 53.6113C27.6554 53.4941 27.7706 53.3438 27.8526 53.1602C27.9347 52.9766 27.9972 52.7852 28.0401 52.5859C28.0831 52.3828 28.1144 52.1992 28.1339 52.0352L28.1749 51.6074C28.1827 51.4863 28.1905 51.332 28.1984 51.1445C28.2101 50.9531 28.2023 50.7656 28.1749 50.582C28.1476 50.3945 28.0851 50.2363 27.9874 50.1074C27.8937 49.9785 27.7511 49.9082 27.5597 49.8965C27.3448 49.8848 27.1671 49.9375 27.0265 50.0547C26.8898 50.1719 26.7784 50.3223 26.6925 50.5059C26.6066 50.6855 26.5421 50.877 26.4991 51.0801C26.4562 51.2832 26.4249 51.4629 26.4054 51.6191ZM33.2163 50.1016L32.3667 55H30.7495L31.8511 48.6602H33.3628L33.2163 50.1016ZM32.7183 51.6133L32.3491 51.6367C32.3765 51.3008 32.439 50.9512 32.5366 50.5879C32.6343 50.2207 32.7749 49.8789 32.9585 49.5625C33.146 49.2461 33.3823 48.9941 33.6675 48.8066C33.9526 48.6152 34.3023 48.5254 34.7163 48.5371C35.0444 48.5488 35.3023 48.6309 35.4898 48.7832C35.6812 48.9355 35.8198 49.1348 35.9058 49.3809C35.9956 49.623 36.0464 49.8828 36.0581 50.1602C36.0698 50.4336 36.062 50.7031 36.0347 50.9688L35.3609 55H33.7612L34.4292 50.9512C34.4448 50.791 34.4487 50.6328 34.4409 50.4766C34.437 50.3164 34.396 50.1816 34.3179 50.0723C34.2437 49.9629 34.105 49.9082 33.9019 49.9082C33.6909 49.8965 33.5151 49.9492 33.3745 50.0664C33.2339 50.1836 33.1187 50.334 33.0288 50.5176C32.9429 50.6973 32.8745 50.8848 32.8237 51.0801C32.7769 51.2754 32.7417 51.4531 32.7183 51.6133ZM40.1737 53.2598C40.1972 53.1035 40.1581 52.9746 40.0566 52.873C39.955 52.7676 39.8319 52.6777 39.6874 52.6035C39.5468 52.5293 39.4218 52.4668 39.3124 52.416C39.1054 52.3105 38.9101 52.1992 38.7265 52.082C38.5429 51.9648 38.3808 51.832 38.2401 51.6836C38.1034 51.5352 37.998 51.3633 37.9237 51.168C37.8495 50.9727 37.8202 50.75 37.8358 50.5C37.8515 50.1875 37.9257 49.9102 38.0585 49.668C38.1913 49.4258 38.3651 49.2207 38.58 49.0527C38.7948 48.8848 39.037 48.7559 39.3066 48.666C39.58 48.5762 39.8632 48.5332 40.1562 48.5371C40.5546 48.5449 40.9081 48.6289 41.2167 48.7891C41.5253 48.9492 41.7636 49.1777 41.9316 49.4746C42.1034 49.7715 42.1874 50.123 42.1835 50.5293H40.5839C40.5878 50.4043 40.58 50.2832 40.5605 50.166C40.5448 50.0449 40.498 49.9453 40.4198 49.8672C40.3456 49.7891 40.2284 49.752 40.0683 49.7559C39.9433 49.7598 39.83 49.791 39.7284 49.8496C39.6308 49.9082 39.5487 49.9883 39.4823 50.0898C39.4159 50.1875 39.3691 50.2949 39.3417 50.4121C39.3222 50.5254 39.3398 50.625 39.3944 50.7109C39.4491 50.793 39.5233 50.8652 39.6171 50.9277C39.7108 50.9902 39.8105 51.0469 39.9159 51.0977C40.0214 51.1445 40.1112 51.1836 40.1855 51.2148C40.4784 51.3516 40.7441 51.5039 40.9823 51.6719C41.2245 51.8398 41.412 52.0449 41.5448 52.2871C41.6776 52.5254 41.7323 52.8242 41.7089 53.1836C41.6933 53.5078 41.6132 53.793 41.4687 54.0391C41.3241 54.2812 41.1366 54.4844 40.9062 54.6484C40.6757 54.8086 40.4198 54.9277 40.1386 55.0059C39.8573 55.0879 39.5683 55.125 39.2714 55.1172C38.8612 55.1055 38.498 55.0117 38.1816 54.8359C37.8691 54.6602 37.6249 54.418 37.4491 54.1094C37.2733 53.8008 37.1874 53.4434 37.1913 53.0371L38.7089 53.043C38.7089 53.1992 38.7245 53.3438 38.7558 53.4766C38.787 53.6094 38.8515 53.7129 38.9491 53.7871C39.0507 53.8613 39.1913 53.8984 39.371 53.8984C39.5077 53.8984 39.6327 53.875 39.746 53.8281C39.8593 53.7812 39.953 53.7109 40.0273 53.6172C40.1015 53.5195 40.1503 53.4004 40.1737 53.2598ZM46.2581 53.3887L47.0784 48.6602H48.6839L47.5823 55H46.0823L46.2581 53.3887ZM46.6155 52.1465L47.0023 52.1289C46.971 52.4492 46.9124 52.7852 46.8265 53.1367C46.7444 53.4883 46.6214 53.8164 46.4573 54.1211C46.2972 54.4258 46.0823 54.6719 45.8128 54.8594C45.5433 55.0469 45.2093 55.1348 44.8109 55.123C44.4866 55.1152 44.223 55.041 44.0198 54.9004C43.8206 54.7559 43.6702 54.5684 43.5687 54.3379C43.4671 54.1074 43.4026 53.8555 43.3753 53.582C43.3519 53.3047 43.3538 53.0293 43.3812 52.7559L44.0667 48.6602H45.6722L44.9925 52.7793C44.9847 52.8691 44.9788 52.9688 44.9749 53.0781C44.9749 53.1836 44.9847 53.2871 45.0042 53.3887C45.0276 53.4902 45.0687 53.5742 45.1273 53.6406C45.1898 53.707 45.2855 53.7402 45.4144 53.7402C45.7112 53.7598 45.9417 53.6855 46.1058 53.5176C46.2698 53.3457 46.387 53.1328 46.4573 52.8789C46.5316 52.625 46.5843 52.3809 46.6155 52.1465ZM52.5827 46L51.0183 55H49.4128L50.9714 46H52.5827ZM56.6632 48.6602L56.4405 49.8965H53.2941L53.5167 48.6602H56.6632ZM54.5128 47.0957H56.1066L55.087 53.0781C55.0753 53.1836 55.0694 53.2832 55.0694 53.377C55.0694 53.4707 55.0909 53.5488 55.1339 53.6113C55.1808 53.6738 55.2667 53.707 55.3917 53.7109C55.4581 53.7109 55.5226 53.707 55.5851 53.6992C55.6515 53.6914 55.7179 53.6816 55.7843 53.6699L55.6554 54.9648C55.5187 55.0156 55.38 55.0527 55.2394 55.0762C55.0987 55.0996 54.9542 55.1094 54.8058 55.1055C54.4425 55.1016 54.1593 55.0117 53.9562 54.8359C53.753 54.6562 53.6144 54.4277 53.5401 54.1504C53.4659 53.8691 53.4444 53.5664 53.4757 53.2422L54.5128 47.0957ZM59.8237 48.6602L58.7222 55H57.1167L58.2183 48.6602H59.8237ZM58.4292 47.0488C58.4253 46.7949 58.5054 46.5801 58.6694 46.4043C58.8335 46.2285 59.0464 46.1387 59.3081 46.1348C59.5542 46.1309 59.7593 46.209 59.9234 46.3691C60.0874 46.5293 60.1675 46.7344 60.1636 46.9844C60.1714 47.2383 60.0933 47.4531 59.9292 47.6289C59.7691 47.8047 59.5581 47.8945 59.2964 47.8984C59.0503 47.9062 58.8452 47.8301 58.6812 47.6699C58.5171 47.5059 58.4331 47.2988 58.4292 47.0488ZM62.996 50.1016L62.1464 55H60.5292L61.6308 48.6602H63.1425L62.996 50.1016ZM62.498 51.6133L62.1288 51.6367C62.1562 51.3008 62.2187 50.9512 62.3163 50.5879C62.414 50.2207 62.5546 49.8789 62.7382 49.5625C62.9257 49.2461 63.162 48.9941 63.4472 48.8066C63.7323 48.6152 64.0819 48.5254 64.496 48.5371C64.8241 48.5488 65.0819 48.6309 65.2694 48.7832C65.4608 48.9355 65.5995 49.1348 65.6855 49.3809C65.7753 49.623 65.8261 49.8828 65.8378 50.1602C65.8495 50.4336 65.8417 50.7031 65.8144 50.9688L65.1405 55H63.5409L64.2089 50.9512C64.2245 50.791 64.2284 50.6328 64.2206 50.4766C64.2167 50.3164 64.1757 50.1816 64.0976 50.0723C64.0233 49.9629 63.8847 49.9082 63.6816 49.9082C63.4706 49.8965 63.2948 49.9492 63.1542 50.0664C63.0136 50.1836 62.8983 50.334 62.8085 50.5176C62.7226 50.6973 62.6542 50.8848 62.6034 51.0801C62.5566 51.2754 62.5214 51.4531 62.498 51.6133ZM71.2249 48.6602H72.6898L71.6116 54.9941C71.5413 55.5254 71.3792 55.9805 71.1253 56.3594C70.8753 56.7422 70.5472 57.0312 70.1409 57.2266C69.7386 57.4258 69.264 57.5195 68.7171 57.5078C68.4866 57.4961 68.2581 57.4609 68.0316 57.4023C67.8089 57.3477 67.5941 57.2637 67.387 57.1504C67.1839 57.0371 67.0023 56.9023 66.8421 56.7461L67.5101 55.6152C67.6624 55.791 67.846 55.9277 68.0609 56.0254C68.2757 56.127 68.4984 56.1816 68.7288 56.1895C68.9905 56.1973 69.2073 56.1523 69.3792 56.0547C69.555 55.957 69.6917 55.8184 69.7894 55.6387C69.8909 55.4629 69.9612 55.2539 70.0003 55.0117L70.8382 50.0488L71.2249 48.6602ZM67.2288 52.0938L67.2757 51.6719C67.3148 51.3164 67.387 50.9531 67.4925 50.582C67.6019 50.2109 67.7523 49.8672 67.9437 49.5508C68.1351 49.2344 68.3792 48.9844 68.6761 48.8008C68.9769 48.6133 69.3421 48.5273 69.7718 48.543C70.1507 48.5547 70.4456 48.6621 70.6566 48.8652C70.8714 49.0684 71.0257 49.3262 71.1194 49.6387C71.2132 49.9473 71.2698 50.2734 71.2894 50.6172C71.3089 50.957 71.3069 51.2715 71.2835 51.5605L71.2073 52.1699C71.1566 52.4629 71.0745 52.7812 70.9612 53.125C70.8519 53.4688 70.7054 53.7949 70.5218 54.1035C70.3382 54.4121 70.1136 54.6621 69.848 54.8535C69.5823 55.0449 69.264 55.1367 68.8929 55.1289C68.4944 55.1172 68.1761 55.0137 67.9378 54.8184C67.7034 54.623 67.5296 54.373 67.4163 54.0684C67.3069 53.7598 67.2405 53.4316 67.2171 53.084C67.1937 52.7363 67.1976 52.4062 67.2288 52.0938ZM68.887 51.6309L68.8401 52.0645C68.8284 52.2051 68.8167 52.3711 68.805 52.5625C68.7972 52.75 68.805 52.9336 68.8284 53.1133C68.8558 53.2891 68.9183 53.4375 69.0159 53.5586C69.1175 53.6758 69.2718 53.7383 69.4788 53.7461C69.7327 53.7578 69.9417 53.6973 70.1058 53.5645C70.2737 53.4316 70.4007 53.2637 70.4866 53.0605C70.5726 52.8535 70.6351 52.6426 70.6741 52.4277L70.8323 51.3086C70.8401 51.1641 70.8401 51.0137 70.8323 50.8574C70.8245 50.7012 70.7991 50.5527 70.7562 50.4121C70.7171 50.2715 70.6448 50.1562 70.5394 50.0664C70.4339 49.9727 70.2913 49.9219 70.1116 49.9141C69.8812 49.8984 69.6898 49.9473 69.5374 50.0605C69.389 50.1699 69.2698 50.3145 69.18 50.4941C69.0941 50.6699 69.0276 50.8613 68.9808 51.0684C68.9378 51.2715 68.9066 51.459 68.887 51.6309Z" fill="white"/>
</g>
<defs>
<filter id="filter0_i_85_43" x="0" y="0" width="90" height="94" filterUnits="userSpaceOnUse" color-interpolation-filters="sRGB">
<feFlood flood-opacity="0" result="BackgroundImageFix"/>
<feBlend mode="normal" in="SourceGraphic" in2="BackgroundImageFix" result="shape"/>
<feColorMatrix in="SourceAlpha" type="matrix" values="0 0 0 0 0 0 0 0 0 0 0 0 0 0 0 0 0 0 127 0" result="hardAlpha"/>
<feOffset dy="4"/>
<feGaussianBlur stdDeviation="2"/>
<feComposite in2="hardAlpha" operator="arithmetic" k2="-1" k3="1"/>
<feColorMatrix type="matrix" values="0 0 0 0 0 0 0 0 0 0 0 0 0 0 0 0 0 0 0.25 0"/>
<feBlend mode="normal" in2="shape" result="effect1_innerShadow_85_43"/>
</filter>
</defs>
</svg>
