<svg width="90" height="90" viewBox="0 0 90 90" fill="none" xmlns="http://www.w3.org/2000/svg">
<g filter="url(#filter0_i_85_46)">
<circle cx="45" cy="45" r="45" fill="#BF9C72"/>
<path d="M36.1601 39.6523L38.5859 32.4688H39.4706L39.5702 33.6699L37.0097 41H36.0429L36.1601 39.6523ZM36.828 32.4688L36.7636 39.8164L36.4062 41H35.3515L35.1991 32.4688H36.828ZM39.5819 39.6348L41.7558 32.4688H43.4316L40.6249 41H39.5585L39.5819 39.6348ZM39.9862 32.4688L40.1855 39.834L39.8984 41H38.9491L38.6855 33.5059L39.1015 32.4688H39.9862ZM45.8362 41.1172C45.4144 41.1094 45.053 41.0273 44.7523 40.8711C44.4515 40.7148 44.2112 40.502 44.0316 40.2324C43.8519 39.959 43.7288 39.6504 43.6624 39.3066C43.596 38.959 43.5823 38.5879 43.6214 38.1934L43.68 37.6719C43.7347 37.2656 43.8304 36.873 43.9671 36.4941C44.1038 36.1152 44.2874 35.7773 44.5179 35.4805C44.7523 35.1797 45.0394 34.9453 45.3792 34.7773C45.7191 34.6094 46.1175 34.5293 46.5745 34.5371C47.012 34.5488 47.3655 34.6465 47.6351 34.8301C47.9085 35.0098 48.1136 35.248 48.2503 35.5449C48.3909 35.8418 48.4769 36.1719 48.5081 36.5352C48.5394 36.8945 48.5316 37.2578 48.4847 37.625L48.3792 38.375H44.2484L44.4534 37.2207L46.9554 37.2266L46.9847 37.0625C47.012 36.8984 47.0218 36.7285 47.014 36.5527C47.0062 36.373 46.9593 36.2227 46.8734 36.1016C46.7874 35.9766 46.639 35.9082 46.428 35.8965C46.1976 35.8848 46.0101 35.9375 45.8655 36.0547C45.7249 36.168 45.6155 36.3184 45.5374 36.5059C45.4593 36.6934 45.4026 36.8906 45.3675 37.0977C45.3362 37.3008 45.3109 37.4922 45.2913 37.6719L45.2269 38.1992C45.2073 38.375 45.1995 38.5527 45.2034 38.7324C45.2073 38.9082 45.2308 39.0723 45.2737 39.2246C45.3206 39.377 45.4026 39.502 45.5198 39.5996C45.6409 39.6973 45.8128 39.748 46.0355 39.752C46.3089 39.7598 46.5609 39.709 46.7913 39.5996C47.0257 39.4902 47.2444 39.3496 47.4476 39.1777L47.9925 40.1797C47.8284 40.3984 47.6292 40.5801 47.3948 40.7246C47.1605 40.8652 46.9066 40.9668 46.6331 41.0293C46.3636 41.0918 46.098 41.1211 45.8362 41.1172ZM51.0066 32H52.6062L51.2878 39.6055L50.9362 41H49.4421L51.0066 32ZM54.8151 37.5898L54.7683 38.0117C54.7214 38.3594 54.6511 38.7188 54.5573 39.0898C54.4675 39.4609 54.3327 39.8027 54.153 40.1152C53.9773 40.4277 53.7448 40.6777 53.4558 40.8652C53.1667 41.0527 52.8054 41.1387 52.3718 41.123C52.0202 41.1113 51.737 41.002 51.5222 40.7949C51.3112 40.5879 51.155 40.3301 51.0534 40.0215C50.9558 39.709 50.8933 39.3848 50.8659 39.0488C50.8386 38.7129 50.8347 38.4082 50.8542 38.1348L50.9304 37.5254C50.9812 37.2285 51.0612 36.9062 51.1706 36.5586C51.28 36.2109 51.4245 35.8828 51.6042 35.5742C51.7839 35.2617 52.0085 35.0078 52.278 34.8125C52.5476 34.6172 52.864 34.5234 53.2273 34.5312C53.6452 34.5391 53.9694 34.6426 54.1999 34.8418C54.4304 35.0371 54.5944 35.2891 54.6921 35.5977C54.7937 35.9062 54.8464 36.2363 54.8503 36.5879C54.8581 36.9395 54.8464 37.2734 54.8151 37.5898ZM53.1687 38.0352L53.2155 37.6074C53.2234 37.4746 53.237 37.3125 53.2566 37.1211C53.28 36.9297 53.2819 36.7422 53.2624 36.5586C53.2468 36.375 53.1921 36.2227 53.0984 36.1016C53.0085 35.9766 52.8601 35.9121 52.653 35.9082C52.4616 35.8965 52.2976 35.9316 52.1609 36.0137C52.028 36.0957 51.9167 36.207 51.8269 36.3477C51.737 36.4844 51.6648 36.6348 51.6101 36.7988C51.5593 36.959 51.5222 37.1152 51.4987 37.2676L51.3464 38.3867C51.3308 38.5781 51.3288 38.7773 51.3405 38.9844C51.3562 39.1914 51.4167 39.3691 51.5222 39.5176C51.6276 39.6621 51.8015 39.7422 52.0437 39.7578C52.278 39.7695 52.4655 39.7227 52.6062 39.6172C52.7507 39.5078 52.8581 39.3652 52.9284 39.1895C53.0026 39.0098 53.0554 38.8184 53.0866 38.6152C53.1218 38.4082 53.1491 38.2148 53.1687 38.0352ZM13.9038 55H12.3569L12.6148 53.582L13.9859 53.5879C14.4468 53.5918 14.814 53.498 15.0874 53.3066C15.3648 53.1113 15.5718 52.8496 15.7085 52.5215C15.8452 52.1895 15.9448 51.8145 16.0073 51.3965L16.1948 50.0605C16.2261 49.8145 16.2476 49.5664 16.2593 49.3164C16.2749 49.0664 16.2554 48.8359 16.2007 48.625C16.146 48.4141 16.0366 48.2441 15.8726 48.1152C15.7124 47.9824 15.4741 47.9102 15.1577 47.8984L13.5581 47.8926L13.8101 46.4688L15.228 46.4746C15.7437 46.4863 16.1812 46.5918 16.5405 46.791C16.8999 46.9902 17.187 47.2578 17.4019 47.5938C17.6206 47.9297 17.7671 48.3105 17.8413 48.7363C17.9155 49.1621 17.9234 49.6094 17.8648 50.0781L17.6655 51.4023C17.5874 51.9062 17.4487 52.3789 17.2495 52.8203C17.0542 53.2578 16.7984 53.6406 16.4819 53.9688C16.1694 54.293 15.7984 54.5469 15.3687 54.7305C14.9429 54.9141 14.4546 55.0039 13.9038 55ZM14.8062 46.4688L13.3296 55H11.6538L13.1245 46.4688H14.8062ZM21.3183 55.1172C20.8964 55.1094 20.5351 55.0273 20.2343 54.8711C19.9335 54.7148 19.6933 54.502 19.5136 54.2324C19.3339 53.959 19.2109 53.6504 19.1444 53.3066C19.078 52.959 19.0644 52.5879 19.1034 52.1934L19.162 51.6719C19.2167 51.2656 19.3124 50.873 19.4491 50.4941C19.5859 50.1152 19.7694 49.7773 19.9999 49.4805C20.2343 49.1797 20.5214 48.9453 20.8612 48.7773C21.2011 48.6094 21.5995 48.5293 22.0566 48.5371C22.4941 48.5488 22.8476 48.6465 23.1171 48.8301C23.3905 49.0098 23.5956 49.248 23.7323 49.5449C23.873 49.8418 23.9589 50.1719 23.9901 50.5352C24.0214 50.8945 24.0136 51.2578 23.9667 51.625L23.8612 52.375H19.7304L19.9355 51.2207L22.4374 51.2266L22.4667 51.0625C22.4941 50.8984 22.5038 50.7285 22.496 50.5527C22.4882 50.373 22.4413 50.2227 22.3554 50.1016C22.2694 49.9766 22.121 49.9082 21.9101 49.8965C21.6796 49.8848 21.4921 49.9375 21.3476 50.0547C21.2069 50.168 21.0976 50.3184 21.0194 50.5059C20.9413 50.6934 20.8847 50.8906 20.8495 51.0977C20.8183 51.3008 20.7929 51.4922 20.7734 51.6719L20.7089 52.1992C20.6894 52.375 20.6816 52.5527 20.6855 52.7324C20.6894 52.9082 20.7128 53.0723 20.7558 53.2246C20.8026 53.377 20.8847 53.502 21.0019 53.5996C21.123 53.6973 21.2948 53.748 21.5175 53.752C21.7909 53.7598 22.0429 53.709 22.2734 53.5996C22.5077 53.4902 22.7265 53.3496 22.9296 53.1777L23.4745 54.1797C23.3105 54.3984 23.1112 54.5801 22.8769 54.7246C22.6425 54.8652 22.3886 54.9668 22.1151 55.0293C21.8456 55.0918 21.58 55.1211 21.3183 55.1172ZM26.928 53.6641L28.68 48.6602H30.3909L27.7073 55H26.6819L26.928 53.6641ZM27.1155 48.6602L27.3323 53.8164L27.1624 55H26.1722L25.4749 48.6602H27.1155ZM33.1472 55.1172C32.7253 55.1094 32.364 55.0273 32.0632 54.8711C31.7624 54.7148 31.5222 54.502 31.3425 54.2324C31.1628 53.959 31.0398 53.6504 30.9734 53.3066C30.9069 52.959 30.8933 52.5879 30.9323 52.1934L30.9909 51.6719C31.0456 51.2656 31.1413 50.873 31.278 50.4941C31.4148 50.1152 31.5984 49.7773 31.8288 49.4805C32.0632 49.1797 32.3503 48.9453 32.6901 48.7773C33.03 48.6094 33.4284 48.5293 33.8855 48.5371C34.323 48.5488 34.6765 48.6465 34.946 48.8301C35.2194 49.0098 35.4245 49.248 35.5612 49.5449C35.7019 49.8418 35.7878 50.1719 35.8191 50.5352C35.8503 50.8945 35.8425 51.2578 35.7956 51.625L35.6901 52.375H31.5593L31.7644 51.2207L34.2663 51.2266L34.2956 51.0625C34.323 50.8984 34.3327 50.7285 34.3249 50.5527C34.3171 50.373 34.2702 50.2227 34.1843 50.1016C34.0984 49.9766 33.9499 49.9082 33.739 49.8965C33.5085 49.8848 33.321 49.9375 33.1765 50.0547C33.0359 50.168 32.9265 50.3184 32.8484 50.5059C32.7702 50.6934 32.7136 50.8906 32.6784 51.0977C32.6472 51.3008 32.6218 51.4922 32.6023 51.6719L32.5378 52.1992C32.5183 52.375 32.5105 52.5527 32.5144 52.7324C32.5183 52.9082 32.5417 53.0723 32.5847 53.2246C32.6316 53.377 32.7136 53.502 32.8308 53.5996C32.9519 53.6973 33.1237 53.748 33.3464 53.752C33.6198 53.7598 33.8718 53.709 34.1023 53.5996C34.3366 53.4902 34.5554 53.3496 34.7585 53.1777L35.3034 54.1797C35.1394 54.3984 34.9401 54.5801 34.7058 54.7246C34.4714 54.8652 34.2175 54.9668 33.9441 55.0293C33.6745 55.0918 33.4089 55.1211 33.1472 55.1172ZM39.9991 46L38.4347 55H36.8292L38.3878 46H39.9991ZM40.6226 52.0469L40.6753 51.625C40.7183 51.2266 40.8101 50.8418 40.9507 50.4707C41.0952 50.0996 41.2866 49.7656 41.5249 49.4688C41.7671 49.1719 42.0581 48.9414 42.398 48.7773C42.7417 48.6094 43.1362 48.5312 43.5816 48.543C44.0191 48.5508 44.3784 48.6445 44.6597 48.8242C44.9448 49.0039 45.1675 49.2422 45.3276 49.5391C45.4878 49.832 45.5913 50.1602 45.6382 50.5234C45.689 50.8828 45.6948 51.248 45.6558 51.6191L45.6089 52.041C45.5581 52.4434 45.4624 52.8301 45.3218 53.2012C45.1812 53.5723 44.9898 53.9043 44.7476 54.1973C44.5093 54.4902 44.2183 54.7207 43.8745 54.8887C43.5347 55.0527 43.1421 55.1289 42.6968 55.1172C42.2632 55.1094 41.9038 55.0156 41.6187 54.8359C41.3374 54.6562 41.1167 54.4199 40.9566 54.127C40.7964 53.834 40.6909 53.5078 40.6401 53.1484C40.5894 52.7852 40.5835 52.418 40.6226 52.0469ZM42.2866 51.6191L42.2398 52.0586C42.228 52.1836 42.2163 52.3398 42.2046 52.5273C42.1929 52.7109 42.2007 52.8965 42.228 53.084C42.2554 53.2715 42.3159 53.4297 42.4097 53.5586C42.5034 53.6836 42.648 53.75 42.8433 53.7578C43.062 53.7734 43.2437 53.7246 43.3882 53.6113C43.5366 53.4941 43.6519 53.3438 43.7339 53.1602C43.8159 52.9766 43.8784 52.7852 43.9214 52.5859C43.9644 52.3828 43.9956 52.1992 44.0151 52.0352L44.0562 51.6074C44.064 51.4863 44.0718 51.332 44.0796 51.1445C44.0913 50.9531 44.0835 50.7656 44.0562 50.582C44.0288 50.3945 43.9663 50.2363 43.8687 50.1074C43.7749 49.9785 43.6323 49.9082 43.4409 49.8965C43.2261 49.8848 43.0484 49.9375 42.9077 50.0547C42.771 50.1719 42.6597 50.3223 42.5737 50.5059C42.4878 50.6855 42.4234 50.877 42.3804 51.0801C42.3374 51.2832 42.3062 51.4629 42.2866 51.6191ZM49.1444 49.9668L47.8495 57.4375H46.2499L47.7733 48.6602H49.2441L49.1444 49.9668ZM52.0448 51.6133L51.998 52.0293C51.9511 52.3691 51.8788 52.7207 51.7812 53.084C51.6874 53.4473 51.5487 53.7871 51.3651 54.1035C51.1855 54.416 50.9511 54.668 50.662 54.8594C50.373 55.0469 50.0175 55.1328 49.5956 55.1172C49.248 55.1055 48.9687 54.998 48.7577 54.7949C48.5468 54.5918 48.3886 54.3398 48.2831 54.0391C48.1776 53.7383 48.1093 53.4219 48.078 53.0898C48.0507 52.7578 48.0429 52.457 48.0546 52.1875L48.1425 51.5371C48.1972 51.2363 48.2773 50.9121 48.3827 50.5645C48.4921 50.2168 48.6366 49.8887 48.8163 49.5801C48.9999 49.2676 49.2265 49.0137 49.496 48.8184C49.7655 48.6191 50.0858 48.5254 50.4569 48.5371C50.871 48.5449 51.1933 48.6484 51.4237 48.8477C51.6581 49.0469 51.8241 49.3008 51.9218 49.6094C52.0233 49.918 52.0761 50.25 52.08 50.6055C52.0878 50.9609 52.0761 51.2969 52.0448 51.6133ZM50.3866 52.0352L50.4335 51.6016C50.4452 51.4688 50.4589 51.3086 50.4745 51.1211C50.4901 50.9336 50.4882 50.748 50.4687 50.5645C50.4491 50.377 50.3925 50.2227 50.2987 50.1016C50.2089 49.9766 50.0624 49.9102 49.8593 49.9023C49.6718 49.8945 49.5077 49.9316 49.3671 50.0137C49.2304 50.0957 49.1191 50.207 49.0331 50.3477C48.9472 50.4844 48.8769 50.6367 48.8222 50.8047C48.7714 50.9688 48.7343 51.127 48.7108 51.2793L48.5526 52.4512C48.537 52.6387 48.539 52.832 48.5585 53.0312C48.5819 53.2266 48.6444 53.3945 48.746 53.5352C48.8476 53.6758 49.0175 53.752 49.2558 53.7637C49.4784 53.7715 49.6601 53.7188 49.8007 53.6055C49.9452 53.4922 50.0566 53.3457 50.1347 53.166C50.2128 52.9863 50.2694 52.7949 50.3046 52.5918C50.3398 52.3887 50.3671 52.2031 50.3866 52.0352ZM55.5042 50.0605L54.6487 55H53.0433L54.1448 48.6602H55.6507L55.5042 50.0605ZM55.0237 51.6133L54.6019 51.6309C54.637 51.291 54.7034 50.9375 54.8011 50.5703C54.9026 50.2031 55.0433 49.8633 55.223 49.5508C55.4066 49.2383 55.6429 48.9883 55.9319 48.8008C56.221 48.6133 56.5745 48.5254 56.9925 48.5371C57.2972 48.5449 57.5374 48.6191 57.7132 48.7598C57.8929 48.9004 58.0276 49.082 58.1175 49.3047C58.2073 49.5273 58.262 49.7676 58.2816 50.0254C58.3011 50.2793 58.2972 50.5273 58.2698 50.7695L57.5726 55H55.973L56.6409 50.9629C56.6566 50.8223 56.6644 50.6699 56.6644 50.5059C56.6644 50.3418 56.6292 50.2031 56.5589 50.0898C56.4886 49.9727 56.3558 49.9082 56.1605 49.8965C55.9573 49.8926 55.7855 49.9492 55.6448 50.0664C55.5042 50.1797 55.3929 50.3281 55.3109 50.5117C55.2288 50.6953 55.1644 50.8867 55.1175 51.0859C55.0745 51.2812 55.0433 51.457 55.0237 51.6133ZM58.0413 51.4492L57.5081 51.5371C57.5355 51.209 57.5941 50.8691 57.6839 50.5176C57.7737 50.1621 57.9085 49.834 58.0882 49.5332C58.2679 49.2285 58.4964 48.9844 58.7737 48.8008C59.055 48.6172 59.3987 48.5293 59.805 48.5371C60.1331 48.5449 60.3948 48.625 60.5901 48.7773C60.7855 48.9258 60.928 49.1211 61.0179 49.3633C61.1116 49.6055 61.1663 49.8652 61.1819 50.1426C61.1976 50.4199 61.1917 50.6914 61.1644 50.957L60.4905 55H58.8792L59.5472 50.957C59.5628 50.8164 59.5706 50.666 59.5706 50.5059C59.5706 50.3418 59.5355 50.2031 59.4651 50.0898C59.3987 49.9727 59.2679 49.9121 59.0726 49.9082C58.8851 49.9043 58.7308 49.9551 58.6097 50.0605C58.4886 50.1621 58.389 50.2949 58.3109 50.459C58.2327 50.623 58.1722 50.793 58.1292 50.9688C58.0901 51.1445 58.0609 51.3047 58.0413 51.4492ZM64.8464 55.1172C64.4245 55.1094 64.0632 55.0273 63.7624 54.8711C63.4616 54.7148 63.2214 54.502 63.0417 54.2324C62.862 53.959 62.739 53.6504 62.6726 53.3066C62.6062 52.959 62.5925 52.5879 62.6316 52.1934L62.6901 51.6719C62.7448 51.2656 62.8405 50.873 62.9773 50.4941C63.114 50.1152 63.2976 49.7773 63.528 49.4805C63.7624 49.1797 64.0495 48.9453 64.3894 48.7773C64.7292 48.6094 65.1276 48.5293 65.5847 48.5371C66.0222 48.5488 66.3757 48.6465 66.6452 48.8301C66.9187 49.0098 67.1237 49.248 67.2605 49.5449C67.4011 49.8418 67.487 50.1719 67.5183 50.5352C67.5495 50.8945 67.5417 51.2578 67.4948 51.625L67.3894 52.375H63.2585L63.4636 51.2207L65.9655 51.2266L65.9948 51.0625C66.0222 50.8984 66.0319 50.7285 66.0241 50.5527C66.0163 50.373 65.9694 50.2227 65.8835 50.1016C65.7976 49.9766 65.6491 49.9082 65.4382 49.8965C65.2077 49.8848 65.0202 49.9375 64.8757 50.0547C64.7351 50.168 64.6257 50.3184 64.5476 50.5059C64.4694 50.6934 64.4128 50.8906 64.3776 51.0977C64.3464 51.3008 64.321 51.4922 64.3015 51.6719L64.237 52.1992C64.2175 52.375 64.2097 52.5527 64.2136 52.7324C64.2175 52.9082 64.2409 53.0723 64.2839 53.2246C64.3308 53.377 64.4128 53.502 64.53 53.5996C64.6511 53.6973 64.823 53.748 65.0456 53.752C65.3191 53.7598 65.571 53.709 65.8015 53.5996C66.0359 53.4902 66.2546 53.3496 66.4577 53.1777L67.0026 54.1797C66.8386 54.3984 66.6394 54.5801 66.405 54.7246C66.1706 54.8652 65.9167 54.9668 65.6433 55.0293C65.3737 55.0918 65.1081 55.1211 64.8464 55.1172ZM70.878 50.1016L70.0284 55H68.4112L69.5128 48.6602H71.0245L70.878 50.1016ZM70.38 51.6133L70.0109 51.6367C70.0382 51.3008 70.1007 50.9512 70.1984 50.5879C70.296 50.2207 70.4366 49.8789 70.6202 49.5625C70.8077 49.2461 71.0441 48.9941 71.3292 48.8066C71.6144 48.6152 71.964 48.5254 72.378 48.5371C72.7062 48.5488 72.964 48.6309 73.1515 48.7832C73.3429 48.9355 73.4816 49.1348 73.5675 49.3809C73.6573 49.623 73.7081 49.8828 73.7198 50.1602C73.7316 50.4336 73.7237 50.7031 73.6964 50.9688L73.0226 55H71.423L72.0909 50.9512C72.1066 50.791 72.1105 50.6328 72.1026 50.4766C72.0987 50.3164 72.0577 50.1816 71.9796 50.0723C71.9054 49.9629 71.7667 49.9082 71.5636 49.9082C71.3526 49.8965 71.1769 49.9492 71.0362 50.0664C70.8956 50.1836 70.7804 50.334 70.6905 50.5176C70.6046 50.6973 70.5362 50.8848 70.4855 51.0801C70.4386 51.2754 70.4034 51.4531 70.38 51.6133ZM78.5796 48.6602L78.3569 49.8965H75.2105L75.4331 48.6602H78.5796ZM76.4292 47.0957H78.023L77.0034 53.0781C76.9917 53.1836 76.9859 53.2832 76.9859 53.377C76.9859 53.4707 77.0073 53.5488 77.0503 53.6113C77.0972 53.6738 77.1831 53.707 77.3081 53.7109C77.3745 53.7109 77.439 53.707 77.5015 53.6992C77.5679 53.6914 77.6343 53.6816 77.7007 53.6699L77.5718 54.9648C77.4351 55.0156 77.2964 55.0527 77.1558 55.0762C77.0152 55.0996 76.8706 55.1094 76.7222 55.1055C76.3589 55.1016 76.0757 55.0117 75.8726 54.8359C75.6694 54.6562 75.5308 54.4277 75.4566 54.1504C75.3823 53.8691 75.3609 53.5664 75.3921 53.2422L76.4292 47.0957Z" fill="white"/>
</g>
<defs>
<filter id="filter0_i_85_46" x="0" y="0" width="90" height="94" filterUnits="userSpaceOnUse" color-interpolation-filters="sRGB">
<feFlood flood-opacity="0" result="BackgroundImageFix"/>
<feBlend mode="normal" in="SourceGraphic" in2="BackgroundImageFix" result="shape"/>
<feColorMatrix in="SourceAlpha" type="matrix" values="0 0 0 0 0 0 0 0 0 0 0 0 0 0 0 0 0 0 127 0" result="hardAlpha"/>
<feOffset dy="4"/>
<feGaussianBlur stdDeviation="2"/>
<feComposite in2="hardAlpha" operator="arithmetic" k2="-1" k3="1"/>
<feColorMatrix type="matrix" values="0 0 0 0 0 0 0 0 0 0 0 0 0 0 0 0 0 0 0.25 0"/>
<feBlend mode="normal" in2="shape" result="effect1_innerShadow_85_46"/>
</filter>
</defs>
</svg>
