<svg width="522" height="85" viewBox="0 0 522 85" fill="none" xmlns="http://www.w3.org/2000/svg">
<g filter="url(#filter0_d_123_130)">
<path d="M5.71846 7.62985C3.65848 4.29882 6.05444 0 9.97098 0H512.032C515.948 0 518.344 4.29776 516.285 7.62882L475.472 73.66C474.561 75.134 472.951 76.0312 471.219 76.0312H50.8061C49.0737 76.0312 47.4647 75.1344 46.5535 73.661L5.71846 7.62985Z" fill="#47689B"/>
<path d="M5.71846 7.62985C3.65848 4.29882 6.05444 0 9.97098 0H512.032C515.948 0 518.344 4.29776 516.285 7.62882L475.472 73.66C474.561 75.134 472.951 76.0312 471.219 76.0312H50.8061C49.0737 76.0312 47.4647 75.1344 46.5535 73.661L5.71846 7.62985Z" fill="#47689B"/>
<path d="M174.266 31.6365L172.29 43.0115H170.063L172.04 31.6365H174.266ZM178.09 36.4802L176.957 43.0115H174.801L176.269 34.5583H178.285L178.09 36.4802ZM177.426 38.4958L176.933 38.5271C176.97 38.0792 177.053 37.613 177.183 37.1287C177.314 36.6391 177.501 36.1833 177.746 35.7615C177.996 35.3396 178.311 35.0037 178.691 34.7537C179.071 34.4985 179.538 34.3787 180.09 34.3943C180.527 34.4099 180.871 34.5193 181.121 34.7224C181.376 34.9255 181.561 35.1912 181.676 35.5193C181.795 35.8422 181.863 36.1886 181.879 36.5583C181.894 36.9229 181.884 37.2823 181.847 37.6365L180.949 43.0115H178.816L179.707 37.613C179.728 37.3995 179.733 37.1886 179.722 36.9802C179.717 36.7667 179.663 36.587 179.558 36.4412C179.459 36.2953 179.275 36.2224 179.004 36.2224C178.722 36.2068 178.488 36.2771 178.301 36.4333C178.113 36.5896 177.959 36.7901 177.84 37.0349C177.725 37.2745 177.634 37.5245 177.566 37.7849C177.504 38.0453 177.457 38.2823 177.426 38.4958ZM187.616 41.0427L189.351 31.0115H191.491L189.413 43.0115L187.483 43.0193L187.616 41.0427ZM183.702 39.0818L183.765 38.5349C183.827 38.0766 183.924 37.6026 184.054 37.113C184.184 36.6182 184.371 36.1625 184.616 35.7458C184.866 35.324 185.184 34.9906 185.569 34.7458C185.955 34.4958 186.431 34.3813 186.999 34.4021C187.463 34.4177 187.835 34.5662 188.116 34.8474C188.397 35.1287 188.606 35.4802 188.741 35.9021C188.877 36.324 188.96 36.7615 188.991 37.2146C189.028 37.6625 189.035 38.0662 189.015 38.4255L188.913 39.238C188.84 39.6182 188.728 40.0375 188.577 40.4958C188.431 40.9542 188.233 41.3891 187.983 41.8005C187.733 42.212 187.431 42.5479 187.077 42.8083C186.728 43.0688 186.314 43.1912 185.835 43.1755C185.299 43.1651 184.877 43.0271 184.569 42.7615C184.262 42.4906 184.038 42.1469 183.897 41.7302C183.762 41.3136 183.684 40.8708 183.663 40.4021C183.647 39.9333 183.66 39.4932 183.702 39.0818ZM185.921 38.5193L185.866 39.0974C185.851 39.2745 185.83 39.488 185.804 39.738C185.783 39.9828 185.785 40.2276 185.812 40.4724C185.843 40.7172 185.918 40.9229 186.038 41.0896C186.163 41.2511 186.358 41.3344 186.624 41.3396C186.947 41.35 187.213 41.2641 187.421 41.0818C187.629 40.8995 187.791 40.6729 187.905 40.4021C188.02 40.1261 188.095 39.8526 188.132 39.5818L188.343 38.0896C188.358 37.9125 188.361 37.7198 188.351 37.5115C188.345 37.3031 188.317 37.1026 188.265 36.9099C188.218 36.7172 188.127 36.5583 187.991 36.4333C187.861 36.3083 187.679 36.2406 187.444 36.2302C187.142 36.2042 186.895 36.2667 186.702 36.4177C186.515 36.5636 186.369 36.7589 186.265 37.0037C186.16 37.2485 186.082 37.5063 186.03 37.7771C185.978 38.0479 185.942 38.2953 185.921 38.5193ZM196.135 40.863L197.229 34.5583H199.369L197.901 43.0115H195.901L196.135 40.863ZM196.612 39.2068L197.127 39.1833C197.085 39.6104 197.007 40.0583 196.893 40.5271C196.783 40.9958 196.619 41.4333 196.401 41.8396C196.187 42.2458 195.901 42.574 195.541 42.824C195.182 43.074 194.737 43.1912 194.205 43.1755C193.773 43.1651 193.421 43.0662 193.151 42.8787C192.885 42.686 192.684 42.436 192.549 42.1287C192.414 41.8214 192.328 41.4854 192.291 41.1208C192.26 40.7511 192.263 40.3839 192.299 40.0193L193.213 34.5583H195.354L194.447 40.0505C194.437 40.1703 194.429 40.3031 194.424 40.449C194.424 40.5896 194.437 40.7276 194.463 40.863C194.494 40.9985 194.549 41.1104 194.627 41.199C194.71 41.2875 194.838 41.3318 195.01 41.3318C195.406 41.3578 195.713 41.2589 195.932 41.0349C196.151 40.8057 196.307 40.5219 196.401 40.1833C196.5 39.8448 196.57 39.5193 196.612 39.2068ZM204.31 40.6912C204.341 40.4828 204.289 40.311 204.154 40.1755C204.018 40.0349 203.854 39.9151 203.662 39.8162C203.474 39.7172 203.307 39.6339 203.162 39.5662C202.885 39.4255 202.625 39.2771 202.38 39.1208C202.135 38.9646 201.919 38.7875 201.732 38.5896C201.55 38.3917 201.409 38.1625 201.31 37.9021C201.211 37.6417 201.172 37.3448 201.193 37.0115C201.214 36.5948 201.313 36.225 201.49 35.9021C201.667 35.5792 201.899 35.3057 202.185 35.0818C202.471 34.8578 202.794 34.686 203.154 34.5662C203.518 34.4464 203.896 34.3891 204.287 34.3943C204.818 34.4047 205.289 34.5167 205.701 34.7302C206.112 34.9438 206.43 35.2485 206.654 35.6443C206.883 36.0401 206.995 36.5089 206.99 37.0505H204.857C204.862 36.8839 204.852 36.7224 204.826 36.5662C204.805 36.4047 204.742 36.2719 204.638 36.1677C204.539 36.0636 204.383 36.0141 204.169 36.0193C204.003 36.0245 203.852 36.0662 203.716 36.1443C203.586 36.2224 203.477 36.3292 203.388 36.4646C203.3 36.5948 203.237 36.738 203.201 36.8943C203.175 37.0453 203.198 37.1781 203.271 37.2927C203.344 37.4021 203.443 37.4985 203.568 37.5818C203.693 37.6651 203.826 37.7406 203.966 37.8083C204.107 37.8708 204.227 37.9229 204.326 37.9646C204.716 38.1469 205.07 38.35 205.388 38.574C205.711 38.7979 205.961 39.0714 206.138 39.3943C206.315 39.712 206.388 40.1104 206.357 40.5896C206.336 41.0219 206.229 41.4021 206.037 41.7302C205.844 42.0531 205.594 42.324 205.287 42.5427C204.979 42.7563 204.638 42.9151 204.263 43.0193C203.888 43.1287 203.503 43.1781 203.107 43.1677C202.56 43.1521 202.076 43.0271 201.654 42.7927C201.237 42.5583 200.912 42.2354 200.677 41.824C200.443 41.4125 200.328 40.936 200.333 40.3943L202.357 40.4021C202.357 40.6104 202.378 40.8031 202.419 40.9802C202.461 41.1573 202.547 41.2953 202.677 41.3943C202.813 41.4932 203 41.5427 203.24 41.5427C203.422 41.5427 203.589 41.5115 203.74 41.449C203.891 41.3865 204.016 41.2927 204.115 41.1677C204.214 41.0375 204.279 40.8787 204.31 40.6912ZM213.149 34.5583L212.852 36.2068H208.657L208.954 34.5583H213.149ZM210.282 32.4724H212.407L211.047 40.449C211.032 40.5896 211.024 40.7224 211.024 40.8474C211.024 40.9724 211.053 41.0766 211.11 41.1599C211.172 41.2432 211.287 41.2875 211.454 41.2927C211.542 41.2927 211.628 41.2875 211.712 41.2771C211.8 41.2667 211.889 41.2537 211.977 41.238L211.805 42.9646C211.623 43.0323 211.438 43.0818 211.251 43.113C211.063 43.1443 210.87 43.1573 210.672 43.1521C210.188 43.1469 209.81 43.0271 209.54 42.7927C209.269 42.5531 209.084 42.2485 208.985 41.8787C208.886 41.5037 208.857 41.1 208.899 40.6677L210.282 32.4724ZM216.902 36.5583L215.785 43.0115H213.652L215.121 34.5583H217.137L216.902 36.5583ZM219.144 34.488L218.855 36.6677C218.741 36.6417 218.624 36.6235 218.504 36.613C218.389 36.5974 218.277 36.5896 218.168 36.5896C217.892 36.5844 217.655 36.6287 217.457 36.7224C217.264 36.8162 217.103 36.949 216.972 37.1208C216.842 37.2875 216.733 37.4776 216.644 37.6912C216.561 37.9047 216.496 38.1261 216.449 38.3552L216.074 38.199C216.116 37.8708 216.181 37.488 216.269 37.0505C216.363 36.613 216.496 36.1912 216.668 35.7849C216.845 35.3787 217.079 35.0427 217.371 34.7771C217.663 34.5115 218.03 34.3787 218.472 34.3787C218.592 34.3839 218.704 34.3969 218.808 34.4177C218.918 34.4386 219.03 34.462 219.144 34.488ZM221.929 41.9255L224.897 34.5583H227.226L222.874 44.2849C222.749 44.5662 222.608 44.837 222.452 45.0974C222.301 45.3578 222.124 45.5896 221.921 45.7927C221.718 45.9958 221.481 46.1547 221.21 46.2693C220.944 46.3891 220.645 46.449 220.312 46.449C220.145 46.449 219.983 46.4307 219.827 46.3943C219.676 46.363 219.52 46.3266 219.358 46.2849L219.53 44.574C219.577 44.5792 219.621 44.5844 219.663 44.5896C219.705 44.5948 219.746 44.5974 219.788 44.5974C220.022 44.6026 220.223 44.5688 220.39 44.4958C220.562 44.4281 220.705 44.3266 220.819 44.1912C220.939 44.0557 221.043 43.8865 221.132 43.6833L221.929 41.9255ZM222.804 34.5583L223.03 40.7302L222.897 43.0974L221.483 43.2458L220.585 34.5583H222.804ZM233.565 31.6365L228.096 43.988H226.463L231.947 31.6365H233.565ZM238.201 38.0505H235.841L236.13 36.3943L237.958 36.4099C238.266 36.4047 238.537 36.3448 238.771 36.2302C239.005 36.1104 239.193 35.9412 239.333 35.7224C239.474 35.5037 239.565 35.2406 239.607 34.9333C239.643 34.6677 239.643 34.436 239.607 34.238C239.576 34.0349 239.484 33.8735 239.333 33.7537C239.188 33.6287 238.971 33.5583 238.685 33.5427L237.396 33.5349L235.755 43.0115H233.521L235.482 31.6365L238.779 31.6443C239.258 31.6547 239.695 31.725 240.091 31.8552C240.487 31.9802 240.823 32.1703 241.099 32.4255C241.38 32.6755 241.591 32.9906 241.732 33.3708C241.872 33.7458 241.925 34.186 241.888 34.6912C241.846 35.2693 241.69 35.7563 241.419 36.1521C241.154 36.5427 240.802 36.8474 240.365 37.0662C239.927 37.2849 239.43 37.4099 238.872 37.4412L238.201 38.0505ZM237.287 43.0115H234.318L235.513 41.1287L237.396 41.1365C237.703 41.1261 237.966 41.0531 238.185 40.9177C238.409 40.7823 238.586 40.6 238.716 40.3708C238.852 40.1417 238.94 39.8761 238.982 39.574C239.013 39.3552 239.021 39.1339 239.005 38.9099C238.99 38.6807 238.925 38.488 238.81 38.3318C238.695 38.1703 238.497 38.0792 238.216 38.0583L236.201 38.0505L236.505 36.3943L238.763 36.4021L239.146 37.0505C239.641 37.0662 240.042 37.1886 240.349 37.4177C240.662 37.6469 240.885 37.9516 241.021 38.3318C241.156 38.7068 241.206 39.1313 241.169 39.6052C241.122 40.3448 240.927 40.9698 240.583 41.4802C240.245 41.9854 239.792 42.3708 239.224 42.6365C238.656 42.8969 238.01 43.0219 237.287 43.0115ZM246.18 36.5583L245.063 43.0115H242.93L244.399 34.5583H246.415L246.18 36.5583ZM248.422 34.488L248.133 36.6677C248.019 36.6417 247.902 36.6235 247.782 36.613C247.667 36.5974 247.555 36.5896 247.446 36.5896C247.17 36.5844 246.933 36.6287 246.735 36.7224C246.542 36.8162 246.381 36.949 246.251 37.1208C246.12 37.2875 246.011 37.4776 245.922 37.6912C245.839 37.9047 245.774 38.1261 245.727 38.3552L245.352 38.199C245.394 37.8708 245.459 37.488 245.547 37.0505C245.641 36.613 245.774 36.1912 245.946 35.7849C246.123 35.3787 246.357 35.0427 246.649 34.7771C246.941 34.5115 247.308 34.3787 247.751 34.3787C247.87 34.3839 247.982 34.3969 248.087 34.4177C248.196 34.4386 248.308 34.462 248.422 34.488ZM252.605 41.0662L253.23 37.1443C253.246 36.9932 253.249 36.8396 253.238 36.6833C253.228 36.5271 253.183 36.3943 253.105 36.2849C253.032 36.1703 252.9 36.1104 252.707 36.1052C252.499 36.1 252.332 36.1443 252.207 36.238C252.082 36.3318 251.985 36.4542 251.918 36.6052C251.85 36.7563 251.801 36.9151 251.769 37.0818L249.629 37.0974C249.655 36.6703 249.762 36.2901 249.949 35.9568C250.142 35.6182 250.389 35.3318 250.691 35.0974C250.993 34.863 251.332 34.686 251.707 34.5662C252.087 34.4464 252.48 34.3891 252.887 34.3943C253.449 34.4047 253.926 34.5271 254.316 34.7615C254.707 34.9958 254.993 35.3188 255.176 35.7302C255.358 36.1417 255.42 36.6287 255.363 37.1912L254.762 40.9646C254.715 41.2719 254.673 41.5922 254.637 41.9255C254.605 42.2537 254.642 42.5714 254.746 42.8787L254.738 43.0115L252.652 43.0193C252.558 42.7016 252.517 42.3787 252.527 42.0505C252.538 41.7172 252.564 41.3891 252.605 41.0662ZM253.426 37.8474L253.207 39.1599L252.512 39.1521C252.308 39.1573 252.121 39.1964 251.949 39.2693C251.782 39.337 251.631 39.436 251.496 39.5662C251.366 39.6912 251.259 39.837 251.176 40.0037C251.097 40.1651 251.048 40.3474 251.027 40.5505C251.006 40.686 251.004 40.824 251.019 40.9646C251.04 41.1 251.09 41.2146 251.168 41.3083C251.251 41.4021 251.376 41.4516 251.543 41.4568C251.725 41.4568 251.905 41.4203 252.082 41.3474C252.259 41.2693 252.407 41.1599 252.527 41.0193C252.647 40.8787 252.717 40.7146 252.738 40.5271L253.129 41.4021C253.04 41.6365 252.928 41.863 252.793 42.0818C252.663 42.2953 252.506 42.488 252.324 42.6599C252.147 42.8266 251.944 42.9568 251.715 43.0505C251.491 43.1443 251.235 43.1886 250.949 43.1833C250.496 43.1781 250.105 43.061 249.777 42.8318C249.454 42.5974 249.212 42.2953 249.051 41.9255C248.889 41.5557 248.819 41.1495 248.84 40.7068C248.86 40.2068 248.975 39.7771 249.183 39.4177C249.392 39.0531 249.66 38.7537 249.988 38.5193C250.321 38.2849 250.699 38.113 251.121 38.0037C251.548 37.8943 251.993 37.8396 252.457 37.8396L253.426 37.8474ZM259.983 36.4802L258.851 43.0115H256.694L258.163 34.5583H260.179L259.983 36.4802ZM259.319 38.4958L258.827 38.5271C258.864 38.0792 258.947 37.613 259.077 37.1287C259.207 36.6391 259.395 36.1833 259.64 35.7615C259.89 35.3396 260.205 35.0037 260.585 34.7537C260.965 34.4985 261.431 34.3787 261.983 34.3943C262.421 34.4099 262.765 34.5193 263.015 34.7224C263.27 34.9255 263.455 35.1912 263.569 35.5193C263.689 35.8422 263.757 36.1886 263.772 36.5583C263.788 36.9229 263.778 37.2823 263.741 37.6365L262.843 43.0115H260.71L261.601 37.613C261.621 37.3995 261.627 37.1886 261.616 36.9802C261.611 36.7667 261.556 36.587 261.452 36.4412C261.353 36.2953 261.168 36.2224 260.897 36.2224C260.616 36.2068 260.382 36.2771 260.194 36.4333C260.007 36.5896 259.853 36.7901 259.733 37.0349C259.619 37.2745 259.528 37.5245 259.46 37.7849C259.397 38.0453 259.351 38.2823 259.319 38.4958ZM269.51 41.0427L271.244 31.0115H273.385L271.307 43.0115L269.377 43.0193L269.51 41.0427ZM265.596 39.0818L265.658 38.5349C265.721 38.0766 265.817 37.6026 265.947 37.113C266.078 36.6182 266.265 36.1625 266.51 35.7458C266.76 35.324 267.078 34.9906 267.463 34.7458C267.849 34.4958 268.325 34.3813 268.893 34.4021C269.356 34.4177 269.729 34.5662 270.01 34.8474C270.291 35.1287 270.5 35.4802 270.635 35.9021C270.77 36.324 270.854 36.7615 270.885 37.2146C270.921 37.6625 270.929 38.0662 270.908 38.4255L270.807 39.238C270.734 39.6182 270.622 40.0375 270.471 40.4958C270.325 40.9542 270.127 41.3891 269.877 41.8005C269.627 42.212 269.325 42.5479 268.971 42.8083C268.622 43.0688 268.208 43.1912 267.729 43.1755C267.192 43.1651 266.77 43.0271 266.463 42.7615C266.156 42.4906 265.932 42.1469 265.791 41.7302C265.656 41.3136 265.578 40.8708 265.557 40.4021C265.541 39.9333 265.554 39.4932 265.596 39.0818ZM267.815 38.5193L267.76 39.0974C267.744 39.2745 267.724 39.488 267.697 39.738C267.677 39.9828 267.679 40.2276 267.705 40.4724C267.737 40.7172 267.812 40.9229 267.932 41.0896C268.057 41.2511 268.252 41.3344 268.518 41.3396C268.841 41.35 269.106 41.2641 269.315 41.0818C269.523 40.8995 269.684 40.6729 269.799 40.4021C269.914 40.1261 269.989 39.8526 270.026 39.5818L270.237 38.0896C270.252 37.9125 270.255 37.7198 270.244 37.5115C270.239 37.3031 270.211 37.1026 270.158 36.9099C270.112 36.7172 270.02 36.5583 269.885 36.4333C269.755 36.3083 269.572 36.2406 269.338 36.2302C269.036 36.2042 268.789 36.2667 268.596 36.4177C268.408 36.5636 268.263 36.7589 268.158 37.0037C268.054 37.2485 267.976 37.5063 267.924 37.7771C267.872 38.0479 267.836 38.2953 267.815 38.5193ZM283.868 33.7771L279.922 43.0115H277.501L282.922 31.6365H284.446L283.868 33.7771ZM284.157 43.0115L283.376 33.5896L283.501 31.6365H284.946L286.454 43.0115H284.157ZM284.962 38.7693L284.626 40.6677H279.626L279.962 38.7693H284.962ZM290.277 40.6755L292.746 34.5583H294.129L293.34 37.199L290.941 43.0115H289.785L290.277 40.6755ZM290.926 34.5583L290.824 40.8865L290.441 43.0115H289.168L288.91 34.5583H290.926ZM294.152 40.5505L296.121 34.5583H298.222L295.043 43.0115H293.707L294.152 40.5505ZM294.285 34.5583L294.644 40.8474L294.363 43.0115H293.269L292.871 37.0037L293.004 34.5583H294.285ZM302.546 41.0662L303.171 37.1443C303.187 36.9932 303.189 36.8396 303.179 36.6833C303.168 36.5271 303.124 36.3943 303.046 36.2849C302.973 36.1703 302.84 36.1104 302.647 36.1052C302.439 36.1 302.272 36.1443 302.147 36.238C302.022 36.3318 301.926 36.4542 301.858 36.6052C301.791 36.7563 301.741 36.9151 301.71 37.0818L299.569 37.0974C299.595 36.6703 299.702 36.2901 299.89 35.9568C300.082 35.6182 300.33 35.3318 300.632 35.0974C300.934 34.863 301.272 34.686 301.647 34.5662C302.028 34.4464 302.421 34.3891 302.827 34.3943C303.39 34.4047 303.866 34.5271 304.257 34.7615C304.647 34.9958 304.934 35.3188 305.116 35.7302C305.299 36.1417 305.361 36.6287 305.304 37.1912L304.702 40.9646C304.655 41.2719 304.614 41.5922 304.577 41.9255C304.546 42.2537 304.582 42.5714 304.687 42.8787L304.679 43.0115L302.593 43.0193C302.499 42.7016 302.457 42.3787 302.468 42.0505C302.478 41.7172 302.504 41.3891 302.546 41.0662ZM303.366 37.8474L303.147 39.1599L302.452 39.1521C302.249 39.1573 302.062 39.1964 301.89 39.2693C301.723 39.337 301.572 39.436 301.437 39.5662C301.306 39.6912 301.2 39.837 301.116 40.0037C301.038 40.1651 300.989 40.3474 300.968 40.5505C300.947 40.686 300.944 40.824 300.96 40.9646C300.981 41.1 301.03 41.2146 301.108 41.3083C301.192 41.4021 301.317 41.4516 301.483 41.4568C301.666 41.4568 301.845 41.4203 302.022 41.3474C302.2 41.2693 302.348 41.1599 302.468 41.0193C302.588 40.8787 302.658 40.7146 302.679 40.5271L303.069 41.4021C302.981 41.6365 302.869 41.863 302.733 42.0818C302.603 42.2953 302.447 42.488 302.265 42.6599C302.088 42.8266 301.884 42.9568 301.655 43.0505C301.431 43.1443 301.176 43.1886 300.89 43.1833C300.437 43.1781 300.046 43.061 299.718 42.8318C299.395 42.5974 299.153 42.2953 298.991 41.9255C298.83 41.5557 298.759 41.1495 298.78 40.7068C298.801 40.2068 298.916 39.7771 299.124 39.4177C299.332 39.0531 299.601 38.7537 299.929 38.5193C300.262 38.2849 300.64 38.113 301.062 38.0037C301.489 37.8943 301.934 37.8396 302.397 37.8396L303.366 37.8474ZM309.94 36.5583L308.822 43.0115H306.69L308.158 34.5583H310.174L309.94 36.5583ZM312.182 34.488L311.893 36.6677C311.778 36.6417 311.661 36.6235 311.541 36.613C311.427 36.5974 311.315 36.5896 311.205 36.5896C310.929 36.5844 310.692 36.6287 310.494 36.7224C310.302 36.8162 310.14 36.949 310.01 37.1208C309.88 37.2875 309.77 37.4776 309.682 37.6912C309.599 37.9047 309.533 38.1261 309.487 38.3552L309.112 38.199C309.153 37.8708 309.218 37.488 309.307 37.0505C309.401 36.613 309.533 36.1912 309.705 35.7849C309.882 35.3787 310.117 35.0427 310.408 34.7771C310.7 34.5115 311.067 34.3787 311.51 34.3787C311.63 34.3839 311.742 34.3969 311.846 34.4177C311.955 34.4386 312.067 34.462 312.182 34.488ZM315.904 43.1677C315.341 43.1573 314.859 43.0479 314.458 42.8396C314.057 42.6313 313.737 42.3474 313.497 41.988C313.258 41.6235 313.094 41.212 313.005 40.7537C312.917 40.2901 312.899 39.7953 312.951 39.2693L313.029 38.574C313.102 38.0323 313.229 37.5089 313.412 37.0037C313.594 36.4985 313.839 36.0479 314.146 35.6521C314.458 35.2511 314.841 34.9386 315.294 34.7146C315.747 34.4906 316.279 34.3839 316.888 34.3943C317.471 34.4099 317.943 34.5401 318.302 34.7849C318.667 35.0245 318.94 35.3422 319.122 35.738C319.31 36.1339 319.425 36.574 319.466 37.0583C319.508 37.5375 319.497 38.0219 319.435 38.5115L319.294 39.5115H313.787L314.06 37.9724L317.396 37.9802L317.435 37.7615C317.471 37.5427 317.484 37.3162 317.474 37.0818C317.464 36.8422 317.401 36.6417 317.287 36.4802C317.172 36.3136 316.974 36.2224 316.693 36.2068C316.385 36.1912 316.135 36.2615 315.943 36.4177C315.755 36.5688 315.609 36.7693 315.505 37.0193C315.401 37.2693 315.326 37.5323 315.279 37.8083C315.237 38.0792 315.203 38.3344 315.177 38.574L315.091 39.2771C315.065 39.5115 315.055 39.7485 315.06 39.988C315.065 40.2224 315.096 40.4412 315.154 40.6443C315.216 40.8474 315.326 41.0141 315.482 41.1443C315.643 41.2745 315.872 41.3422 316.169 41.3474C316.534 41.3578 316.87 41.2901 317.177 41.1443C317.49 40.9985 317.781 40.811 318.052 40.5818L318.779 41.9177C318.56 42.2094 318.294 42.4516 317.982 42.6443C317.669 42.8318 317.331 42.9672 316.966 43.0505C316.607 43.1339 316.253 43.1729 315.904 43.1677ZM323.946 36.4802L322.813 43.0115H320.657L322.126 34.5583H324.141L323.946 36.4802ZM323.282 38.4958L322.79 38.5271C322.826 38.0792 322.909 37.613 323.04 37.1287C323.17 36.6391 323.357 36.1833 323.602 35.7615C323.852 35.3396 324.167 35.0037 324.547 34.7537C324.928 34.4985 325.394 34.3787 325.946 34.3943C326.383 34.4099 326.727 34.5193 326.977 34.7224C327.232 34.9255 327.417 35.1912 327.532 35.5193C327.652 35.8422 327.719 36.1886 327.735 36.5583C327.751 36.9229 327.74 37.2823 327.704 37.6365L326.805 43.0115H324.672L325.563 37.613C325.584 37.3995 325.589 37.1886 325.579 36.9802C325.574 36.7667 325.519 36.587 325.415 36.4412C325.316 36.2953 325.131 36.2224 324.86 36.2224C324.579 36.2068 324.344 36.2771 324.157 36.4333C323.969 36.5896 323.816 36.7901 323.696 37.0349C323.581 37.2745 323.49 37.5245 323.422 37.7849C323.36 38.0453 323.313 38.2823 323.282 38.4958ZM332.582 43.1677C332.019 43.1573 331.538 43.0479 331.137 42.8396C330.735 42.6313 330.415 42.3474 330.176 41.988C329.936 41.6235 329.772 41.212 329.683 40.7537C329.595 40.2901 329.577 39.7953 329.629 39.2693L329.707 38.574C329.78 38.0323 329.907 37.5089 330.09 37.0037C330.272 36.4985 330.517 36.0479 330.824 35.6521C331.137 35.2511 331.519 34.9386 331.972 34.7146C332.426 34.4906 332.957 34.3839 333.566 34.3943C334.15 34.4099 334.621 34.5401 334.98 34.7849C335.345 35.0245 335.618 35.3422 335.801 35.738C335.988 36.1339 336.103 36.574 336.144 37.0583C336.186 37.5375 336.176 38.0219 336.113 38.5115L335.972 39.5115H330.465L330.738 37.9724L334.074 37.9802L334.113 37.7615C334.15 37.5427 334.163 37.3162 334.152 37.0818C334.142 36.8422 334.079 36.6417 333.965 36.4802C333.85 36.3136 333.652 36.2224 333.371 36.2068C333.064 36.1912 332.814 36.2615 332.621 36.4177C332.433 36.5688 332.288 36.7693 332.183 37.0193C332.079 37.2693 332.004 37.5323 331.957 37.8083C331.915 38.0792 331.881 38.3344 331.855 38.574L331.769 39.2771C331.743 39.5115 331.733 39.7485 331.738 39.988C331.743 40.2224 331.775 40.4412 331.832 40.6443C331.894 40.8474 332.004 41.0141 332.16 41.1443C332.321 41.2745 332.551 41.3422 332.847 41.3474C333.212 41.3578 333.548 41.2901 333.855 41.1443C334.168 40.9985 334.459 40.811 334.73 40.5818L335.457 41.9177C335.238 42.2094 334.972 42.4516 334.66 42.6443C334.347 42.8318 334.009 42.9672 333.644 43.0505C333.285 43.1339 332.931 43.1729 332.582 43.1677ZM341.46 40.6912C341.491 40.4828 341.439 40.311 341.304 40.1755C341.168 40.0349 341.004 39.9151 340.812 39.8162C340.624 39.7172 340.457 39.6339 340.312 39.5662C340.035 39.4255 339.775 39.2771 339.53 39.1208C339.285 38.9646 339.069 38.7875 338.882 38.5896C338.7 38.3917 338.559 38.1625 338.46 37.9021C338.361 37.6417 338.322 37.3448 338.343 37.0115C338.364 36.5948 338.463 36.225 338.64 35.9021C338.817 35.5792 339.049 35.3057 339.335 35.0818C339.621 34.8578 339.944 34.686 340.304 34.5662C340.668 34.4464 341.046 34.3891 341.437 34.3943C341.968 34.4047 342.439 34.5167 342.851 34.7302C343.262 34.9438 343.58 35.2485 343.804 35.6443C344.033 36.0401 344.145 36.5089 344.14 37.0505H342.007C342.012 36.8839 342.002 36.7224 341.976 36.5662C341.955 36.4047 341.892 36.2719 341.788 36.1677C341.689 36.0636 341.533 36.0141 341.319 36.0193C341.153 36.0245 341.002 36.0662 340.866 36.1443C340.736 36.2224 340.627 36.3292 340.538 36.4646C340.45 36.5948 340.387 36.738 340.351 36.8943C340.325 37.0453 340.348 37.1781 340.421 37.2927C340.494 37.4021 340.593 37.4985 340.718 37.5818C340.843 37.6651 340.976 37.7406 341.116 37.8083C341.257 37.8708 341.377 37.9229 341.476 37.9646C341.866 38.1469 342.22 38.35 342.538 38.574C342.861 38.7979 343.111 39.0714 343.288 39.3943C343.465 39.712 343.538 40.1104 343.507 40.5896C343.486 41.0219 343.379 41.4021 343.187 41.7302C342.994 42.0531 342.744 42.324 342.437 42.5427C342.129 42.7563 341.788 42.9151 341.413 43.0193C341.038 43.1287 340.653 43.1781 340.257 43.1677C339.71 43.1521 339.226 43.0271 338.804 42.7927C338.387 42.5583 338.062 42.2354 337.827 41.824C337.593 41.4125 337.478 40.936 337.483 40.3943L339.507 40.4021C339.507 40.6104 339.528 40.8031 339.569 40.9802C339.611 41.1573 339.697 41.2953 339.827 41.3943C339.963 41.4932 340.15 41.5427 340.39 41.5427C340.572 41.5427 340.739 41.5115 340.89 41.449C341.041 41.3865 341.166 41.2927 341.265 41.1677C341.364 41.0375 341.429 40.8787 341.46 40.6912ZM349.307 40.6912C349.338 40.4828 349.286 40.311 349.151 40.1755C349.015 40.0349 348.851 39.9151 348.658 39.8162C348.471 39.7172 348.304 39.6339 348.158 39.5662C347.882 39.4255 347.622 39.2771 347.377 39.1208C347.132 38.9646 346.916 38.7875 346.729 38.5896C346.546 38.3917 346.406 38.1625 346.307 37.9021C346.208 37.6417 346.169 37.3448 346.19 37.0115C346.21 36.5948 346.309 36.225 346.487 35.9021C346.664 35.5792 346.895 35.3057 347.182 35.0818C347.468 34.8578 347.791 34.686 348.151 34.5662C348.515 34.4464 348.893 34.3891 349.283 34.3943C349.815 34.4047 350.286 34.5167 350.697 34.7302C351.109 34.9438 351.427 35.2485 351.651 35.6443C351.88 36.0401 351.992 36.5089 351.987 37.0505H349.854C349.859 36.8839 349.848 36.7224 349.822 36.5662C349.802 36.4047 349.739 36.2719 349.635 36.1677C349.536 36.0636 349.38 36.0141 349.166 36.0193C349 36.0245 348.848 36.0662 348.713 36.1443C348.583 36.2224 348.473 36.3292 348.385 36.4646C348.296 36.5948 348.234 36.738 348.197 36.8943C348.171 37.0453 348.195 37.1781 348.268 37.2927C348.341 37.4021 348.44 37.4985 348.565 37.5818C348.69 37.6651 348.822 37.7406 348.963 37.8083C349.104 37.8708 349.223 37.9229 349.322 37.9646C349.713 38.1469 350.067 38.35 350.385 38.574C350.708 38.7979 350.958 39.0714 351.135 39.3943C351.312 39.712 351.385 40.1104 351.354 40.5896C351.333 41.0219 351.226 41.4021 351.033 41.7302C350.841 42.0531 350.591 42.324 350.283 42.5427C349.976 42.7563 349.635 42.9151 349.26 43.0193C348.885 43.1287 348.5 43.1781 348.104 43.1677C347.557 43.1521 347.072 43.0271 346.651 42.7927C346.234 42.5583 345.908 42.2354 345.674 41.824C345.44 41.4125 345.325 40.936 345.33 40.3943L347.354 40.4021C347.354 40.6104 347.375 40.8031 347.416 40.9802C347.458 41.1573 347.544 41.2953 347.674 41.3943C347.809 41.4932 347.997 41.5427 348.237 41.5427C348.419 41.5427 348.585 41.5115 348.737 41.449C348.888 41.3865 349.013 41.2927 349.112 41.1677C349.21 41.0375 349.276 40.8787 349.307 40.6912Z" fill="white"/>
</g>
<defs>
<filter id="filter0_d_123_130" x="0.963013" y="0" width="520.077" height="84.0311" filterUnits="userSpaceOnUse" color-interpolation-filters="sRGB">
<feFlood flood-opacity="0" result="BackgroundImageFix"/>
<feColorMatrix in="SourceAlpha" type="matrix" values="0 0 0 0 0 0 0 0 0 0 0 0 0 0 0 0 0 0 127 0" result="hardAlpha"/>
<feOffset dy="4"/>
<feGaussianBlur stdDeviation="2"/>
<feComposite in2="hardAlpha" operator="out"/>
<feColorMatrix type="matrix" values="0 0 0 0 0 0 0 0 0 0 0 0 0 0 0 0 0 0 0.25 0"/>
<feBlend mode="normal" in2="BackgroundImageFix" result="effect1_dropShadow_123_130"/>
<feBlend mode="normal" in="SourceGraphic" in2="effect1_dropShadow_123_130" result="shape"/>
</filter>
</defs>
</svg>
