<svg width="322" height="55" viewBox="0 0 322 55" fill="none" xmlns="http://www.w3.org/2000/svg">
<g filter="url(#filter0_d_123_124)">
<path d="M5.71846 7.62985C3.65848 4.29882 6.05444 0 9.97098 0H312.032C315.948 0 318.344 4.29776 316.285 7.62882L293.546 44.4172C292.635 45.8912 291.026 46.7884 289.293 46.7884H32.7217C30.9893 46.7884 29.3804 45.8917 28.4692 44.4183L5.71846 7.62985Z" fill="#47689B"/>
<path d="M5.71846 7.62985C3.65848 4.29882 6.05444 0 9.97098 0H312.032C315.948 0 318.344 4.29776 316.285 7.62882L293.546 44.4172C292.635 45.8912 291.026 46.7884 289.293 46.7884H32.7217C30.9893 46.7884 29.3804 45.8917 28.4692 44.4183L5.71846 7.62985Z" fill="#47689B"/>
<path d="M95.2283 25.374C95.2576 25.1543 95.2503 24.9639 95.2064 24.8027C95.1673 24.6416 95.0941 24.5 94.9866 24.3779C94.8841 24.251 94.7572 24.1387 94.6058 24.041C94.4544 23.9385 94.2835 23.8433 94.0931 23.7554C93.7415 23.5845 93.4144 23.3965 93.1116 23.1914C92.8089 22.9863 92.5404 22.7544 92.306 22.4956C92.0765 22.2368 91.9032 21.9414 91.786 21.6094C91.6688 21.2725 91.6248 20.894 91.6541 20.4741C91.6883 19.9956 91.8104 19.5659 92.0203 19.1851C92.2303 18.8042 92.5037 18.4819 92.8407 18.2183C93.1776 17.9497 93.556 17.7495 93.9759 17.6177C94.3958 17.481 94.8353 17.4175 95.2943 17.4272C95.9388 17.4419 96.4759 17.5981 96.9056 17.896C97.3402 18.189 97.6624 18.582 97.8724 19.0752C98.0872 19.5635 98.1849 20.1128 98.1654 20.7231L96.078 20.7158C96.0926 20.4814 96.078 20.2446 96.034 20.0054C95.9949 19.7661 95.9022 19.5708 95.7557 19.4194C95.6141 19.2632 95.3968 19.1826 95.1038 19.1777C94.845 19.1777 94.618 19.2363 94.4227 19.3535C94.2274 19.4658 94.0687 19.6196 93.9466 19.8149C93.8245 20.0103 93.7464 20.23 93.7122 20.4741C93.6878 20.6646 93.7074 20.8354 93.7708 20.9868C93.8392 21.1382 93.932 21.2749 94.0491 21.397C94.1712 21.5142 94.3079 21.6216 94.4593 21.7192C94.6107 21.8169 94.762 21.8975 94.9134 21.9609C95.2796 22.1416 95.6165 22.3369 95.9241 22.5469C96.2366 22.752 96.5003 22.9888 96.7152 23.2573C96.9349 23.521 97.0936 23.8262 97.1912 24.1729C97.2938 24.5195 97.3304 24.915 97.3011 25.3594C97.262 25.8525 97.1424 26.2871 96.9422 26.6631C96.7469 27.0391 96.4881 27.3589 96.1658 27.6226C95.8436 27.8813 95.4749 28.0767 95.0599 28.2085C94.6449 28.3403 94.2005 28.4014 93.7269 28.3916C93.2191 28.377 92.765 28.2817 92.3646 28.106C91.9642 27.9253 91.6273 27.6787 91.3538 27.3662C91.0853 27.0488 90.8851 26.6777 90.7533 26.2529C90.6214 25.8232 90.5701 25.3618 90.5994 24.8687L92.6868 24.876C92.6722 25.1055 92.6746 25.3276 92.6942 25.5425C92.7137 25.7573 92.7674 25.9453 92.8553 26.1064C92.9432 26.2676 93.0701 26.397 93.2362 26.4946C93.4022 26.5923 93.6219 26.6411 93.8953 26.6411C94.1541 26.6411 94.3763 26.5874 94.5618 26.48C94.7474 26.3677 94.8963 26.2163 95.0086 26.0259C95.1209 25.8354 95.1942 25.6182 95.2283 25.374ZM102.057 28.3843C101.53 28.3745 101.078 28.272 100.702 28.0767C100.326 27.8813 100.026 27.6152 99.8016 27.2783C99.577 26.9365 99.4232 26.5508 99.3402 26.1211C99.2572 25.6865 99.2401 25.2227 99.2889 24.7295L99.3621 24.0776C99.4305 23.5698 99.5501 23.0791 99.721 22.6055C99.8919 22.1318 100.121 21.7095 100.41 21.3384C100.702 20.9624 101.061 20.6694 101.486 20.4595C101.911 20.2495 102.409 20.1494 102.98 20.1592C103.527 20.1738 103.969 20.2959 104.306 20.5254C104.648 20.75 104.904 21.0479 105.075 21.4189C105.251 21.79 105.358 22.2026 105.397 22.6567C105.436 23.106 105.427 23.5601 105.368 24.019L105.236 24.9565H100.073L100.329 23.5137L103.456 23.521L103.493 23.3159C103.527 23.1108 103.539 22.8984 103.53 22.6787C103.52 22.4541 103.461 22.2661 103.354 22.1147C103.246 21.9585 103.061 21.873 102.797 21.8584C102.509 21.8438 102.275 21.9097 102.094 22.0562C101.918 22.1978 101.782 22.3857 101.684 22.6201C101.586 22.8545 101.515 23.1011 101.472 23.3599C101.432 23.6138 101.401 23.853 101.376 24.0776L101.296 24.7368C101.271 24.9565 101.262 25.1787 101.266 25.4033C101.271 25.623 101.301 25.8281 101.354 26.0186C101.413 26.209 101.515 26.3652 101.662 26.4873C101.813 26.6094 102.028 26.6729 102.306 26.6777C102.648 26.6875 102.963 26.624 103.251 26.4873C103.544 26.3506 103.818 26.1748 104.072 25.96L104.753 27.2124C104.548 27.4858 104.299 27.7129 104.006 27.8936C103.713 28.0693 103.395 28.1963 103.054 28.2744C102.717 28.3525 102.385 28.3892 102.057 28.3843ZM109.612 22.188L108.564 28.2378H106.565L107.942 20.313H109.831L109.612 22.188ZM111.714 20.2471L111.443 22.2905C111.335 22.2661 111.225 22.249 111.113 22.2393C111.006 22.2246 110.901 22.2173 110.798 22.2173C110.539 22.2124 110.317 22.2539 110.132 22.3418C109.951 22.4297 109.8 22.5542 109.678 22.7153C109.555 22.8716 109.453 23.0498 109.37 23.25C109.292 23.4502 109.231 23.6577 109.187 23.8726L108.835 23.7261C108.874 23.4185 108.935 23.0596 109.018 22.6494C109.106 22.2393 109.231 21.8438 109.392 21.4629C109.558 21.082 109.778 20.7671 110.051 20.5181C110.325 20.269 110.669 20.1445 111.084 20.1445C111.196 20.1494 111.301 20.1616 111.399 20.1812C111.501 20.2007 111.606 20.2227 111.714 20.2471ZM114.873 26.5679L117.063 20.313H119.202L115.847 28.2378H114.566L114.873 26.5679ZM115.108 20.313L115.379 26.7583L115.166 28.2378H113.929L113.057 20.313H115.108ZM123.014 20.313L121.637 28.2378H119.63L121.007 20.313H123.014ZM121.27 18.2988C121.265 17.9814 121.366 17.7129 121.571 17.4932C121.776 17.2734 122.042 17.1611 122.369 17.1562C122.677 17.1514 122.933 17.249 123.138 17.4492C123.343 17.6494 123.443 17.9058 123.438 18.2183C123.448 18.5356 123.35 18.8042 123.145 19.0239C122.945 19.2437 122.681 19.356 122.354 19.3608C122.047 19.3706 121.79 19.2754 121.585 19.0752C121.38 18.8701 121.275 18.6113 121.27 18.2988ZM127.023 26.6924C127.257 26.6973 127.445 26.6436 127.587 26.5312C127.728 26.4141 127.836 26.2627 127.909 26.0771C127.982 25.8916 128.034 25.7036 128.063 25.5132L129.938 25.5059C129.894 26.0479 129.74 26.541 129.476 26.9854C129.213 27.4248 128.859 27.7715 128.414 28.0254C127.975 28.2793 127.472 28.4014 126.906 28.3916C126.349 28.377 125.892 28.2622 125.536 28.0474C125.184 27.8276 124.913 27.5371 124.723 27.1758C124.537 26.8096 124.418 26.4043 124.364 25.96C124.315 25.5107 124.318 25.0469 124.371 24.5684L124.437 23.9897C124.506 23.4868 124.62 23.0034 124.782 22.5396C124.948 22.0708 125.172 21.6558 125.455 21.2944C125.743 20.9331 126.097 20.6523 126.517 20.4521C126.937 20.2471 127.433 20.1519 128.004 20.1665C128.61 20.1812 129.091 20.335 129.447 20.6279C129.804 20.916 130.055 21.292 130.201 21.7559C130.353 22.2197 130.416 22.7251 130.392 23.272L128.51 23.2646C128.514 23.0742 128.51 22.874 128.495 22.6641C128.48 22.4492 128.419 22.2637 128.312 22.1074C128.209 21.9512 128.036 21.8682 127.792 21.8584C127.504 21.8486 127.274 21.9121 127.103 22.0488C126.932 22.1855 126.803 22.3662 126.715 22.5908C126.627 22.8154 126.564 23.0522 126.525 23.3013C126.491 23.5503 126.459 23.7773 126.43 23.9824L126.378 24.5684C126.364 24.7344 126.342 24.937 126.312 25.1763C126.283 25.4106 126.276 25.645 126.29 25.8794C126.305 26.1089 126.364 26.3018 126.466 26.458C126.574 26.6094 126.759 26.6875 127.023 26.6924ZM134.606 28.3843C134.079 28.3745 133.627 28.272 133.251 28.0767C132.875 27.8813 132.575 27.6152 132.35 27.2783C132.126 26.9365 131.972 26.5508 131.889 26.1211C131.806 25.6865 131.789 25.2227 131.838 24.7295L131.911 24.0776C131.979 23.5698 132.099 23.0791 132.27 22.6055C132.441 22.1318 132.67 21.7095 132.958 21.3384C133.251 20.9624 133.61 20.6694 134.035 20.4595C134.46 20.2495 134.958 20.1494 135.529 20.1592C136.076 20.1738 136.518 20.2959 136.855 20.5254C137.197 20.75 137.453 21.0479 137.624 21.4189C137.8 21.79 137.907 22.2026 137.946 22.6567C137.985 23.106 137.975 23.5601 137.917 24.019L137.785 24.9565H132.621L132.878 23.5137L136.005 23.521L136.042 23.3159C136.076 23.1108 136.088 22.8984 136.078 22.6787C136.069 22.4541 136.01 22.2661 135.903 22.1147C135.795 21.9585 135.61 21.873 135.346 21.8584C135.058 21.8438 134.824 21.9097 134.643 22.0562C134.467 22.1978 134.33 22.3857 134.233 22.6201C134.135 22.8545 134.064 23.1011 134.02 23.3599C133.981 23.6138 133.95 23.853 133.925 24.0776L133.845 24.7368C133.82 24.9565 133.81 25.1787 133.815 25.4033C133.82 25.623 133.849 25.8281 133.903 26.0186C133.962 26.209 134.064 26.3652 134.211 26.4873C134.362 26.6094 134.577 26.6729 134.855 26.6777C135.197 26.6875 135.512 26.624 135.8 26.4873C136.093 26.3506 136.367 26.1748 136.62 25.96L137.302 27.2124C137.097 27.4858 136.847 27.7129 136.555 27.8936C136.262 28.0693 135.944 28.1963 135.602 28.2744C135.265 28.3525 134.933 28.3892 134.606 28.3843ZM146.368 26.6924C146.602 26.6973 146.79 26.6436 146.931 26.5312C147.073 26.4141 147.18 26.2627 147.254 26.0771C147.327 25.8916 147.378 25.7036 147.408 25.5132L149.283 25.5059C149.239 26.0479 149.085 26.541 148.821 26.9854C148.557 27.4248 148.203 27.7715 147.759 28.0254C147.32 28.2793 146.817 28.4014 146.25 28.3916C145.694 28.377 145.237 28.2622 144.881 28.0474C144.529 27.8276 144.258 27.5371 144.068 27.1758C143.882 26.8096 143.763 26.4043 143.709 25.96C143.66 25.5107 143.662 25.0469 143.716 24.5684L143.782 23.9897C143.85 23.4868 143.965 23.0034 144.126 22.5396C144.292 22.0708 144.517 21.6558 144.8 21.2944C145.088 20.9331 145.442 20.6523 145.862 20.4521C146.282 20.2471 146.778 20.1519 147.349 20.1665C147.954 20.1812 148.435 20.335 148.792 20.6279C149.148 20.916 149.4 21.292 149.546 21.7559C149.698 22.2197 149.761 22.7251 149.737 23.272L147.854 23.2646C147.859 23.0742 147.854 22.874 147.84 22.6641C147.825 22.4492 147.764 22.2637 147.657 22.1074C147.554 21.9512 147.381 21.8682 147.137 21.8584C146.848 21.8486 146.619 21.9121 146.448 22.0488C146.277 22.1855 146.148 22.3662 146.06 22.5908C145.972 22.8154 145.909 23.0522 145.869 23.3013C145.835 23.5503 145.804 23.7773 145.774 23.9824L145.723 24.5684C145.708 24.7344 145.686 24.937 145.657 25.1763C145.628 25.4106 145.62 25.645 145.635 25.8794C145.65 26.1089 145.708 26.3018 145.811 26.458C145.918 26.6094 146.104 26.6875 146.368 26.6924ZM151.16 24.5464L151.226 24.019C151.28 23.521 151.395 23.04 151.571 22.5762C151.751 22.1123 151.991 21.6948 152.288 21.3237C152.591 20.9526 152.955 20.6646 153.38 20.4595C153.809 20.2495 154.303 20.1519 154.859 20.1665C155.406 20.1763 155.855 20.2935 156.207 20.5181C156.563 20.7427 156.842 21.0405 157.042 21.4116C157.242 21.7778 157.371 22.188 157.43 22.6421C157.493 23.0913 157.501 23.5479 157.452 24.0117L157.393 24.5391C157.33 25.042 157.21 25.5254 157.035 25.9893C156.859 26.4531 156.619 26.8682 156.317 27.2344C156.019 27.6006 155.655 27.8887 155.225 28.0986C154.801 28.3037 154.31 28.3989 153.753 28.3843C153.211 28.3745 152.762 28.2573 152.406 28.0327C152.054 27.8081 151.778 27.5127 151.578 27.1465C151.378 26.7803 151.246 26.3726 151.182 25.9233C151.119 25.4692 151.112 25.0103 151.16 24.5464ZM153.241 24.0117L153.182 24.561C153.167 24.7173 153.153 24.9126 153.138 25.147C153.123 25.3765 153.133 25.6084 153.167 25.8428C153.201 26.0771 153.277 26.2749 153.394 26.436C153.512 26.5923 153.692 26.6753 153.936 26.6851C154.21 26.7046 154.437 26.6436 154.618 26.502C154.803 26.3555 154.947 26.1675 155.05 25.938C155.152 25.7085 155.23 25.4692 155.284 25.2202C155.338 24.9663 155.377 24.7368 155.401 24.5317L155.452 23.9971C155.462 23.8457 155.472 23.6528 155.482 23.4185C155.496 23.1792 155.487 22.9448 155.452 22.7153C155.418 22.481 155.34 22.2832 155.218 22.1221C155.101 21.9609 154.923 21.873 154.683 21.8584C154.415 21.8438 154.193 21.9097 154.017 22.0562C153.846 22.2026 153.707 22.3906 153.599 22.6201C153.492 22.8447 153.411 23.084 153.358 23.3379C153.304 23.5918 153.265 23.8164 153.241 24.0117ZM161.754 22.1147L160.692 28.2378H158.671L160.048 20.313H161.937L161.754 22.1147ZM161.132 24.0044L160.67 24.0337C160.704 23.6138 160.783 23.1768 160.905 22.7227C161.027 22.2637 161.202 21.8364 161.432 21.4409C161.666 21.0454 161.962 20.7305 162.318 20.4961C162.675 20.2568 163.112 20.1445 163.629 20.1592C164.039 20.1738 164.362 20.2764 164.596 20.4668C164.835 20.6572 165.009 20.9062 165.116 21.2139C165.228 21.5166 165.292 21.8413 165.306 22.188C165.321 22.5298 165.311 22.8667 165.277 23.1987L164.435 28.2378H162.435L163.27 23.1768C163.29 22.9766 163.295 22.7788 163.285 22.5835C163.28 22.3833 163.229 22.2148 163.131 22.0781C163.038 21.9414 162.865 21.873 162.611 21.873C162.347 21.8584 162.128 21.9243 161.952 22.0708C161.776 22.2173 161.632 22.4053 161.52 22.6348C161.412 22.8594 161.327 23.0938 161.264 23.3379C161.205 23.582 161.161 23.8042 161.132 24.0044ZM170.451 26.0625C170.48 25.8672 170.431 25.7061 170.305 25.5791C170.178 25.4473 170.024 25.335 169.843 25.2422C169.667 25.1494 169.511 25.0713 169.374 25.0078C169.116 24.876 168.871 24.7368 168.642 24.5903C168.412 24.4438 168.21 24.2778 168.034 24.0923C167.863 23.9067 167.731 23.6919 167.639 23.4478C167.546 23.2036 167.509 22.9253 167.529 22.6128C167.548 22.2222 167.641 21.8755 167.807 21.5728C167.973 21.27 168.19 21.0137 168.459 20.8037C168.727 20.5938 169.03 20.4326 169.367 20.3203C169.709 20.208 170.063 20.1543 170.429 20.1592C170.927 20.1689 171.369 20.2739 171.755 20.4741C172.14 20.6743 172.438 20.96 172.648 21.3311C172.863 21.7021 172.968 22.1416 172.963 22.6494H170.964C170.969 22.4932 170.959 22.3418 170.934 22.1953C170.915 22.0439 170.856 21.9194 170.759 21.8218C170.666 21.7241 170.519 21.6777 170.319 21.6826C170.163 21.6875 170.021 21.7266 169.894 21.7998C169.772 21.873 169.67 21.9731 169.587 22.1001C169.504 22.2222 169.445 22.3564 169.411 22.5029C169.387 22.6445 169.409 22.769 169.477 22.8765C169.545 22.979 169.638 23.0693 169.755 23.1475C169.872 23.2256 169.997 23.2964 170.129 23.3599C170.261 23.4185 170.373 23.4673 170.466 23.5063C170.832 23.6772 171.164 23.8677 171.462 24.0776C171.764 24.2876 171.999 24.5439 172.165 24.8467C172.331 25.1445 172.399 25.5181 172.37 25.9673C172.35 26.3726 172.25 26.729 172.07 27.0366C171.889 27.3394 171.655 27.5933 171.367 27.7983C171.078 27.9985 170.759 28.1475 170.407 28.2451C170.055 28.3477 169.694 28.394 169.323 28.3843C168.81 28.3696 168.356 28.2524 167.961 28.0327C167.57 27.813 167.265 27.5103 167.045 27.1245C166.826 26.7388 166.718 26.292 166.723 25.7842L168.62 25.7915C168.62 25.9868 168.639 26.1675 168.679 26.3335C168.718 26.4995 168.798 26.6289 168.92 26.7217C169.047 26.8145 169.223 26.8608 169.448 26.8608C169.618 26.8608 169.775 26.8315 169.916 26.7729C170.058 26.7144 170.175 26.6265 170.268 26.5093C170.361 26.3872 170.422 26.2383 170.451 26.0625ZM177.471 20.313L176.094 28.2378H174.087L175.464 20.313H177.471ZM175.727 18.2988C175.722 17.9814 175.823 17.7129 176.028 17.4932C176.233 17.2734 176.499 17.1611 176.826 17.1562C177.134 17.1514 177.39 17.249 177.595 17.4492C177.8 17.6494 177.9 17.9058 177.895 18.2183C177.905 18.5356 177.807 18.8042 177.602 19.0239C177.402 19.2437 177.139 19.356 176.811 19.3608C176.504 19.3706 176.247 19.2754 176.042 19.0752C175.837 18.8701 175.732 18.6113 175.727 18.2988ZM182.454 26.3921L184.08 16.9878H186.087L184.139 28.2378L182.329 28.2451L182.454 26.3921ZM178.785 24.5537L178.843 24.041C178.902 23.6113 178.992 23.167 179.114 22.708C179.236 22.2441 179.412 21.8169 179.641 21.4263C179.876 21.0308 180.174 20.7183 180.535 20.4888C180.896 20.2544 181.343 20.147 181.875 20.1665C182.31 20.1812 182.659 20.3203 182.923 20.584C183.186 20.8477 183.382 21.1772 183.509 21.5728C183.636 21.9683 183.714 22.3784 183.743 22.8032C183.777 23.2231 183.785 23.6016 183.765 23.9385L183.67 24.7002C183.601 25.0566 183.496 25.4497 183.355 25.8794C183.218 26.3091 183.033 26.7168 182.798 27.1025C182.564 27.4883 182.281 27.8032 181.949 28.0474C181.621 28.2915 181.233 28.4062 180.784 28.3916C180.281 28.3818 179.886 28.2524 179.597 28.0034C179.309 27.7495 179.099 27.4272 178.968 27.0366C178.841 26.646 178.767 26.231 178.748 25.7915C178.733 25.3521 178.745 24.9395 178.785 24.5537ZM180.865 24.0264L180.813 24.5684C180.799 24.7344 180.779 24.9346 180.755 25.1689C180.735 25.3984 180.738 25.6279 180.762 25.8574C180.791 26.0869 180.862 26.2798 180.974 26.436C181.092 26.5874 181.275 26.6655 181.524 26.6704C181.826 26.6802 182.076 26.5996 182.271 26.4287C182.466 26.2578 182.618 26.0454 182.725 25.7915C182.832 25.5327 182.903 25.2764 182.937 25.0225L183.135 23.6235C183.15 23.4575 183.152 23.2769 183.142 23.0815C183.138 22.8862 183.111 22.6982 183.062 22.5176C183.018 22.3369 182.932 22.188 182.805 22.0708C182.683 21.9536 182.513 21.8901 182.293 21.8804C182.01 21.856 181.778 21.9146 181.597 22.0562C181.421 22.1929 181.285 22.376 181.187 22.6055C181.089 22.835 181.016 23.0767 180.967 23.3306C180.918 23.5845 180.884 23.8164 180.865 24.0264ZM189.591 28.3843C189.063 28.3745 188.612 28.272 188.236 28.0767C187.86 27.8813 187.559 27.6152 187.335 27.2783C187.11 26.9365 186.956 26.5508 186.873 26.1211C186.79 25.6865 186.773 25.2227 186.822 24.7295L186.895 24.0776C186.964 23.5698 187.083 23.0791 187.254 22.6055C187.425 22.1318 187.655 21.7095 187.943 21.3384C188.236 20.9624 188.595 20.6694 189.019 20.4595C189.444 20.2495 189.942 20.1494 190.514 20.1592C191.06 20.1738 191.502 20.2959 191.839 20.5254C192.181 20.75 192.437 21.0479 192.608 21.4189C192.784 21.79 192.891 22.2026 192.93 22.6567C192.97 23.106 192.96 23.5601 192.901 24.019L192.769 24.9565H187.606L187.862 23.5137L190.99 23.521L191.026 23.3159C191.06 23.1108 191.073 22.8984 191.063 22.6787C191.053 22.4541 190.994 22.2661 190.887 22.1147C190.78 21.9585 190.594 21.873 190.33 21.8584C190.042 21.8438 189.808 21.9097 189.627 22.0562C189.451 22.1978 189.315 22.3857 189.217 22.6201C189.119 22.8545 189.049 23.1011 189.005 23.3599C188.966 23.6138 188.934 23.853 188.91 24.0776L188.829 24.7368C188.805 24.9565 188.795 25.1787 188.8 25.4033C188.805 25.623 188.834 25.8281 188.888 26.0186C188.946 26.209 189.049 26.3652 189.195 26.4873C189.347 26.6094 189.561 26.6729 189.84 26.6777C190.181 26.6875 190.496 26.624 190.785 26.4873C191.077 26.3506 191.351 26.1748 191.605 25.96L192.286 27.2124C192.081 27.4858 191.832 27.7129 191.539 27.8936C191.246 28.0693 190.929 28.1963 190.587 28.2744C190.25 28.3525 189.918 28.3892 189.591 28.3843ZM197.145 22.188L196.097 28.2378H194.098L195.475 20.313H197.365L197.145 22.188ZM199.247 20.2471L198.976 22.2905C198.868 22.2661 198.759 22.249 198.646 22.2393C198.539 22.2246 198.434 22.2173 198.331 22.2173C198.073 22.2124 197.85 22.2539 197.665 22.3418C197.484 22.4297 197.333 22.5542 197.211 22.7153C197.089 22.8716 196.986 23.0498 196.903 23.25C196.825 23.4502 196.764 23.6577 196.72 23.8726L196.368 23.7261C196.408 23.4185 196.469 23.0596 196.552 22.6494C196.639 22.2393 196.764 21.8438 196.925 21.4629C197.091 21.082 197.311 20.7671 197.584 20.5181C197.858 20.269 198.202 20.1445 198.617 20.1445C198.729 20.1494 198.834 20.1616 198.932 20.1812C199.035 20.2007 199.139 20.2227 199.247 20.2471ZM203.168 26.4141L203.754 22.7373C203.769 22.5957 203.771 22.4517 203.762 22.3052C203.752 22.1587 203.71 22.0342 203.637 21.9316C203.569 21.8242 203.444 21.7681 203.264 21.7632C203.068 21.7583 202.912 21.7998 202.795 21.8877C202.678 21.9756 202.587 22.0903 202.524 22.2319C202.46 22.3735 202.414 22.5225 202.385 22.6787L200.378 22.6934C200.402 22.293 200.502 21.9365 200.678 21.624C200.859 21.3066 201.091 21.0381 201.374 20.8184C201.657 20.5986 201.974 20.4326 202.326 20.3203C202.682 20.208 203.051 20.1543 203.432 20.1592C203.959 20.1689 204.406 20.2837 204.772 20.5034C205.139 20.7231 205.407 21.0259 205.578 21.4116C205.749 21.7974 205.807 22.2539 205.754 22.7812L205.19 26.3188C205.146 26.6069 205.107 26.9072 205.073 27.2197C205.043 27.5273 205.077 27.8252 205.175 28.1133L205.168 28.2378L203.212 28.2451C203.124 27.9473 203.085 27.6445 203.095 27.3369C203.105 27.0244 203.129 26.7168 203.168 26.4141ZM203.937 23.3965L203.732 24.627L203.08 24.6196C202.89 24.6245 202.714 24.6611 202.553 24.7295C202.397 24.793 202.255 24.8857 202.128 25.0078C202.006 25.125 201.906 25.2617 201.828 25.418C201.755 25.5693 201.708 25.7402 201.689 25.9307C201.669 26.0576 201.667 26.187 201.681 26.3188C201.701 26.4458 201.747 26.5532 201.821 26.6411C201.899 26.729 202.016 26.7754 202.172 26.7803C202.343 26.7803 202.512 26.7461 202.678 26.6777C202.844 26.6045 202.983 26.502 203.095 26.3701C203.207 26.2383 203.273 26.0845 203.293 25.9087L203.659 26.729C203.576 26.9487 203.471 27.1611 203.344 27.3662C203.222 27.5664 203.076 27.7471 202.905 27.9082C202.739 28.0645 202.548 28.1865 202.333 28.2744C202.123 28.3623 201.884 28.4038 201.616 28.3989C201.191 28.394 200.825 28.2842 200.517 28.0693C200.214 27.8496 199.987 27.5664 199.836 27.2197C199.684 26.873 199.618 26.4922 199.638 26.0771C199.658 25.6084 199.765 25.2056 199.96 24.8687C200.156 24.5269 200.407 24.2461 200.715 24.0264C201.027 23.8066 201.381 23.6455 201.777 23.543C202.177 23.4404 202.595 23.3892 203.029 23.3892L203.937 23.3965ZM211.799 20.313L211.521 21.8584H207.588L207.866 20.313H211.799ZM209.111 18.3574H211.103L209.829 25.8354C209.814 25.9673 209.807 26.0918 209.807 26.209C209.807 26.3262 209.834 26.4238 209.888 26.502C209.946 26.5801 210.054 26.6216 210.21 26.6265C210.293 26.6265 210.373 26.6216 210.451 26.6118C210.535 26.6021 210.618 26.5898 210.701 26.5752L210.539 28.1938C210.368 28.2573 210.195 28.3037 210.019 28.333C209.844 28.3623 209.663 28.3745 209.477 28.3696C209.023 28.3647 208.669 28.2524 208.415 28.0327C208.161 27.8081 207.988 27.5225 207.895 27.1758C207.803 26.8242 207.776 26.4458 207.815 26.0405L209.111 18.3574ZM215.75 20.313L214.373 28.2378H212.366L213.743 20.313H215.75ZM214.007 18.2988C214.002 17.9814 214.102 17.7129 214.307 17.4932C214.512 17.2734 214.778 17.1611 215.105 17.1562C215.413 17.1514 215.669 17.249 215.874 17.4492C216.079 17.6494 216.18 17.9058 216.175 18.2183C216.184 18.5356 216.087 18.8042 215.882 19.0239C215.681 19.2437 215.418 19.356 215.091 19.3608C214.783 19.3706 214.527 19.2754 214.322 19.0752C214.117 18.8701 214.012 18.6113 214.007 18.2988ZM217.108 24.5464L217.174 24.019C217.227 23.521 217.342 23.04 217.518 22.5762C217.699 22.1123 217.938 21.6948 218.236 21.3237C218.538 20.9526 218.902 20.6646 219.327 20.4595C219.757 20.2495 220.25 20.1519 220.806 20.1665C221.353 20.1763 221.803 20.2935 222.154 20.5181C222.511 20.7427 222.789 21.0405 222.989 21.4116C223.189 21.7778 223.319 22.188 223.377 22.6421C223.441 23.0913 223.448 23.5479 223.399 24.0117L223.341 24.5391C223.277 25.042 223.158 25.5254 222.982 25.9893C222.806 26.4531 222.567 26.8682 222.264 27.2344C221.966 27.6006 221.602 27.8887 221.173 28.0986C220.748 28.3037 220.257 28.3989 219.701 28.3843C219.159 28.3745 218.709 28.2573 218.353 28.0327C218.001 27.8081 217.725 27.5127 217.525 27.1465C217.325 26.7803 217.193 26.3726 217.13 25.9233C217.066 25.4692 217.059 25.0103 217.108 24.5464ZM219.188 24.0117L219.129 24.561C219.115 24.7173 219.1 24.9126 219.085 25.147C219.071 25.3765 219.08 25.6084 219.115 25.8428C219.149 26.0771 219.224 26.2749 219.342 26.436C219.459 26.5923 219.639 26.6753 219.884 26.6851C220.157 26.7046 220.384 26.6436 220.565 26.502C220.75 26.3555 220.894 26.1675 220.997 25.938C221.099 25.7085 221.178 25.4692 221.231 25.2202C221.285 24.9663 221.324 24.7368 221.348 24.5317L221.4 23.9971C221.41 23.8457 221.419 23.6528 221.429 23.4185C221.444 23.1792 221.434 22.9448 221.4 22.7153C221.366 22.481 221.287 22.2832 221.165 22.1221C221.048 21.9609 220.87 21.873 220.631 21.8584C220.362 21.8438 220.14 21.9097 219.964 22.0562C219.793 22.2026 219.654 22.3906 219.547 22.6201C219.439 22.8447 219.359 23.084 219.305 23.3379C219.251 23.5918 219.212 23.8164 219.188 24.0117ZM227.701 22.1147L226.639 28.2378H224.618L225.995 20.313H227.885L227.701 22.1147ZM227.079 24.0044L226.618 24.0337C226.652 23.6138 226.73 23.1768 226.852 22.7227C226.974 22.2637 227.15 21.8364 227.379 21.4409C227.614 21.0454 227.909 20.7305 228.265 20.4961C228.622 20.2568 229.059 20.1445 229.576 20.1592C229.987 20.1738 230.309 20.2764 230.543 20.4668C230.783 20.6572 230.956 20.9062 231.063 21.2139C231.176 21.5166 231.239 21.8413 231.254 22.188C231.268 22.5298 231.259 22.8667 231.224 23.1987L230.382 28.2378H228.383L229.218 23.1768C229.237 22.9766 229.242 22.7788 229.232 22.5835C229.227 22.3833 229.176 22.2148 229.078 22.0781C228.986 21.9414 228.812 21.873 228.558 21.873C228.295 21.8584 228.075 21.9243 227.899 22.0708C227.723 22.2173 227.579 22.4053 227.467 22.6348C227.36 22.8594 227.274 23.0938 227.211 23.3379C227.152 23.582 227.108 23.8042 227.079 24.0044Z" fill="white"/>
</g>
<defs>
<filter id="filter0_d_123_124" x="0.963013" y="0" width="320.077" height="54.7885" filterUnits="userSpaceOnUse" color-interpolation-filters="sRGB">
<feFlood flood-opacity="0" result="BackgroundImageFix"/>
<feColorMatrix in="SourceAlpha" type="matrix" values="0 0 0 0 0 0 0 0 0 0 0 0 0 0 0 0 0 0 127 0" result="hardAlpha"/>
<feOffset dy="4"/>
<feGaussianBlur stdDeviation="2"/>
<feComposite in2="hardAlpha" operator="out"/>
<feColorMatrix type="matrix" values="0 0 0 0 0 0 0 0 0 0 0 0 0 0 0 0 0 0 0.25 0"/>
<feBlend mode="normal" in2="BackgroundImageFix" result="effect1_dropShadow_123_124"/>
<feBlend mode="normal" in="SourceGraphic" in2="effect1_dropShadow_123_124" result="shape"/>
</filter>
</defs>
</svg>
