<svg width="252" height="45" viewBox="0 0 252 45" fill="none" xmlns="http://www.w3.org/2000/svg">
<g filter="url(#filter0_d_123_127)">
<path d="M5.71845 7.62984C3.65848 4.29881 6.05444 0 9.97097 0H242.032C245.948 0 248.344 4.29776 246.285 7.62882L229.872 34.1823C228.961 35.6563 227.352 36.5535 225.619 36.5535H26.3922C24.6598 36.5535 23.0509 35.6567 22.1397 34.1833L5.71845 7.62984Z" fill="#47689B"/>
<path d="M5.71845 7.62984C3.65848 4.29881 6.05444 0 9.97097 0H242.032C245.948 0 248.344 4.29776 246.285 7.62882L229.872 34.1823C228.961 35.6563 227.352 36.5535 225.619 36.5535H26.3922C24.6598 36.5535 23.0509 35.6567 22.1397 34.1833L5.71845 7.62984Z" fill="#47689B"/>
<path d="M68.5063 18.75L66.5576 18.7437L66.8306 17.2012L68.5825 17.2139C68.8703 17.2096 69.1115 17.1419 69.3062 17.0107C69.505 16.8753 69.6595 16.7018 69.7695 16.4902C69.8838 16.2744 69.96 16.0353 69.998 15.7729C70.0234 15.5783 70.0256 15.3709 70.0044 15.1509C69.9832 14.9266 69.9155 14.7362 69.8013 14.5796C69.6912 14.4188 69.5135 14.3299 69.2681 14.313L67.9224 14.3003L66.5894 22H64.7803L66.3735 12.7578L69.3506 12.7642C69.9134 12.7811 70.3874 12.925 70.7725 13.1958C71.1618 13.4624 71.4453 13.82 71.623 14.2686C71.805 14.7171 71.8727 15.2144 71.8262 15.7603C71.7712 16.3696 71.5934 16.8986 71.293 17.3472C70.9967 17.7915 70.6095 18.1385 70.1313 18.3882C69.6532 18.6336 69.1115 18.7542 68.5063 18.75ZM75.6627 20.4194L76.1705 17.2329C76.1832 17.1102 76.1853 16.9854 76.1769 16.8584C76.1684 16.7314 76.1324 16.6235 76.0689 16.5347C76.0097 16.4416 75.9018 16.3929 75.7452 16.3887C75.5759 16.3844 75.4405 16.4204 75.339 16.4966C75.2374 16.5728 75.1591 16.6722 75.1041 16.7949C75.0491 16.9176 75.0089 17.0467 74.9835 17.1821L73.2442 17.1948C73.2654 16.8478 73.3521 16.5389 73.5045 16.2681C73.6611 15.993 73.8621 15.7603 74.1075 15.5698C74.353 15.3794 74.628 15.2355 74.9327 15.1382C75.2416 15.0409 75.5611 14.9943 75.8912 14.9985C76.3482 15.007 76.7355 15.1064 77.0528 15.2969C77.3702 15.4873 77.603 15.7497 77.7511 16.084C77.8992 16.4183 77.95 16.814 77.9034 17.271L77.4146 20.3369C77.3766 20.5866 77.3427 20.8468 77.3131 21.1177C77.2877 21.3843 77.3173 21.6424 77.402 21.8921L77.3956 22L75.7008 22.0063C75.6246 21.7482 75.5908 21.4858 75.5992 21.2192C75.6077 20.9484 75.6288 20.6818 75.6627 20.4194ZM76.3292 17.8042L76.1515 18.8706L75.5865 18.8643C75.4215 18.8685 75.2691 18.9002 75.1295 18.9595C74.9941 19.0145 74.8714 19.0949 74.7613 19.2007C74.6555 19.3022 74.5688 19.4207 74.5011 19.5562C74.4376 19.6873 74.3974 19.8354 74.3805 20.0005C74.3635 20.1105 74.3614 20.2227 74.3741 20.3369C74.391 20.4469 74.4313 20.54 74.4947 20.6162C74.5624 20.6924 74.664 20.7326 74.7994 20.7368C74.9475 20.7368 75.0935 20.7072 75.2374 20.6479C75.3813 20.5845 75.5019 20.4956 75.5992 20.3813C75.6966 20.2671 75.7537 20.1338 75.7706 19.9814L76.088 20.6924C76.016 20.8828 75.9251 21.0669 75.815 21.2446C75.7092 21.4181 75.5823 21.5747 75.4342 21.7144C75.2903 21.8498 75.1253 21.9556 74.9391 22.0317C74.7571 22.1079 74.5497 22.1439 74.317 22.1396C73.9488 22.1354 73.6314 22.0402 73.3648 21.854C73.1025 21.6636 72.9057 21.4181 72.7745 21.1177C72.6433 20.8172 72.5862 20.4871 72.6031 20.1274C72.6201 19.7212 72.7132 19.3721 72.8824 19.0801C73.0517 18.7839 73.2696 18.5405 73.5362 18.3501C73.8071 18.1597 74.1139 18.02 74.4566 17.9312C74.8036 17.8423 75.1655 17.7979 75.5421 17.7979L76.3292 17.8042ZM81.6701 16.7568L80.7624 22H79.0295L80.2229 15.1318H81.8605L81.6701 16.7568ZM83.4919 15.0747L83.257 16.8457C83.1639 16.8245 83.0687 16.8097 82.9714 16.8013C82.8783 16.7886 82.7873 16.7822 82.6984 16.7822C82.4742 16.778 82.2816 16.814 82.1208 16.8901C81.9642 16.9663 81.833 17.0742 81.7272 17.2139C81.6215 17.3493 81.5326 17.5037 81.4606 17.6772C81.3929 17.8507 81.34 18.0306 81.302 18.2168L80.9973 18.0898C81.0311 17.8232 81.084 17.5122 81.156 17.1567C81.2321 16.8013 81.34 16.4585 81.4797 16.1284C81.6236 15.7983 81.814 15.5254 82.051 15.3096C82.288 15.0938 82.5863 14.9858 82.946 14.9858C83.0433 14.9901 83.1343 15.0007 83.2189 15.0176C83.3078 15.0345 83.3988 15.0535 83.4919 15.0747ZM88.2869 15.1318L88.0457 16.4712H84.637L84.8782 15.1318H88.2869ZM85.9573 13.437H87.6839L86.5794 19.918C86.5667 20.0322 86.5603 20.1401 86.5603 20.2417C86.5603 20.3433 86.5836 20.4279 86.6302 20.4956C86.681 20.5633 86.7741 20.5993 86.9095 20.6035C86.9814 20.6035 87.0512 20.5993 87.1189 20.5908C87.1909 20.5824 87.2628 20.5718 87.3348 20.5591L87.1951 21.9619C87.047 22.0169 86.8968 22.0571 86.7444 22.0825C86.5921 22.1079 86.4355 22.1185 86.2747 22.1143C85.8811 22.11 85.5743 22.0127 85.3543 21.8223C85.1342 21.6276 84.984 21.38 84.9036 21.0796C84.8232 20.7749 84.7999 20.4469 84.8338 20.0957L85.9573 13.437ZM91.3236 16.6934L90.4032 22H88.6513L89.8446 15.1318H91.4823L91.3236 16.6934ZM90.7841 18.3311L90.3842 18.3564C90.4138 17.9925 90.4815 17.6138 90.5873 17.2202C90.6931 16.8224 90.8454 16.4521 91.0443 16.1094C91.2475 15.7666 91.5035 15.4937 91.8124 15.2905C92.1213 15.0832 92.5001 14.9858 92.9486 14.9985C93.3041 15.0112 93.5834 15.1001 93.7865 15.2651C93.9939 15.4302 94.1441 15.646 94.2372 15.9126C94.3345 16.175 94.3895 16.4564 94.4022 16.7568C94.4149 17.0531 94.4065 17.3451 94.3769 17.6328L93.6469 22H91.914L92.6376 17.6138C92.6545 17.4403 92.6588 17.2689 92.6503 17.0996C92.6461 16.9261 92.6016 16.7801 92.517 16.6616C92.4366 16.5431 92.2864 16.4839 92.0663 16.4839C91.8378 16.4712 91.6474 16.5283 91.495 16.6553C91.3427 16.7822 91.2178 16.9451 91.1205 17.144C91.0274 17.3387 90.9534 17.5418 90.8983 17.7534C90.8476 17.965 90.8095 18.1576 90.7841 18.3311ZM98.3403 22.127C97.8833 22.1185 97.4919 22.0296 97.166 21.8604C96.8402 21.6911 96.5799 21.4604 96.3853 21.1685C96.1906 20.8722 96.0573 20.5379 95.9854 20.1655C95.9134 19.7889 95.8986 19.3869 95.9409 18.9595L96.0044 18.3945C96.0636 17.9544 96.1673 17.5291 96.3154 17.1187C96.4635 16.7082 96.6624 16.3421 96.9121 16.0205C97.166 15.6947 97.4771 15.4408 97.8452 15.2588C98.2134 15.0768 98.645 14.9901 99.1401 14.9985C99.6141 15.0112 99.9971 15.117 100.289 15.3159C100.585 15.5106 100.807 15.7687 100.956 16.0903C101.108 16.4119 101.201 16.7695 101.235 17.1631C101.269 17.5524 101.26 17.946 101.209 18.3438L101.095 19.1562H96.6201L96.8423 17.9058L99.5527 17.9121L99.5845 17.7344C99.6141 17.5566 99.6247 17.3726 99.6162 17.1821C99.6077 16.9875 99.557 16.8245 99.4639 16.6934C99.3708 16.5579 99.21 16.4839 98.9814 16.4712C98.7318 16.4585 98.5286 16.5156 98.3721 16.6426C98.2197 16.7653 98.1012 16.9282 98.0166 17.1313C97.932 17.3345 97.8706 17.5482 97.8325 17.7725C97.7987 17.9925 97.7712 18.1999 97.75 18.3945L97.6802 18.9658C97.659 19.1562 97.6506 19.3488 97.6548 19.5435C97.659 19.7339 97.6844 19.9116 97.731 20.0767C97.7817 20.2417 97.8706 20.3771 97.9976 20.4829C98.1287 20.5887 98.3149 20.6437 98.5562 20.6479C98.8524 20.6564 99.1253 20.6014 99.375 20.4829C99.6289 20.3644 99.8659 20.2121 100.086 20.0259L100.676 21.1113C100.499 21.3483 100.283 21.5451 100.029 21.7017C99.7749 21.854 99.4998 21.964 99.2036 22.0317C98.9116 22.0994 98.6239 22.1312 98.3403 22.127ZM104.887 16.7568L103.98 22H102.247L103.44 15.1318H105.078L104.887 16.7568ZM106.709 15.0747L106.474 16.8457C106.381 16.8245 106.286 16.8097 106.189 16.8013C106.095 16.7886 106.004 16.7822 105.916 16.7822C105.691 16.778 105.499 16.814 105.338 16.8901C105.181 16.9663 105.05 17.0742 104.944 17.2139C104.839 17.3493 104.75 17.5037 104.678 17.6772C104.61 17.8507 104.557 18.0306 104.519 18.2168L104.214 18.0898C104.248 17.8232 104.301 17.5122 104.373 17.1567C104.449 16.8013 104.557 16.4585 104.697 16.1284C104.841 15.7983 105.031 15.5254 105.268 15.3096C105.505 15.0938 105.803 14.9858 106.163 14.9858C106.261 14.9901 106.351 15.0007 106.436 15.0176C106.525 15.0345 106.616 15.0535 106.709 15.0747ZM110.381 20.1147C110.406 19.9455 110.364 19.8058 110.254 19.6958C110.144 19.5815 110.01 19.4842 109.854 19.4038C109.701 19.3234 109.566 19.2557 109.447 19.2007C109.223 19.0864 109.012 18.9658 108.813 18.8389C108.614 18.7119 108.438 18.568 108.286 18.4072C108.138 18.2464 108.023 18.0602 107.943 17.8486C107.863 17.637 107.831 17.3958 107.848 17.125C107.865 16.7865 107.945 16.486 108.089 16.2236C108.233 15.9613 108.421 15.7391 108.654 15.5571C108.887 15.3752 109.149 15.2355 109.441 15.1382C109.737 15.0409 110.044 14.9943 110.362 14.9985C110.793 15.007 111.176 15.098 111.51 15.2715C111.845 15.445 112.103 15.6925 112.285 16.0142C112.471 16.3358 112.562 16.7166 112.558 17.1567H110.825C110.829 17.0213 110.821 16.8901 110.8 16.7632C110.783 16.632 110.732 16.5241 110.647 16.4395C110.567 16.3548 110.44 16.3146 110.266 16.3188C110.131 16.3231 110.008 16.3569 109.898 16.4204C109.792 16.4839 109.703 16.5706 109.632 16.6807C109.56 16.7865 109.509 16.9028 109.479 17.0298C109.458 17.1525 109.477 17.2604 109.536 17.3535C109.596 17.4424 109.676 17.5207 109.778 17.5884C109.879 17.6561 109.987 17.7174 110.101 17.7725C110.216 17.8232 110.313 17.8656 110.393 17.8994C110.711 18.0475 110.998 18.2126 111.257 18.3945C111.519 18.5765 111.722 18.7987 111.866 19.061C112.01 19.3192 112.069 19.6429 112.044 20.0322C112.027 20.3835 111.94 20.6924 111.783 20.959C111.627 21.2214 111.424 21.4414 111.174 21.6191C110.924 21.7926 110.647 21.9217 110.342 22.0063C110.038 22.0952 109.725 22.1354 109.403 22.127C108.959 22.1143 108.565 22.0127 108.222 21.8223C107.884 21.6318 107.619 21.3695 107.429 21.0352C107.238 20.7008 107.145 20.3136 107.15 19.8735L108.794 19.8799C108.794 20.0492 108.811 20.2057 108.844 20.3496C108.878 20.4935 108.948 20.6056 109.054 20.686C109.164 20.7664 109.316 20.8066 109.511 20.8066C109.659 20.8066 109.794 20.7812 109.917 20.7305C110.04 20.6797 110.141 20.6035 110.222 20.502C110.302 20.3962 110.355 20.2671 110.381 20.1147ZM116.832 12.25L115.144 22H113.405L115.099 12.25H116.832ZM115.537 18.3311L115.099 18.3501C115.137 18.0073 115.209 17.6413 115.315 17.252C115.421 16.8584 115.569 16.4902 115.76 16.1475C115.954 15.8005 116.204 15.519 116.509 15.3032C116.813 15.0874 117.179 14.9858 117.607 14.9985C117.966 15.007 118.254 15.0959 118.47 15.2651C118.69 15.4302 118.851 15.6439 118.952 15.9062C119.058 16.1686 119.122 16.4543 119.143 16.7632C119.164 17.0679 119.158 17.3683 119.124 17.6646L118.4 22H116.667L117.385 17.6455C117.401 17.4805 117.408 17.3091 117.404 17.1313C117.399 16.9494 117.357 16.797 117.277 16.6743C117.196 16.5474 117.044 16.4839 116.82 16.4839C116.583 16.4712 116.386 16.5283 116.229 16.6553C116.077 16.778 115.954 16.9367 115.861 17.1313C115.768 17.3218 115.696 17.5249 115.645 17.7407C115.599 17.9523 115.563 18.1491 115.537 18.3311ZM123.322 15.1318L122.129 22H120.39L121.583 15.1318H123.322ZM121.811 13.3862C121.807 13.1112 121.894 12.8784 122.072 12.688C122.249 12.4976 122.48 12.4002 122.764 12.396C123.03 12.3918 123.252 12.4764 123.43 12.6499C123.608 12.8234 123.695 13.0456 123.69 13.3164C123.699 13.5915 123.614 13.8242 123.436 14.0146C123.263 14.2051 123.034 14.3024 122.751 14.3066C122.484 14.3151 122.262 14.2326 122.084 14.0591C121.907 13.8813 121.816 13.6571 121.811 13.3862ZM126.81 16.5474L125.407 24.6406H123.674L125.324 15.1318H126.917L126.81 16.5474ZM129.952 18.3311L129.901 18.7817C129.85 19.1499 129.772 19.5308 129.666 19.9243C129.564 20.3179 129.414 20.686 129.215 21.0288C129.021 21.3674 128.767 21.6403 128.454 21.8477C128.14 22.0508 127.755 22.1439 127.298 22.127C126.922 22.1143 126.619 21.9979 126.391 21.7778C126.162 21.5578 125.991 21.2848 125.876 20.959C125.762 20.6331 125.688 20.2904 125.654 19.9307C125.625 19.571 125.616 19.2451 125.629 18.9531L125.724 18.2485C125.783 17.9227 125.87 17.5715 125.984 17.1948C126.103 16.8182 126.259 16.4627 126.454 16.1284C126.653 15.7899 126.898 15.5148 127.19 15.3032C127.482 15.0874 127.829 14.9858 128.231 14.9985C128.68 15.007 129.029 15.1191 129.279 15.335C129.533 15.5508 129.713 15.8258 129.818 16.1602C129.928 16.4945 129.986 16.8542 129.99 17.2393C129.998 17.6243 129.986 17.9883 129.952 18.3311ZM128.155 18.7881L128.206 18.3184C128.219 18.1745 128.234 18.001 128.25 17.7979C128.267 17.5947 128.265 17.3937 128.244 17.1948C128.223 16.9917 128.162 16.8245 128.06 16.6934C127.963 16.5579 127.804 16.486 127.584 16.4775C127.381 16.4691 127.203 16.5093 127.051 16.5981C126.903 16.687 126.782 16.8076 126.689 16.96C126.596 17.1081 126.52 17.2731 126.46 17.4551C126.405 17.6328 126.365 17.8042 126.34 17.9692L126.168 19.2388C126.152 19.4419 126.154 19.6514 126.175 19.8672C126.2 20.0788 126.268 20.2607 126.378 20.4131C126.488 20.5654 126.672 20.6479 126.93 20.6606C127.171 20.6691 127.368 20.612 127.521 20.4893C127.677 20.3665 127.798 20.2078 127.882 20.0132C127.967 19.8185 128.028 19.6112 128.066 19.3911C128.104 19.1711 128.134 18.9701 128.155 18.7881ZM136.787 22H135.06L136.323 14.5352C136.387 14.0697 136.518 13.6528 136.717 13.2847C136.92 12.9165 137.195 12.6245 137.542 12.4087C137.889 12.1929 138.31 12.0892 138.805 12.0977C138.949 12.0977 139.089 12.1104 139.224 12.1357C139.364 12.1611 139.504 12.1908 139.643 12.2246L139.491 13.6528C139.423 13.6359 139.353 13.6211 139.281 13.6084C139.21 13.5957 139.14 13.5894 139.072 13.5894C138.877 13.5894 138.71 13.6317 138.571 13.7163C138.435 13.8009 138.327 13.9152 138.247 14.0591C138.166 14.1987 138.107 14.3574 138.069 14.5352L136.787 22ZM139.028 15.1318L138.793 16.4712H135.206L135.435 15.1318H139.028ZM139.804 18.8008L139.862 18.3438C139.908 17.9121 140.008 17.4953 140.16 17.0933C140.317 16.6912 140.524 16.3294 140.782 16.0078C141.044 15.6862 141.36 15.4365 141.728 15.2588C142.1 15.0768 142.528 14.9922 143.01 15.0049C143.484 15.0133 143.873 15.1149 144.178 15.3096C144.487 15.5042 144.728 15.7624 144.902 16.084C145.075 16.4014 145.187 16.7568 145.238 17.1504C145.293 17.5397 145.299 17.9354 145.257 18.3374L145.206 18.7944C145.151 19.2303 145.048 19.6493 144.895 20.0513C144.743 20.4533 144.536 20.813 144.273 21.1304C144.015 21.4478 143.7 21.6974 143.327 21.8794C142.959 22.0571 142.534 22.1396 142.052 22.127C141.582 22.1185 141.193 22.0169 140.884 21.8223C140.579 21.6276 140.34 21.3716 140.166 21.0542C139.993 20.7368 139.879 20.3835 139.824 19.9941C139.769 19.6006 139.762 19.2028 139.804 18.8008ZM141.607 18.3374L141.556 18.8135C141.544 18.9489 141.531 19.1182 141.518 19.3213C141.506 19.5202 141.514 19.7212 141.544 19.9243C141.573 20.1274 141.639 20.2988 141.741 20.4385C141.842 20.5739 141.999 20.6458 142.21 20.6543C142.447 20.6712 142.644 20.6183 142.801 20.4956C142.961 20.3687 143.086 20.2057 143.175 20.0068C143.264 19.8079 143.332 19.6006 143.378 19.3848C143.425 19.1647 143.459 18.9658 143.48 18.7881L143.524 18.3247C143.533 18.1935 143.541 18.0264 143.55 17.8232C143.562 17.6159 143.554 17.4128 143.524 17.2139C143.495 17.0107 143.427 16.8394 143.321 16.6997C143.22 16.5601 143.065 16.4839 142.858 16.4712C142.625 16.4585 142.432 16.5156 142.28 16.6426C142.132 16.7695 142.011 16.9325 141.918 17.1313C141.825 17.326 141.755 17.5334 141.709 17.7534C141.662 17.9735 141.628 18.1681 141.607 18.3374ZM148.998 16.7568L148.091 22H146.358L147.551 15.1318H149.189L148.998 16.7568ZM150.82 15.0747L150.585 16.8457C150.492 16.8245 150.397 16.8097 150.3 16.8013C150.207 16.7886 150.116 16.7822 150.027 16.7822C149.802 16.778 149.61 16.814 149.449 16.8901C149.293 16.9663 149.161 17.0742 149.056 17.2139C148.95 17.3493 148.861 17.5037 148.789 17.6772C148.721 17.8507 148.668 18.0306 148.63 18.2168L148.326 18.0898C148.359 17.8232 148.412 17.5122 148.484 17.1567C148.56 16.8013 148.668 16.4585 148.808 16.1284C148.952 15.7983 149.142 15.5254 149.379 15.3096C149.616 15.0938 149.915 14.9858 150.274 14.9858C150.372 14.9901 150.463 15.0007 150.547 15.0176C150.636 15.0345 150.727 15.0535 150.82 15.0747ZM153.857 16.6489L152.93 22H151.191L152.384 15.1318H154.016L153.857 16.6489ZM153.336 18.3311L152.879 18.3501C152.917 17.9819 152.989 17.599 153.095 17.2012C153.205 16.8034 153.358 16.4352 153.552 16.0967C153.751 15.7581 154.007 15.4873 154.32 15.2842C154.633 15.0811 155.016 14.9858 155.469 14.9985C155.799 15.007 156.06 15.0874 156.25 15.2397C156.445 15.3921 156.591 15.5889 156.688 15.8301C156.785 16.0713 156.845 16.3315 156.866 16.6108C156.887 16.8859 156.883 17.1546 156.853 17.417L156.098 22H154.365L155.088 17.6265C155.105 17.4741 155.114 17.3091 155.114 17.1313C155.114 16.9536 155.076 16.8034 155 16.6807C154.923 16.5537 154.779 16.4839 154.568 16.4712C154.348 16.467 154.162 16.5283 154.009 16.6553C153.857 16.778 153.736 16.9388 153.647 17.1377C153.559 17.3366 153.489 17.5439 153.438 17.7598C153.391 17.9714 153.358 18.1618 153.336 18.3311ZM156.605 18.1533L156.028 18.2485C156.057 17.8931 156.121 17.5249 156.218 17.144C156.316 16.759 156.462 16.4035 156.656 16.0776C156.851 15.7476 157.098 15.4831 157.399 15.2842C157.704 15.0853 158.076 14.9901 158.516 14.9985C158.872 15.007 159.155 15.0938 159.367 15.2588C159.578 15.4196 159.733 15.6312 159.83 15.8936C159.932 16.1559 159.991 16.4373 160.008 16.7378C160.025 17.0382 160.018 17.3324 159.989 17.6201L159.259 22H157.513L158.237 17.6201C158.254 17.4678 158.262 17.3049 158.262 17.1313C158.262 16.9536 158.224 16.8034 158.148 16.6807C158.076 16.5537 157.934 16.4881 157.723 16.4839C157.52 16.4797 157.352 16.5347 157.221 16.6489C157.09 16.759 156.982 16.9028 156.897 17.0806C156.813 17.2583 156.747 17.4424 156.701 17.6328C156.658 17.8232 156.627 17.9967 156.605 18.1533ZM164.416 20.4194L164.923 17.2329C164.936 17.1102 164.938 16.9854 164.93 16.8584C164.921 16.7314 164.885 16.6235 164.822 16.5347C164.763 16.4416 164.655 16.3929 164.498 16.3887C164.329 16.3844 164.193 16.4204 164.092 16.4966C163.99 16.5728 163.912 16.6722 163.857 16.7949C163.802 16.9176 163.762 17.0467 163.736 17.1821L161.997 17.1948C162.018 16.8478 162.105 16.5389 162.257 16.2681C162.414 15.993 162.615 15.7603 162.86 15.5698C163.106 15.3794 163.381 15.2355 163.686 15.1382C163.995 15.0409 164.314 14.9943 164.644 14.9985C165.101 15.007 165.488 15.1064 165.806 15.2969C166.123 15.4873 166.356 15.7497 166.504 16.084C166.652 16.4183 166.703 16.814 166.656 17.271L166.168 20.3369C166.129 20.5866 166.096 20.8468 166.066 21.1177C166.041 21.3843 166.07 21.6424 166.155 21.8921L166.149 22L164.454 22.0063C164.378 21.7482 164.344 21.4858 164.352 21.2192C164.361 20.9484 164.382 20.6818 164.416 20.4194ZM165.082 17.8042L164.904 18.8706L164.339 18.8643C164.174 18.8685 164.022 18.9002 163.882 18.9595C163.747 19.0145 163.624 19.0949 163.514 19.2007C163.408 19.3022 163.322 19.4207 163.254 19.5562C163.191 19.6873 163.15 19.8354 163.133 20.0005C163.116 20.1105 163.114 20.2227 163.127 20.3369C163.144 20.4469 163.184 20.54 163.248 20.6162C163.315 20.6924 163.417 20.7326 163.552 20.7368C163.7 20.7368 163.846 20.7072 163.99 20.6479C164.134 20.5845 164.255 20.4956 164.352 20.3813C164.449 20.2671 164.507 20.1338 164.524 19.9814L164.841 20.6924C164.769 20.8828 164.678 21.0669 164.568 21.2446C164.462 21.4181 164.335 21.5747 164.187 21.7144C164.043 21.8498 163.878 21.9556 163.692 22.0317C163.51 22.1079 163.303 22.1439 163.07 22.1396C162.702 22.1354 162.384 22.0402 162.118 21.854C161.855 21.6636 161.659 21.4181 161.527 21.1177C161.396 20.8172 161.339 20.4871 161.356 20.1274C161.373 19.7212 161.466 19.3721 161.635 19.0801C161.805 18.7839 162.023 18.5405 162.289 18.3501C162.56 18.1597 162.867 18.02 163.21 17.9312C163.557 17.8423 163.918 17.7979 164.295 17.7979L165.082 17.8042ZM171.896 15.1318L171.654 16.4712H168.246L168.487 15.1318H171.896ZM169.566 13.437H171.293L170.188 19.918C170.175 20.0322 170.169 20.1401 170.169 20.2417C170.169 20.3433 170.192 20.4279 170.239 20.4956C170.29 20.5633 170.383 20.5993 170.518 20.6035C170.59 20.6035 170.66 20.5993 170.728 20.5908C170.8 20.5824 170.872 20.5718 170.944 20.5591L170.804 21.9619C170.656 22.0169 170.506 22.0571 170.353 22.0825C170.201 22.1079 170.044 22.1185 169.883 22.1143C169.49 22.11 169.183 22.0127 168.963 21.8223C168.743 21.6276 168.593 21.38 168.512 21.0796C168.432 20.7749 168.409 20.4469 168.443 20.0957L169.566 13.437ZM175.32 15.1318L174.126 22H172.387L173.58 15.1318H175.32ZM173.809 13.3862C173.805 13.1112 173.891 12.8784 174.069 12.688C174.247 12.4976 174.478 12.4002 174.761 12.396C175.028 12.3918 175.25 12.4764 175.428 12.6499C175.605 12.8234 175.692 13.0456 175.688 13.3164C175.696 13.5915 175.612 13.8242 175.434 14.0146C175.26 14.2051 175.032 14.3024 174.748 14.3066C174.482 14.3151 174.26 14.2326 174.082 14.0591C173.904 13.8813 173.813 13.6571 173.809 13.3862ZM176.496 18.8008L176.554 18.3438C176.6 17.9121 176.7 17.4953 176.852 17.0933C177.009 16.6912 177.216 16.3294 177.474 16.0078C177.736 15.6862 178.052 15.4365 178.42 15.2588C178.792 15.0768 179.22 14.9922 179.702 15.0049C180.176 15.0133 180.565 15.1149 180.87 15.3096C181.179 15.5042 181.42 15.7624 181.594 16.084C181.767 16.4014 181.879 16.7568 181.93 17.1504C181.985 17.5397 181.991 17.9354 181.949 18.3374L181.898 18.7944C181.843 19.2303 181.74 19.6493 181.587 20.0513C181.435 20.4533 181.228 20.813 180.965 21.1304C180.707 21.4478 180.392 21.6974 180.019 21.8794C179.651 22.0571 179.226 22.1396 178.744 22.127C178.274 22.1185 177.885 22.0169 177.576 21.8223C177.271 21.6276 177.032 21.3716 176.858 21.0542C176.685 20.7368 176.571 20.3835 176.516 19.9941C176.461 19.6006 176.454 19.2028 176.496 18.8008ZM178.299 18.3374L178.248 18.8135C178.236 18.9489 178.223 19.1182 178.21 19.3213C178.198 19.5202 178.206 19.7212 178.236 19.9243C178.265 20.1274 178.331 20.2988 178.433 20.4385C178.534 20.5739 178.691 20.6458 178.902 20.6543C179.139 20.6712 179.336 20.6183 179.493 20.4956C179.653 20.3687 179.778 20.2057 179.867 20.0068C179.956 19.8079 180.024 19.6006 180.07 19.3848C180.117 19.1647 180.151 18.9658 180.172 18.7881L180.216 18.3247C180.225 18.1935 180.233 18.0264 180.242 17.8232C180.254 17.6159 180.246 17.4128 180.216 17.2139C180.187 17.0107 180.119 16.8394 180.013 16.6997C179.912 16.5601 179.757 16.4839 179.55 16.4712C179.317 16.4585 179.124 16.5156 178.972 16.6426C178.824 16.7695 178.703 16.9325 178.61 17.1313C178.517 17.326 178.447 17.5334 178.401 17.7534C178.354 17.9735 178.32 18.1681 178.299 18.3374ZM185.678 16.6934L184.757 22H183.005L184.199 15.1318H185.836L185.678 16.6934ZM185.138 18.3311L184.738 18.3564C184.768 17.9925 184.836 17.6138 184.941 17.2202C185.047 16.8224 185.2 16.4521 185.398 16.1094C185.602 15.7666 185.858 15.4937 186.167 15.2905C186.475 15.0832 186.854 14.9858 187.303 14.9985C187.658 15.0112 187.938 15.1001 188.141 15.2651C188.348 15.4302 188.498 15.646 188.591 15.9126C188.689 16.175 188.744 16.4564 188.756 16.7568C188.769 17.0531 188.761 17.3451 188.731 17.6328L188.001 22H186.268L186.992 17.6138C187.009 17.4403 187.013 17.2689 187.004 17.0996C187 16.9261 186.956 16.7801 186.871 16.6616C186.791 16.5431 186.64 16.4839 186.42 16.4839C186.192 16.4712 186.001 16.5283 185.849 16.6553C185.697 16.7822 185.572 16.9451 185.475 17.144C185.382 17.3387 185.307 17.5418 185.252 17.7534C185.202 17.965 185.164 18.1576 185.138 18.3311Z" fill="white"/>
</g>
<defs>
<filter id="filter0_d_123_127" x="0.963013" y="0" width="250.077" height="44.5535" filterUnits="userSpaceOnUse" color-interpolation-filters="sRGB">
<feFlood flood-opacity="0" result="BackgroundImageFix"/>
<feColorMatrix in="SourceAlpha" type="matrix" values="0 0 0 0 0 0 0 0 0 0 0 0 0 0 0 0 0 0 127 0" result="hardAlpha"/>
<feOffset dy="4"/>
<feGaussianBlur stdDeviation="2"/>
<feComposite in2="hardAlpha" operator="out"/>
<feColorMatrix type="matrix" values="0 0 0 0 0 0 0 0 0 0 0 0 0 0 0 0 0 0 0.25 0"/>
<feBlend mode="normal" in2="BackgroundImageFix" result="effect1_dropShadow_123_127"/>
<feBlend mode="normal" in="SourceGraphic" in2="effect1_dropShadow_123_127" result="shape"/>
</filter>
</defs>
</svg>
