<svg width="252" height="45" viewBox="0 0 252 45" fill="none" xmlns="http://www.w3.org/2000/svg">
<g filter="url(#filter0_d_123_136)">
<path d="M5.71845 28.9236C3.65848 32.2547 6.05444 36.5535 9.97097 36.5535H242.032C245.948 36.5535 248.344 32.2557 246.285 28.9246L229.872 2.37119C228.961 0.897204 227.352 1.21593e-05 225.619 1.21593e-05H26.3922C24.6598 1.21593e-05 23.0509 0.896762 22.1397 2.37017L5.71845 28.9236Z" fill="#47689B"/>
<path d="M5.71845 28.9236C3.65848 32.2547 6.05444 36.5535 9.97097 36.5535H242.032C245.948 36.5535 248.344 32.2557 246.285 28.9246L229.872 2.37119C228.961 0.897204 227.352 1.21593e-05 225.619 1.21593e-05H26.3922C24.6598 1.21593e-05 23.0509 0.896762 22.1397 2.37017L5.71845 28.9236Z" fill="#47689B"/>
<path d="M79.7722 14.4971L76.5666 22H74.5988L79.0041 12.7578H80.2419L79.7722 14.4971ZM80.007 22L79.3723 14.3447L79.4738 12.7578H80.6481L81.8732 22H80.007ZM80.6608 18.5532L80.3879 20.0957H76.3254L76.5983 18.5532H80.6608ZM86.8143 20.4004L88.2234 12.25H89.9627L88.2742 22L86.7064 22.0063L86.8143 20.4004ZM83.6341 18.8071L83.6849 18.3628C83.7356 17.9904 83.8139 17.6053 83.9197 17.2075C84.0255 16.8055 84.1779 16.4352 84.3768 16.0967C84.5799 15.7539 84.838 15.4831 85.1512 15.2842C85.4643 15.0811 85.8515 14.988 86.3128 15.0049C86.6894 15.0176 86.992 15.1382 87.2205 15.3667C87.449 15.5952 87.6183 15.8809 87.7283 16.2236C87.8384 16.5664 87.9061 16.9219 87.9314 17.29C87.9611 17.654 87.9674 17.9819 87.9505 18.2739L87.868 18.9341C87.8087 19.243 87.7177 19.5837 87.595 19.9561C87.4765 20.3285 87.3157 20.6818 87.1126 21.0161C86.9095 21.3504 86.664 21.6234 86.3763 21.835C86.0927 22.0465 85.7563 22.146 85.367 22.1333C84.9311 22.1248 84.5884 22.0127 84.3387 21.7969C84.089 21.5768 83.907 21.2975 83.7928 20.959C83.6828 20.6204 83.6193 20.2607 83.6023 19.8799C83.5897 19.499 83.6002 19.1414 83.6341 18.8071ZM85.4368 18.3501L85.3924 18.8198C85.3797 18.9637 85.3628 19.1372 85.3416 19.3403C85.3247 19.5392 85.3268 19.7381 85.348 19.937C85.3733 20.1359 85.4347 20.3031 85.532 20.4385C85.6336 20.5697 85.7923 20.6374 86.0081 20.6416C86.2705 20.6501 86.4863 20.5802 86.6556 20.4321C86.8248 20.284 86.956 20.0999 87.0491 19.8799C87.1422 19.6556 87.2036 19.4334 87.2332 19.2134L87.4046 18.001C87.4173 17.8571 87.4194 17.7005 87.4109 17.5312C87.4067 17.362 87.3834 17.1991 87.3411 17.0425C87.303 16.8859 87.229 16.7568 87.1189 16.6553C87.0132 16.5537 86.865 16.4987 86.6746 16.4902C86.4292 16.4691 86.2282 16.5199 86.0716 16.6426C85.9192 16.7611 85.8008 16.9198 85.7161 17.1187C85.6315 17.3175 85.568 17.527 85.5257 17.7471C85.4834 17.9671 85.4537 18.1681 85.4368 18.3501ZM92.4726 20.5527L94.3705 15.1318H96.224L93.3168 22H92.206L92.4726 20.5527ZM92.6757 15.1318L92.9106 20.7178L92.7265 22H91.6537L90.8983 15.1318H92.6757ZM96.7788 18.8008L96.8359 18.3438C96.8825 17.9121 96.9819 17.4953 97.1343 17.0933C97.2909 16.6912 97.4982 16.3294 97.7563 16.0078C98.0187 15.6862 98.334 15.4365 98.7021 15.2588C99.0745 15.0768 99.502 14.9922 99.9844 15.0049C100.458 15.0133 100.848 15.1149 101.152 15.3096C101.461 15.5042 101.702 15.7624 101.876 16.084C102.049 16.4014 102.162 16.7568 102.212 17.1504C102.267 17.5397 102.274 17.9354 102.231 18.3374L102.181 18.7944C102.126 19.2303 102.022 19.6493 101.87 20.0513C101.717 20.4533 101.51 20.813 101.248 21.1304C100.989 21.4478 100.674 21.6974 100.302 21.8794C99.9336 22.0571 99.5083 22.1396 99.0259 22.127C98.5562 22.1185 98.1668 22.0169 97.8579 21.8223C97.5532 21.6276 97.3141 21.3716 97.1406 21.0542C96.9671 20.7368 96.8529 20.3835 96.7979 19.9941C96.7428 19.6006 96.7365 19.2028 96.7788 18.8008ZM98.5815 18.3374L98.5308 18.8135C98.5181 18.9489 98.5054 19.1182 98.4927 19.3213C98.48 19.5202 98.4884 19.7212 98.5181 19.9243C98.5477 20.1274 98.6133 20.2988 98.7148 20.4385C98.8164 20.5739 98.973 20.6458 99.1846 20.6543C99.4215 20.6712 99.6183 20.6183 99.7749 20.4956C99.9357 20.3687 100.061 20.2057 100.149 20.0068C100.238 19.8079 100.306 19.6006 100.353 19.3848C100.399 19.1647 100.433 18.9658 100.454 18.7881L100.499 18.3247C100.507 18.1935 100.515 18.0264 100.524 17.8232C100.537 17.6159 100.528 17.4128 100.499 17.2139C100.469 17.0107 100.401 16.8394 100.295 16.6997C100.194 16.5601 100.039 16.4839 99.832 16.4712C99.5993 16.4585 99.4067 16.5156 99.2544 16.6426C99.1063 16.7695 98.9857 16.9325 98.8926 17.1313C98.7995 17.326 98.7297 17.5334 98.6831 17.7534C98.6366 17.9735 98.6027 18.1681 98.5815 18.3374ZM105.998 20.6606C106.201 20.6649 106.364 20.6183 106.487 20.521C106.61 20.4194 106.703 20.2882 106.766 20.1274C106.83 19.9666 106.874 19.8037 106.9 19.6387L108.525 19.6323C108.486 20.1021 108.353 20.5295 108.125 20.9146C107.896 21.2954 107.589 21.5959 107.204 21.8159C106.823 22.036 106.387 22.1418 105.897 22.1333C105.414 22.1206 105.018 22.0212 104.71 21.835C104.405 21.6445 104.17 21.3927 104.005 21.0796C103.844 20.7622 103.74 20.411 103.694 20.0259C103.652 19.6366 103.654 19.2345 103.7 18.8198L103.757 18.3184C103.817 17.8825 103.916 17.4635 104.056 17.0615C104.2 16.6553 104.394 16.2956 104.64 15.9824C104.889 15.6693 105.196 15.4259 105.56 15.2524C105.924 15.0747 106.354 14.9922 106.849 15.0049C107.373 15.0176 107.79 15.1509 108.099 15.4048C108.408 15.6545 108.626 15.9803 108.753 16.3823C108.884 16.7843 108.939 17.2223 108.918 17.6963L107.287 17.6899C107.291 17.5249 107.287 17.3514 107.274 17.1694C107.261 16.9832 107.208 16.8224 107.115 16.687C107.026 16.5516 106.876 16.4797 106.665 16.4712C106.415 16.4627 106.216 16.5177 106.068 16.6362C105.92 16.7547 105.808 16.9113 105.732 17.106C105.655 17.3006 105.6 17.5059 105.567 17.7217C105.537 17.9375 105.509 18.1343 105.484 18.312L105.44 18.8198C105.427 18.9637 105.408 19.1393 105.382 19.3467C105.357 19.5498 105.351 19.7529 105.363 19.9561C105.376 20.1549 105.427 20.3221 105.516 20.4575C105.609 20.5887 105.77 20.6564 105.998 20.6606ZM113.008 20.4194L113.516 17.2329C113.529 17.1102 113.531 16.9854 113.523 16.8584C113.514 16.7314 113.478 16.6235 113.415 16.5347C113.356 16.4416 113.248 16.3929 113.091 16.3887C112.922 16.3844 112.786 16.4204 112.685 16.4966C112.583 16.5728 112.505 16.6722 112.45 16.7949C112.395 16.9176 112.355 17.0467 112.329 17.1821L110.59 17.1948C110.611 16.8478 110.698 16.5389 110.85 16.2681C111.007 15.993 111.208 15.7603 111.453 15.5698C111.699 15.3794 111.974 15.2355 112.279 15.1382C112.587 15.0409 112.907 14.9943 113.237 14.9985C113.694 15.007 114.081 15.1064 114.399 15.2969C114.716 15.4873 114.949 15.7497 115.097 16.084C115.245 16.4183 115.296 16.814 115.249 17.271L114.76 20.3369C114.722 20.5866 114.689 20.8468 114.659 21.1177C114.633 21.3843 114.663 21.6424 114.748 21.8921L114.741 22L113.047 22.0063C112.97 21.7482 112.937 21.4858 112.945 21.2192C112.953 20.9484 112.975 20.6818 113.008 20.4194ZM113.675 17.8042L113.497 18.8706L112.932 18.8643C112.767 18.8685 112.615 18.9002 112.475 18.9595C112.34 19.0145 112.217 19.0949 112.107 19.2007C112.001 19.3022 111.915 19.4207 111.847 19.5562C111.783 19.6873 111.743 19.8354 111.726 20.0005C111.709 20.1105 111.707 20.2227 111.72 20.3369C111.737 20.4469 111.777 20.54 111.841 20.6162C111.908 20.6924 112.01 20.7326 112.145 20.7368C112.293 20.7368 112.439 20.7072 112.583 20.6479C112.727 20.5845 112.848 20.4956 112.945 20.3813C113.042 20.2671 113.099 20.1338 113.116 19.9814L113.434 20.6924C113.362 20.8828 113.271 21.0669 113.161 21.2446C113.055 21.4181 112.928 21.5747 112.78 21.7144C112.636 21.8498 112.471 21.9556 112.285 22.0317C112.103 22.1079 111.896 22.1439 111.663 22.1396C111.295 22.1354 110.977 22.0402 110.711 21.854C110.448 21.6636 110.252 21.4181 110.12 21.1177C109.989 20.8172 109.932 20.4871 109.949 20.1274C109.966 19.7212 110.059 19.3721 110.228 19.0801C110.397 18.7839 110.615 18.5405 110.882 18.3501C111.153 18.1597 111.46 18.02 111.802 17.9312C112.149 17.8423 112.511 17.7979 112.888 17.7979L113.675 17.8042ZM119.041 20.6606C119.244 20.6649 119.407 20.6183 119.53 20.521C119.653 20.4194 119.746 20.2882 119.809 20.1274C119.873 19.9666 119.917 19.8037 119.943 19.6387L121.568 19.6323C121.53 20.1021 121.396 20.5295 121.168 20.9146C120.939 21.2954 120.632 21.5959 120.247 21.8159C119.867 22.036 119.431 22.1418 118.94 22.1333C118.457 22.1206 118.062 22.0212 117.753 21.835C117.448 21.6445 117.213 21.3927 117.048 21.0796C116.887 20.7622 116.784 20.411 116.737 20.0259C116.695 19.6366 116.697 19.2345 116.743 18.8198L116.801 18.3184C116.86 17.8825 116.959 17.4635 117.099 17.0615C117.243 16.6553 117.437 16.2956 117.683 15.9824C117.933 15.6693 118.239 15.4259 118.603 15.2524C118.967 15.0747 119.397 14.9922 119.892 15.0049C120.417 15.0176 120.833 15.1509 121.142 15.4048C121.451 15.6545 121.669 15.9803 121.796 16.3823C121.927 16.7843 121.982 17.2223 121.961 17.6963L120.33 17.6899C120.334 17.5249 120.33 17.3514 120.317 17.1694C120.304 16.9832 120.252 16.8224 120.159 16.687C120.07 16.5516 119.919 16.4797 119.708 16.4712C119.458 16.4627 119.259 16.5177 119.111 16.6362C118.963 16.7547 118.851 16.9113 118.775 17.106C118.699 17.3006 118.644 17.5059 118.61 17.7217C118.58 17.9375 118.553 18.1343 118.527 18.312L118.483 18.8198C118.47 18.9637 118.451 19.1393 118.426 19.3467C118.4 19.5498 118.394 19.7529 118.407 19.9561C118.419 20.1549 118.47 20.3221 118.559 20.4575C118.652 20.5887 118.813 20.6564 119.041 20.6606ZM124.611 21.1177L127.023 15.1318H128.914L125.379 23.0347C125.277 23.2632 125.163 23.4832 125.036 23.6948C124.913 23.9064 124.769 24.0947 124.604 24.2598C124.439 24.4248 124.247 24.5539 124.027 24.647C123.811 24.7443 123.568 24.793 123.297 24.793C123.161 24.793 123.03 24.7782 122.903 24.7485C122.781 24.7231 122.654 24.6935 122.522 24.6597L122.662 23.2695C122.7 23.2738 122.736 23.278 122.77 23.2822C122.804 23.2865 122.838 23.2886 122.871 23.2886C123.062 23.2928 123.225 23.2653 123.36 23.2061C123.5 23.151 123.616 23.0685 123.709 22.9585C123.807 22.8485 123.891 22.7109 123.963 22.5459L124.611 21.1177ZM125.322 15.1318L125.506 20.1465L125.398 22.0698L124.249 22.1904L123.519 15.1318H125.322ZM134.065 12.7578L129.622 22.7935H128.295L132.751 12.7578H134.065ZM135.629 12.7578L138.422 12.7642C138.976 12.7811 139.442 12.9017 139.818 13.126C140.199 13.346 140.481 13.6592 140.663 14.0654C140.849 14.4674 140.919 14.9456 140.872 15.5C140.834 15.9613 140.735 16.3654 140.574 16.7124C140.417 17.0552 140.197 17.3556 139.914 17.6138C139.63 17.8677 139.283 18.0898 138.873 18.2803L138.257 18.6104H135.832L136.099 17.0679L137.635 17.0806C137.918 17.0763 138.16 17.0107 138.358 16.8838C138.557 16.7568 138.714 16.5854 138.828 16.3696C138.947 16.1538 139.023 15.9147 139.057 15.6523C139.082 15.4535 139.084 15.2524 139.063 15.0493C139.046 14.8462 138.983 14.6748 138.873 14.5352C138.763 14.3955 138.587 14.3193 138.346 14.3066L137.184 14.3003L135.851 22H134.036L135.629 12.7578ZM138.143 22L137.21 17.8804L139.038 17.874L140.079 21.8984V22H138.143ZM144.36 22.127C143.903 22.1185 143.511 22.0296 143.185 21.8604C142.859 21.6911 142.599 21.4604 142.404 21.1685C142.21 20.8722 142.077 20.5379 142.005 20.1655C141.933 19.7889 141.918 19.3869 141.96 18.9595L142.024 18.3945C142.083 17.9544 142.187 17.5291 142.335 17.1187C142.483 16.7082 142.682 16.3421 142.931 16.0205C143.185 15.6947 143.496 15.4408 143.864 15.2588C144.233 15.0768 144.664 14.9901 145.159 14.9985C145.633 15.0112 146.016 15.117 146.308 15.3159C146.605 15.5106 146.827 15.7687 146.975 16.0903C147.127 16.4119 147.22 16.7695 147.254 17.1631C147.288 17.5524 147.279 17.946 147.229 18.3438L147.114 19.1562H142.639L142.862 17.9058L145.572 17.9121L145.604 17.7344C145.633 17.5566 145.644 17.3726 145.635 17.1821C145.627 16.9875 145.576 16.8245 145.483 16.6934C145.39 16.5579 145.229 16.4839 145.001 16.4712C144.751 16.4585 144.548 16.5156 144.391 16.6426C144.239 16.7653 144.12 16.9282 144.036 17.1313C143.951 17.3345 143.89 17.5482 143.852 17.7725C143.818 17.9925 143.79 18.1999 143.769 18.3945L143.699 18.9658C143.678 19.1562 143.67 19.3488 143.674 19.5435C143.678 19.7339 143.704 19.9116 143.75 20.0767C143.801 20.2417 143.89 20.3771 144.017 20.4829C144.148 20.5887 144.334 20.6437 144.575 20.6479C144.872 20.6564 145.145 20.6014 145.394 20.4829C145.648 20.3644 145.885 20.2121 146.105 20.0259L146.696 21.1113C146.518 21.3483 146.302 21.5451 146.048 21.7017C145.794 21.854 145.519 21.964 145.223 22.0317C144.931 22.0994 144.643 22.1312 144.36 22.127ZM150.405 22H148.679L149.942 14.5352C150.005 14.0697 150.136 13.6528 150.335 13.2847C150.538 12.9165 150.813 12.6245 151.16 12.4087C151.507 12.1929 151.929 12.0892 152.424 12.0977C152.568 12.0977 152.707 12.1104 152.843 12.1357C152.982 12.1611 153.122 12.1908 153.262 12.2246L153.109 13.6528C153.041 13.6359 152.972 13.6211 152.9 13.6084C152.828 13.5957 152.758 13.5894 152.69 13.5894C152.496 13.5894 152.328 13.6317 152.189 13.7163C152.053 13.8009 151.945 13.9152 151.865 14.0591C151.785 14.1987 151.725 14.3574 151.687 14.5352L150.405 22ZM152.646 15.1318L152.411 16.4712H148.825L149.053 15.1318H152.646ZM155.689 22.127C155.232 22.1185 154.84 22.0296 154.515 21.8604C154.189 21.6911 153.928 21.4604 153.734 21.1685C153.539 20.8722 153.406 20.5379 153.334 20.1655C153.262 19.7889 153.247 19.3869 153.289 18.9595L153.353 18.3945C153.412 17.9544 153.516 17.5291 153.664 17.1187C153.812 16.7082 154.011 16.3421 154.261 16.0205C154.515 15.6947 154.826 15.4408 155.194 15.2588C155.562 15.0768 155.994 14.9901 156.489 14.9985C156.963 15.0112 157.346 15.117 157.638 15.3159C157.934 15.5106 158.156 15.7687 158.304 16.0903C158.456 16.4119 158.55 16.7695 158.583 17.1631C158.617 17.5524 158.609 17.946 158.558 18.3438L158.444 19.1562H153.969L154.191 17.9058L156.901 17.9121L156.933 17.7344C156.963 17.5566 156.973 17.3726 156.965 17.1821C156.956 16.9875 156.906 16.8245 156.812 16.6934C156.719 16.5579 156.559 16.4839 156.33 16.4712C156.08 16.4585 155.877 16.5156 155.721 16.6426C155.568 16.7653 155.45 16.9282 155.365 17.1313C155.281 17.3345 155.219 17.5482 155.181 17.7725C155.147 17.9925 155.12 18.1999 155.099 18.3945L155.029 18.9658C155.008 19.1562 154.999 19.3488 155.003 19.5435C155.008 19.7339 155.033 19.9116 155.079 20.0767C155.13 20.2417 155.219 20.3771 155.346 20.4829C155.477 20.5887 155.663 20.6437 155.905 20.6479C156.201 20.6564 156.474 20.6014 156.724 20.4829C156.977 20.3644 157.214 20.2121 157.434 20.0259L158.025 21.1113C157.847 21.3483 157.631 21.5451 157.377 21.7017C157.123 21.854 156.848 21.964 156.552 22.0317C156.26 22.0994 155.972 22.1312 155.689 22.127ZM162.236 16.7568L161.328 22H159.595L160.789 15.1318H162.426L162.236 16.7568ZM164.058 15.0747L163.823 16.8457C163.73 16.8245 163.634 16.8097 163.537 16.8013C163.444 16.7886 163.353 16.7822 163.264 16.7822C163.04 16.778 162.847 16.814 162.687 16.8901C162.53 16.9663 162.399 17.0742 162.293 17.2139C162.187 17.3493 162.098 17.5037 162.026 17.6772C161.959 17.8507 161.906 18.0306 161.868 18.2168L161.563 18.0898C161.597 17.8232 161.65 17.5122 161.722 17.1567C161.798 16.8013 161.906 16.4585 162.045 16.1284C162.189 15.7983 162.38 15.5254 162.617 15.3096C162.854 15.0938 163.152 14.9858 163.512 14.9858C163.609 14.9901 163.7 15.0007 163.785 15.0176C163.874 15.0345 163.965 15.0535 164.058 15.0747ZM167.063 16.7568L166.155 22H164.422L165.615 15.1318H167.253L167.063 16.7568ZM168.884 15.0747L168.65 16.8457C168.556 16.8245 168.461 16.8097 168.364 16.8013C168.271 16.7886 168.18 16.7822 168.091 16.7822C167.867 16.778 167.674 16.814 167.513 16.8901C167.357 16.9663 167.226 17.0742 167.12 17.2139C167.014 17.3493 166.925 17.5037 166.853 17.6772C166.785 17.8507 166.733 18.0306 166.694 18.2168L166.39 18.0898C166.424 17.8232 166.476 17.5122 166.548 17.1567C166.625 16.8013 166.733 16.4585 166.872 16.1284C167.016 15.7983 167.206 15.5254 167.443 15.3096C167.68 15.0938 167.979 14.9858 168.338 14.9858C168.436 14.9901 168.527 15.0007 168.611 15.0176C168.7 15.0345 168.791 15.0535 168.884 15.0747ZM172.283 20.4194L172.791 17.2329C172.803 17.1102 172.806 16.9854 172.797 16.8584C172.789 16.7314 172.753 16.6235 172.689 16.5347C172.63 16.4416 172.522 16.3929 172.365 16.3887C172.196 16.3844 172.061 16.4204 171.959 16.4966C171.858 16.5728 171.779 16.6722 171.724 16.7949C171.669 16.9176 171.629 17.0467 171.604 17.1821L169.864 17.1948C169.886 16.8478 169.972 16.5389 170.125 16.2681C170.281 15.993 170.482 15.7603 170.728 15.5698C170.973 15.3794 171.248 15.2355 171.553 15.1382C171.862 15.0409 172.181 14.9943 172.511 14.9985C172.968 15.007 173.356 15.1064 173.673 15.2969C173.99 15.4873 174.223 15.7497 174.371 16.084C174.519 16.4183 174.57 16.814 174.524 17.271L174.035 20.3369C173.997 20.5866 173.963 20.8468 173.933 21.1177C173.908 21.3843 173.938 21.6424 174.022 21.8921L174.016 22L172.321 22.0063C172.245 21.7482 172.211 21.4858 172.219 21.2192C172.228 20.9484 172.249 20.6818 172.283 20.4194ZM172.949 17.8042L172.772 18.8706L172.207 18.8643C172.042 18.8685 171.889 18.9002 171.75 18.9595C171.614 19.0145 171.492 19.0949 171.382 19.2007C171.276 19.3022 171.189 19.4207 171.121 19.5562C171.058 19.6873 171.018 19.8354 171.001 20.0005C170.984 20.1105 170.982 20.2227 170.994 20.3369C171.011 20.4469 171.051 20.54 171.115 20.6162C171.183 20.6924 171.284 20.7326 171.42 20.7368C171.568 20.7368 171.714 20.7072 171.858 20.6479C172.002 20.5845 172.122 20.4956 172.219 20.3813C172.317 20.2671 172.374 20.1338 172.391 19.9814L172.708 20.6924C172.636 20.8828 172.545 21.0669 172.435 21.2446C172.329 21.4181 172.203 21.5747 172.054 21.7144C171.911 21.8498 171.745 21.9556 171.559 22.0317C171.377 22.1079 171.17 22.1439 170.937 22.1396C170.569 22.1354 170.252 22.0402 169.985 21.854C169.723 21.6636 169.526 21.4181 169.395 21.1177C169.264 20.8172 169.206 20.4871 169.223 20.1274C169.24 19.7212 169.333 19.3721 169.503 19.0801C169.672 18.7839 169.89 18.5405 170.156 18.3501C170.427 18.1597 170.734 18.02 171.077 17.9312C171.424 17.8423 171.786 17.7979 172.162 17.7979L172.949 17.8042ZM179.166 12.25L177.471 22H175.732L177.421 12.25H179.166Z" fill="white"/>
</g>
<defs>
<filter id="filter0_d_123_136" x="0.963013" y="0" width="250.077" height="44.5535" filterUnits="userSpaceOnUse" color-interpolation-filters="sRGB">
<feFlood flood-opacity="0" result="BackgroundImageFix"/>
<feColorMatrix in="SourceAlpha" type="matrix" values="0 0 0 0 0 0 0 0 0 0 0 0 0 0 0 0 0 0 127 0" result="hardAlpha"/>
<feOffset dy="4"/>
<feGaussianBlur stdDeviation="2"/>
<feComposite in2="hardAlpha" operator="out"/>
<feColorMatrix type="matrix" values="0 0 0 0 0 0 0 0 0 0 0 0 0 0 0 0 0 0 0.25 0"/>
<feBlend mode="normal" in2="BackgroundImageFix" result="effect1_dropShadow_123_136"/>
<feBlend mode="normal" in="SourceGraphic" in2="effect1_dropShadow_123_136" result="shape"/>
</filter>
</defs>
</svg>
