<svg width="422" height="70" viewBox="0 0 422 70" fill="none" xmlns="http://www.w3.org/2000/svg">
<g filter="url(#filter0_d_123_121)">
<path d="M5.71846 7.62984C3.65848 4.29882 6.05444 0 9.97098 0H412.032C415.948 0 418.344 4.29776 416.285 7.62882L384.509 59.0386C383.598 60.5126 381.989 61.4098 380.256 61.4098H41.7639C40.0315 61.4098 38.4225 60.513 37.5114 59.0396L5.71846 7.62984Z" fill="#47689B"/>
<path d="M5.71846 7.62984C3.65848 4.29882 6.05444 0 9.97098 0H412.032C415.948 0 418.344 4.29776 416.285 7.62882L384.509 59.0386C383.598 60.5126 381.989 61.4098 380.256 61.4098H41.7639C40.0315 61.4098 38.4225 60.513 37.5114 59.0396L5.71846 7.62984Z" fill="#47689B"/>
<path d="M117.376 32.7609C117.405 32.5411 117.398 32.3507 117.354 32.1896C117.315 32.0284 117.242 31.8868 117.134 31.7648C117.032 31.6378 116.905 31.5255 116.753 31.4279C116.602 31.3253 116.431 31.2301 116.241 31.1422C115.889 30.9713 115.562 30.7833 115.259 30.5782C114.956 30.3732 114.688 30.1412 114.453 29.8824C114.224 29.6237 114.051 29.3282 113.933 28.9962C113.816 28.6593 113.772 28.2809 113.802 27.861C113.836 27.3824 113.958 26.9528 114.168 26.5719C114.378 26.191 114.651 25.8688 114.988 25.6051C115.325 25.3365 115.703 25.1364 116.123 25.0045C116.543 24.8678 116.983 24.8043 117.442 24.8141C118.086 24.8287 118.623 24.985 119.053 25.2828C119.488 25.5758 119.81 25.9689 120.02 26.462C120.235 26.9503 120.332 27.4996 120.313 28.11L118.225 28.1027C118.24 27.8683 118.225 27.6315 118.182 27.3922C118.142 27.153 118.05 26.9576 117.903 26.8063C117.762 26.65 117.544 26.5695 117.251 26.5646C116.993 26.5646 116.766 26.6232 116.57 26.7404C116.375 26.8527 116.216 27.0065 116.094 27.2018C115.972 27.3971 115.894 27.6168 115.86 27.861C115.835 28.0514 115.855 28.2223 115.918 28.3737C115.987 28.525 116.079 28.6617 116.197 28.7838C116.319 28.901 116.455 29.0084 116.607 29.1061C116.758 29.2037 116.91 29.2843 117.061 29.3478C117.427 29.5284 117.764 29.7238 118.072 29.9337C118.384 30.1388 118.648 30.3756 118.863 30.6442C119.082 30.9078 119.241 31.213 119.339 31.5597C119.441 31.9064 119.478 32.3019 119.449 32.7462C119.41 33.2394 119.29 33.674 119.09 34.0499C118.894 34.4259 118.636 34.7457 118.313 35.0094C117.991 35.2682 117.622 35.4635 117.207 35.5953C116.792 35.7272 116.348 35.7882 115.874 35.7784C115.367 35.7638 114.912 35.6686 114.512 35.4928C114.112 35.3121 113.775 35.0656 113.501 34.7531C113.233 34.4357 113.033 34.0646 112.901 33.6398C112.769 33.2101 112.718 32.7487 112.747 32.2555L114.834 32.2628C114.82 32.4923 114.822 32.7145 114.842 32.9293C114.861 33.1442 114.915 33.3322 115.003 33.4933C115.091 33.6544 115.218 33.7838 115.384 33.8815C115.55 33.9791 115.769 34.028 116.043 34.028C116.302 34.028 116.524 33.9742 116.709 33.8668C116.895 33.7545 117.044 33.6031 117.156 33.4127C117.268 33.2223 117.342 33.005 117.376 32.7609ZM121.414 31.9332L121.48 31.4059C121.534 30.9078 121.649 30.4269 121.825 29.963C122.005 29.4991 122.245 29.0817 122.542 28.7106C122.845 28.3395 123.209 28.0514 123.634 27.8463C124.063 27.6364 124.557 27.5387 125.113 27.5533C125.66 27.5631 126.109 27.6803 126.461 27.9049C126.817 28.1295 127.096 28.4274 127.296 28.7985C127.496 29.1647 127.625 29.5748 127.684 30.0289C127.747 30.4781 127.755 30.9347 127.706 31.3986L127.647 31.9259C127.584 32.4288 127.464 32.9122 127.288 33.3761C127.113 33.84 126.873 34.255 126.571 34.6212C126.273 34.9874 125.909 35.2755 125.479 35.4855C125.055 35.6906 124.564 35.7858 124.007 35.7711C123.465 35.7614 123.016 35.6442 122.66 35.4196C122.308 35.1949 122.032 34.8995 121.832 34.5333C121.632 34.1671 121.5 33.7594 121.436 33.3102C121.373 32.8561 121.366 32.3971 121.414 31.9332ZM123.495 31.3986L123.436 31.9479C123.421 32.1041 123.407 32.2994 123.392 32.5338C123.377 32.7633 123.387 32.9952 123.421 33.2296C123.455 33.464 123.531 33.6617 123.648 33.8229C123.766 33.9791 123.946 34.0621 124.19 34.0719C124.464 34.0914 124.691 34.0304 124.871 33.8888C125.057 33.7423 125.201 33.5543 125.304 33.3248C125.406 33.0953 125.484 32.8561 125.538 32.6071C125.592 32.3531 125.631 32.1237 125.655 31.9186L125.706 31.3839C125.716 31.2325 125.726 31.0397 125.736 30.8053C125.75 30.566 125.741 30.3317 125.706 30.1022C125.672 29.8678 125.594 29.67 125.472 29.5089C125.355 29.3478 125.177 29.2599 124.937 29.2452C124.669 29.2306 124.447 29.2965 124.271 29.443C124.1 29.5895 123.961 29.7775 123.853 30.007C123.746 30.2316 123.665 30.4708 123.612 30.7247C123.558 30.9786 123.519 31.2032 123.495 31.3986ZM133.034 24.3746L131.078 35.6246H129.071L131.019 24.3746H133.034ZM137.453 33.6105L138.478 27.6998H140.485L139.108 35.6246H137.233L137.453 33.6105ZM137.9 32.0577L138.383 32.0358C138.344 32.4362 138.271 32.8561 138.163 33.2955C138.061 33.735 137.907 34.1451 137.702 34.526C137.502 34.9069 137.233 35.2145 136.896 35.4489C136.559 35.6832 136.142 35.7931 135.644 35.7784C135.239 35.7687 134.909 35.6759 134.655 35.5001C134.406 35.3195 134.218 35.0851 134.091 34.797C133.964 34.5089 133.884 34.194 133.849 33.8522C133.82 33.5055 133.823 33.1613 133.857 32.8195L134.714 27.6998H136.721L135.871 32.8488C135.861 32.9611 135.854 33.0856 135.849 33.2223C135.849 33.3541 135.861 33.4835 135.886 33.6105C135.915 33.7374 135.966 33.8424 136.039 33.9254C136.118 34.0084 136.237 34.0499 136.398 34.0499C136.769 34.0743 137.057 33.9816 137.263 33.7716C137.468 33.5568 137.614 33.2906 137.702 32.9733C137.795 32.6559 137.861 32.3507 137.9 32.0577ZM146.047 27.6998L145.769 29.2452H141.836L142.114 27.6998H146.047ZM143.359 25.7443H145.351L144.077 33.2223C144.062 33.3541 144.055 33.4786 144.055 33.5958C144.055 33.713 144.082 33.8107 144.136 33.8888C144.194 33.9669 144.302 34.0084 144.458 34.0133C144.541 34.0133 144.621 34.0084 144.7 33.9987C144.783 33.9889 144.866 33.9767 144.949 33.962L144.787 35.5807C144.617 35.6442 144.443 35.6906 144.267 35.7198C144.092 35.7491 143.911 35.7614 143.725 35.7565C143.271 35.7516 142.917 35.6393 142.663 35.4196C142.41 35.1949 142.236 34.9093 142.143 34.5626C142.051 34.2111 142.024 33.8326 142.063 33.4274L143.359 25.7443ZM149.998 27.6998L148.621 35.6246H146.614L147.991 27.6998H149.998ZM148.255 25.6857C148.25 25.3683 148.35 25.0997 148.555 24.88C148.76 24.6603 149.026 24.548 149.353 24.5431C149.661 24.5382 149.917 24.6359 150.122 24.8361C150.328 25.0363 150.428 25.2926 150.423 25.6051C150.432 25.9225 150.335 26.191 150.13 26.4108C149.93 26.6305 149.666 26.7428 149.339 26.7477C149.031 26.7574 148.775 26.6622 148.57 26.462C148.365 26.257 148.26 25.9982 148.255 25.6857ZM151.356 31.9332L151.422 31.4059C151.475 30.9078 151.59 30.4269 151.766 29.963C151.947 29.4991 152.186 29.0817 152.484 28.7106C152.786 28.3395 153.15 28.0514 153.575 27.8463C154.005 27.6364 154.498 27.5387 155.055 27.5533C155.601 27.5631 156.051 27.6803 156.402 27.9049C156.759 28.1295 157.037 28.4274 157.237 28.7985C157.437 29.1647 157.567 29.5748 157.625 30.0289C157.689 30.4781 157.696 30.9347 157.647 31.3986L157.589 31.9259C157.525 32.4288 157.406 32.9122 157.23 33.3761C157.054 33.84 156.815 34.255 156.512 34.6212C156.214 34.9874 155.85 35.2755 155.421 35.4855C154.996 35.6906 154.505 35.7858 153.949 35.7711C153.407 35.7614 152.957 35.6442 152.601 35.4196C152.249 35.1949 151.974 34.8995 151.773 34.5333C151.573 34.1671 151.441 33.7594 151.378 33.3102C151.314 32.8561 151.307 32.3971 151.356 31.9332ZM153.436 31.3986L153.377 31.9479C153.363 32.1041 153.348 32.2994 153.333 32.5338C153.319 32.7633 153.328 32.9952 153.363 33.2296C153.397 33.464 153.473 33.6617 153.59 33.8229C153.707 33.9791 153.888 34.0621 154.132 34.0719C154.405 34.0914 154.632 34.0304 154.813 33.8888C154.998 33.7423 155.142 33.5543 155.245 33.3248C155.348 33.0953 155.426 32.8561 155.479 32.6071C155.533 32.3531 155.572 32.1237 155.597 31.9186L155.648 31.3839C155.658 31.2325 155.667 31.0397 155.677 30.8053C155.692 30.566 155.682 30.3317 155.648 30.1022C155.614 29.8678 155.536 29.67 155.413 29.5089C155.296 29.3478 155.118 29.2599 154.879 29.2452C154.61 29.2306 154.388 29.2965 154.212 29.443C154.041 29.5895 153.902 29.7775 153.795 30.007C153.687 30.2316 153.607 30.4708 153.553 30.7247C153.499 30.9786 153.46 31.2032 153.436 31.3986ZM161.95 29.5016L160.888 35.6246H158.866L160.243 27.6998H162.133L161.95 29.5016ZM161.327 31.3912L160.866 31.4205C160.9 31.0006 160.978 30.5636 161.1 30.1095C161.222 29.6505 161.398 29.2233 161.627 28.8278C161.862 28.4323 162.157 28.1173 162.514 27.8829C162.87 27.6437 163.307 27.5314 163.825 27.546C164.235 27.5607 164.557 27.6632 164.791 27.8536C165.031 28.0441 165.204 28.2931 165.311 28.6007C165.424 28.9034 165.487 29.2281 165.502 29.5748C165.516 29.9166 165.507 30.2535 165.473 30.5856L164.63 35.6246H162.631L163.466 30.5636C163.485 30.3634 163.49 30.1656 163.48 29.9703C163.475 29.7701 163.424 29.6017 163.327 29.465C163.234 29.3282 163.06 29.2599 162.807 29.2599C162.543 29.2452 162.323 29.3112 162.147 29.4576C161.972 29.6041 161.828 29.7921 161.715 30.0216C161.608 30.2462 161.522 30.4806 161.459 30.7247C161.4 30.9689 161.356 31.191 161.327 31.3912ZM174.224 35.7711C173.696 35.7614 173.245 35.6588 172.869 35.4635C172.493 35.2682 172.192 35.0021 171.968 34.6652C171.743 34.3234 171.589 33.9376 171.506 33.5079C171.423 33.0734 171.406 32.6095 171.455 32.1163L171.528 31.4645C171.597 30.9567 171.716 30.4659 171.887 29.9923C172.058 29.5187 172.287 29.0963 172.576 28.7252C172.869 28.3492 173.227 28.0563 173.652 27.8463C174.077 27.6364 174.575 27.5363 175.146 27.546C175.693 27.5607 176.135 27.6827 176.472 27.9122C176.814 28.1368 177.07 28.4347 177.241 28.8058C177.417 29.1769 177.524 29.5895 177.563 30.0436C177.602 30.4928 177.593 30.9469 177.534 31.4059L177.402 32.3434H172.239L172.495 30.9005L175.622 30.9078L175.659 30.7028C175.693 30.4977 175.705 30.2853 175.696 30.0656C175.686 29.8409 175.627 29.653 175.52 29.5016C175.412 29.3453 175.227 29.2599 174.963 29.2452C174.675 29.2306 174.441 29.2965 174.26 29.443C174.084 29.5846 173.948 29.7726 173.85 30.007C173.752 30.2413 173.682 30.4879 173.638 30.7467C173.599 31.0006 173.567 31.2399 173.542 31.4645L173.462 32.1237C173.437 32.3434 173.428 32.5656 173.432 32.7902C173.437 33.0099 173.467 33.215 173.52 33.4054C173.579 33.5958 173.682 33.7521 173.828 33.8741C173.979 33.9962 174.194 34.0597 174.473 34.0646C174.814 34.0743 175.129 34.0109 175.417 33.8741C175.71 33.7374 175.984 33.5616 176.238 33.3468L176.919 34.5992C176.714 34.8727 176.465 35.0997 176.172 35.2804C175.879 35.4562 175.561 35.5831 175.22 35.6613C174.883 35.7394 174.551 35.776 174.224 35.7711ZM181.712 27.6998L182.21 30.0436L183.477 27.6998H185.674L183.265 31.6696L184.436 35.6246H182.378L181.822 33.1417L180.481 35.6246H178.262L180.782 31.4791L179.654 27.6998H181.712ZM189.149 29.3331L187.53 38.6715H185.531L187.435 27.6998H189.273L189.149 29.3331ZM192.774 31.3912L192.716 31.9113C192.657 32.3361 192.567 32.7755 192.445 33.2296C192.328 33.6837 192.154 34.1085 191.925 34.504C191.7 34.8947 191.407 35.2096 191.046 35.4489C190.684 35.6832 190.24 35.7906 189.713 35.7711C189.278 35.7565 188.929 35.6222 188.665 35.3683C188.402 35.1144 188.204 34.7994 188.072 34.4235C187.94 34.0475 187.855 33.652 187.816 33.2369C187.782 32.8219 187.772 32.4459 187.786 32.109L187.896 31.296C187.965 30.92 188.065 30.5148 188.197 30.0802C188.333 29.6456 188.514 29.2355 188.739 28.8497C188.968 28.4591 189.251 28.1417 189.588 27.8976C189.925 27.6486 190.326 27.5314 190.789 27.546C191.307 27.5558 191.71 27.6852 191.998 27.9342C192.291 28.1832 192.498 28.5006 192.62 28.8864C192.747 29.2721 192.813 29.6871 192.818 30.1315C192.828 30.5758 192.813 30.9957 192.774 31.3912ZM190.702 31.9186L190.76 31.3766C190.775 31.2106 190.792 31.0104 190.811 30.776C190.831 30.5416 190.828 30.3097 190.804 30.0802C190.78 29.8458 190.709 29.653 190.592 29.5016C190.479 29.3453 190.296 29.2623 190.042 29.2526C189.808 29.2428 189.603 29.2892 189.427 29.3917C189.256 29.4943 189.117 29.6334 189.01 29.8092C188.902 29.9801 188.814 30.1705 188.746 30.3805C188.682 30.5856 188.636 30.7833 188.607 30.9738L188.409 32.4386C188.39 32.673 188.392 32.9147 188.416 33.1637C188.446 33.4078 188.524 33.6178 188.651 33.7936C188.778 33.9694 188.99 34.0646 189.288 34.0792C189.566 34.089 189.793 34.0231 189.969 33.8815C190.15 33.7399 190.289 33.5568 190.387 33.3322C190.484 33.1075 190.555 32.8683 190.599 32.6144C190.643 32.3605 190.677 32.1285 190.702 31.9186ZM198.073 24.3746L196.117 35.6246H194.11L196.058 24.3746H198.073ZM198.852 31.9332L198.918 31.4059C198.972 30.9078 199.086 30.4269 199.262 29.963C199.443 29.4991 199.682 29.0817 199.98 28.7106C200.283 28.3395 200.646 28.0514 201.071 27.8463C201.501 27.6364 201.994 27.5387 202.551 27.5533C203.098 27.5631 203.547 27.6803 203.898 27.9049C204.255 28.1295 204.533 28.4274 204.733 28.7985C204.933 29.1647 205.063 29.5748 205.121 30.0289C205.185 30.4781 205.192 30.9347 205.143 31.3986L205.085 31.9259C205.021 32.4288 204.902 32.9122 204.726 33.3761C204.55 33.84 204.311 34.255 204.008 34.6212C203.71 34.9874 203.347 35.2755 202.917 35.4855C202.492 35.6906 202.001 35.7858 201.445 35.7711C200.903 35.7614 200.453 35.6442 200.097 35.4196C199.745 35.1949 199.47 34.8995 199.269 34.5333C199.069 34.1671 198.937 33.7594 198.874 33.3102C198.81 32.8561 198.803 32.3971 198.852 31.9332ZM200.932 31.3986L200.873 31.9479C200.859 32.1041 200.844 32.2994 200.829 32.5338C200.815 32.7633 200.825 32.9952 200.859 33.2296C200.893 33.464 200.969 33.6617 201.086 33.8229C201.203 33.9791 201.384 34.0621 201.628 34.0719C201.901 34.0914 202.128 34.0304 202.309 33.8888C202.495 33.7423 202.639 33.5543 202.741 33.3248C202.844 33.0953 202.922 32.8561 202.975 32.6071C203.029 32.3531 203.068 32.1237 203.093 31.9186L203.144 31.3839C203.154 31.2325 203.163 31.0397 203.173 30.8053C203.188 30.566 203.178 30.3317 203.144 30.1022C203.11 29.8678 203.032 29.67 202.91 29.5089C202.792 29.3478 202.614 29.2599 202.375 29.2452C202.106 29.2306 201.884 29.2965 201.708 29.443C201.537 29.5895 201.398 29.7775 201.291 30.007C201.183 30.2316 201.103 30.4708 201.049 30.7247C200.995 30.9786 200.956 31.2032 200.932 31.3986ZM209.46 29.5748L208.413 35.6246H206.413L207.79 27.6998H209.68L209.46 29.5748ZM211.562 27.6339L211.291 29.6774C211.184 29.653 211.074 29.6359 210.962 29.6261C210.854 29.6115 210.749 29.6041 210.647 29.6041C210.388 29.5992 210.166 29.6407 209.98 29.7286C209.8 29.8165 209.648 29.941 209.526 30.1022C209.404 30.2584 209.302 30.4366 209.219 30.6368C209.141 30.837 209.079 31.0446 209.036 31.2594L208.684 31.1129C208.723 30.8053 208.784 30.4464 208.867 30.0363C208.955 29.6261 209.079 29.2306 209.241 28.8497C209.407 28.4689 209.626 28.1539 209.9 27.9049C210.173 27.6559 210.517 27.5314 210.932 27.5314C211.045 27.5363 211.15 27.5485 211.247 27.568C211.35 27.5875 211.455 27.6095 211.562 27.6339ZM215.484 33.8009L216.07 30.1241C216.084 29.9825 216.087 29.8385 216.077 29.692C216.067 29.5455 216.026 29.421 215.953 29.3185C215.884 29.2111 215.76 29.1549 215.579 29.15C215.384 29.1451 215.227 29.1866 215.11 29.2745C214.993 29.3624 214.903 29.4772 214.839 29.6188C214.776 29.7604 214.729 29.9093 214.7 30.0656L212.693 30.0802C212.718 29.6798 212.818 29.3234 212.994 29.0109C213.174 28.6935 213.406 28.4249 213.689 28.2052C213.973 27.9855 214.29 27.8195 214.641 27.7072C214.998 27.5948 215.367 27.5411 215.747 27.546C216.275 27.5558 216.722 27.6705 217.088 27.8903C217.454 28.11 217.723 28.4127 217.893 28.7985C218.064 29.1842 218.123 29.6407 218.069 30.1681L217.505 33.7057C217.461 33.9938 217.422 34.2941 217.388 34.6066C217.359 34.9142 217.393 35.212 217.491 35.5001L217.483 35.6246L215.528 35.632C215.44 35.3341 215.401 35.0314 215.411 34.7238C215.42 34.4113 215.445 34.1036 215.484 33.8009ZM216.253 30.7833L216.048 32.0138L215.396 32.0065C215.205 32.0114 215.03 32.048 214.869 32.1163C214.712 32.1798 214.571 32.2726 214.444 32.3947C214.322 32.5118 214.222 32.6486 214.143 32.8048C214.07 32.9562 214.024 33.1271 214.004 33.3175C213.985 33.4445 213.982 33.5739 213.997 33.7057C214.016 33.8326 214.063 33.9401 214.136 34.028C214.214 34.1158 214.331 34.1622 214.488 34.1671C214.659 34.1671 214.827 34.1329 214.993 34.0646C215.159 33.9913 215.298 33.8888 215.411 33.757C215.523 33.6251 215.589 33.4713 215.608 33.2955L215.974 34.1158C215.891 34.3356 215.786 34.548 215.66 34.7531C215.537 34.9532 215.391 35.1339 215.22 35.295C215.054 35.4513 214.864 35.5734 214.649 35.6613C214.439 35.7491 214.2 35.7906 213.931 35.7858C213.506 35.7809 213.14 35.671 212.832 35.4562C212.53 35.2365 212.303 34.9532 212.151 34.6066C212 34.2599 211.934 33.879 211.953 33.464C211.973 32.9952 212.08 32.5924 212.276 32.2555C212.471 31.9137 212.723 31.6329 213.03 31.4132C213.343 31.1935 213.697 31.0323 214.092 30.9298C214.493 30.8273 214.91 30.776 215.345 30.776L216.253 30.7833ZM224.115 27.6998L223.836 29.2452H219.903L220.182 27.6998H224.115ZM221.427 25.7443H223.419L222.144 33.2223C222.13 33.3541 222.122 33.4786 222.122 33.5958C222.122 33.713 222.149 33.8107 222.203 33.8888C222.262 33.9669 222.369 34.0084 222.525 34.0133C222.608 34.0133 222.689 34.0084 222.767 33.9987C222.85 33.9889 222.933 33.9767 223.016 33.962L222.855 35.5807C222.684 35.6442 222.511 35.6906 222.335 35.7198C222.159 35.7491 221.978 35.7614 221.793 35.7565C221.339 35.7516 220.985 35.6393 220.731 35.4196C220.477 35.1949 220.304 34.9093 220.211 34.5626C220.118 34.2111 220.091 33.8326 220.13 33.4274L221.427 25.7443ZM228.065 27.6998L226.688 35.6246H224.682L226.058 27.6998H228.065ZM226.322 25.6857C226.317 25.3683 226.417 25.0997 226.622 24.88C226.828 24.6603 227.094 24.548 227.421 24.5431C227.728 24.5382 227.985 24.6359 228.19 24.8361C228.395 25.0363 228.495 25.2926 228.49 25.6051C228.5 25.9225 228.402 26.191 228.197 26.4108C227.997 26.6305 227.733 26.7428 227.406 26.7477C227.099 26.7574 226.842 26.6622 226.637 26.462C226.432 26.257 226.327 25.9982 226.322 25.6857ZM229.423 31.9332L229.489 31.4059C229.543 30.9078 229.658 30.4269 229.833 29.963C230.014 29.4991 230.253 29.0817 230.551 28.7106C230.854 28.3395 231.218 28.0514 231.642 27.8463C232.072 27.6364 232.565 27.5387 233.122 27.5533C233.669 27.5631 234.118 27.6803 234.47 27.9049C234.826 28.1295 235.104 28.4274 235.305 28.7985C235.505 29.1647 235.634 29.5748 235.693 30.0289C235.756 30.4781 235.764 30.9347 235.715 31.3986L235.656 31.9259C235.593 32.4288 235.473 32.9122 235.297 33.3761C235.121 33.84 234.882 34.255 234.579 34.6212C234.282 34.9874 233.918 35.2755 233.488 35.4855C233.063 35.6906 232.573 35.7858 232.016 35.7711C231.474 35.7614 231.025 35.6442 230.668 35.4196C230.317 35.1949 230.041 34.8995 229.841 34.5333C229.641 34.1671 229.509 33.7594 229.445 33.3102C229.382 32.8561 229.374 32.3971 229.423 31.9332ZM231.503 31.3986L231.445 31.9479C231.43 32.1041 231.415 32.2994 231.401 32.5338C231.386 32.7633 231.396 32.9952 231.43 33.2296C231.464 33.464 231.54 33.6617 231.657 33.8229C231.774 33.9791 231.955 34.0621 232.199 34.0719C232.473 34.0914 232.7 34.0304 232.88 33.8888C233.066 33.7423 233.21 33.5543 233.312 33.3248C233.415 33.0953 233.493 32.8561 233.547 32.6071C233.6 32.3531 233.64 32.1237 233.664 31.9186L233.715 31.3839C233.725 31.2325 233.735 31.0397 233.745 30.8053C233.759 30.566 233.749 30.3317 233.715 30.1022C233.681 29.8678 233.603 29.67 233.481 29.5089C233.364 29.3478 233.185 29.2599 232.946 29.2452C232.678 29.2306 232.455 29.2965 232.28 29.443C232.109 29.5895 231.97 29.7775 231.862 30.007C231.755 30.2316 231.674 30.4708 231.62 30.7247C231.567 30.9786 231.528 31.2032 231.503 31.3986ZM240.017 29.5016L238.955 35.6246H236.933L238.31 27.6998H240.2L240.017 29.5016ZM239.394 31.3912L238.933 31.4205C238.967 31.0006 239.045 30.5636 239.167 30.1095C239.289 29.6505 239.465 29.2233 239.695 28.8278C239.929 28.4323 240.224 28.1173 240.581 27.8829C240.937 27.6437 241.374 27.5314 241.892 27.546C242.302 27.5607 242.624 27.6632 242.859 27.8536C243.098 28.0441 243.271 28.2931 243.379 28.6007C243.491 28.9034 243.555 29.2281 243.569 29.5748C243.584 29.9166 243.574 30.2535 243.54 30.5856L242.698 35.6246H240.698L241.533 30.5636C241.553 30.3634 241.557 30.1656 241.548 29.9703C241.543 29.7701 241.492 29.6017 241.394 29.465C241.301 29.3282 241.128 29.2599 240.874 29.2599C240.61 29.2452 240.391 29.3112 240.215 29.4576C240.039 29.6041 239.895 29.7921 239.783 30.0216C239.675 30.2462 239.59 30.4806 239.526 30.7247C239.468 30.9689 239.424 31.191 239.394 31.3912ZM250.625 24.9606L245.498 36.5402H243.968L249.109 24.9606H250.625ZM252.43 24.9606L255.653 24.9679C256.292 24.9874 256.829 25.1266 257.264 25.3854C257.703 25.6393 258.028 26.0006 258.238 26.4694C258.453 26.9332 258.534 27.485 258.48 28.1246C258.436 28.6569 258.321 29.1232 258.136 29.5236C257.955 29.9191 257.701 30.2657 257.374 30.5636C257.047 30.8566 256.646 31.1129 256.173 31.3326L255.462 31.7135H252.664L252.972 29.9337L254.745 29.9484C255.072 29.9435 255.35 29.8678 255.579 29.7213C255.809 29.5748 255.99 29.3771 256.121 29.1281C256.258 28.879 256.346 28.6031 256.385 28.3004C256.414 28.0709 256.417 27.839 256.392 27.6046C256.373 27.3702 256.3 27.1725 256.173 27.0114C256.046 26.8502 255.843 26.7623 255.565 26.7477L254.224 26.7404L252.686 35.6246H250.592L252.43 24.9606ZM255.33 35.6246L254.254 30.8712L256.363 30.8639L257.564 35.5074V35.6246H255.33ZM262.504 35.7711C261.976 35.7614 261.525 35.6588 261.149 35.4635C260.773 35.2682 260.473 35.0021 260.248 34.6652C260.023 34.3234 259.87 33.9376 259.786 33.5079C259.703 33.0734 259.686 32.6095 259.735 32.1163L259.808 31.4645C259.877 30.9567 259.996 30.4659 260.167 29.9923C260.338 29.5187 260.568 29.0963 260.856 28.7252C261.149 28.3492 261.508 28.0563 261.932 27.8463C262.357 27.6364 262.855 27.5363 263.427 27.546C263.974 27.5607 264.415 27.6827 264.752 27.9122C265.094 28.1368 265.35 28.4347 265.521 28.8058C265.697 29.1769 265.805 29.5895 265.844 30.0436C265.883 30.4928 265.873 30.9469 265.814 31.4059L265.682 32.3434H260.519L260.775 30.9005L263.903 30.9078L263.939 30.7028C263.974 30.4977 263.986 30.2853 263.976 30.0656C263.966 29.8409 263.908 29.653 263.8 29.5016C263.693 29.3453 263.507 29.2599 263.244 29.2452C262.955 29.2306 262.721 29.2965 262.54 29.443C262.365 29.5846 262.228 29.7726 262.13 30.007C262.033 30.2413 261.962 30.4879 261.918 30.7467C261.879 31.0006 261.847 31.2399 261.823 31.4645L261.742 32.1237C261.718 32.3434 261.708 32.5656 261.713 32.7902C261.718 33.0099 261.747 33.215 261.801 33.4054C261.859 33.5958 261.962 33.7521 262.108 33.8741C262.26 33.9962 262.474 34.0597 262.753 34.0646C263.095 34.0743 263.41 34.0109 263.698 33.8741C263.991 33.7374 264.264 33.5616 264.518 33.3468L265.199 34.5992C264.994 34.8727 264.745 35.0997 264.452 35.2804C264.159 35.4562 263.842 35.5831 263.5 35.6613C263.163 35.7394 262.831 35.776 262.504 35.7711ZM270.827 33.4493C270.856 33.254 270.807 33.0929 270.681 32.9659C270.554 32.8341 270.4 32.7218 270.219 32.629C270.043 32.5363 269.887 32.4581 269.75 32.3947C269.492 32.2628 269.247 32.1237 269.018 31.9772C268.788 31.8307 268.586 31.6647 268.41 31.4791C268.239 31.2936 268.107 31.0787 268.015 30.8346C267.922 30.5905 267.885 30.3121 267.905 29.9996C267.924 29.609 268.017 29.2623 268.183 28.9596C268.349 28.6569 268.566 28.4005 268.835 28.1906C269.103 27.9806 269.406 27.8195 269.743 27.7072C270.085 27.5948 270.439 27.5411 270.805 27.546C271.303 27.5558 271.745 27.6608 272.131 27.861C272.516 28.0612 272.814 28.3468 273.024 28.7179C273.239 29.089 273.344 29.5284 273.339 30.0363H271.34C271.345 29.88 271.335 29.7286 271.31 29.5822C271.291 29.4308 271.232 29.3063 271.135 29.2086C271.042 29.111 270.895 29.0646 270.695 29.0695C270.539 29.0743 270.397 29.1134 270.27 29.1866C270.148 29.2599 270.046 29.36 269.963 29.4869C269.88 29.609 269.821 29.7433 269.787 29.8898C269.763 30.0314 269.785 30.1559 269.853 30.2633C269.921 30.3658 270.014 30.4562 270.131 30.5343C270.248 30.6124 270.373 30.6832 270.505 30.7467C270.637 30.8053 270.749 30.8541 270.842 30.8932C271.208 31.0641 271.54 31.2545 271.838 31.4645C272.141 31.6744 272.375 31.9308 272.541 32.2335C272.707 32.5314 272.775 32.9049 272.746 33.3541C272.726 33.7594 272.626 34.1158 272.446 34.4235C272.265 34.7262 272.031 34.9801 271.743 35.1852C271.454 35.3854 271.135 35.5343 270.783 35.632C270.432 35.7345 270.07 35.7809 269.699 35.7711C269.186 35.7565 268.732 35.6393 268.337 35.4196C267.946 35.1998 267.641 34.8971 267.421 34.5114C267.202 34.1256 267.094 33.6788 267.099 33.171L268.996 33.1783C268.996 33.3737 269.016 33.5543 269.055 33.7203C269.094 33.8864 269.174 34.0157 269.296 34.1085C269.423 34.2013 269.599 34.2477 269.824 34.2477C269.995 34.2477 270.151 34.2184 270.292 34.1598C270.434 34.1012 270.551 34.0133 270.644 33.8961C270.737 33.774 270.798 33.6251 270.827 33.4493ZM277.583 35.7711C277.056 35.7614 276.604 35.6588 276.228 35.4635C275.852 35.2682 275.552 35.0021 275.327 34.6652C275.102 34.3234 274.949 33.9376 274.866 33.5079C274.783 33.0734 274.766 32.6095 274.814 32.1163L274.888 31.4645C274.956 30.9567 275.076 30.4659 275.246 29.9923C275.417 29.5187 275.647 29.0963 275.935 28.7252C276.228 28.3492 276.587 28.0563 277.012 27.8463C277.436 27.6364 277.934 27.5363 278.506 27.546C279.053 27.5607 279.495 27.6827 279.831 27.9122C280.173 28.1368 280.43 28.4347 280.6 28.8058C280.776 29.1769 280.884 29.5895 280.923 30.0436C280.962 30.4928 280.952 30.9469 280.893 31.4059L280.762 32.3434H275.598L275.854 30.9005L278.982 30.9078L279.018 30.7028C279.053 30.4977 279.065 30.2853 279.055 30.0656C279.045 29.8409 278.987 29.653 278.879 29.5016C278.772 29.3453 278.586 29.2599 278.323 29.2452C278.035 29.2306 277.8 29.2965 277.62 29.443C277.444 29.5846 277.307 29.7726 277.209 30.007C277.112 30.2413 277.041 30.4879 276.997 30.7467C276.958 31.0006 276.926 31.2399 276.902 31.4645L276.821 32.1237C276.797 32.3434 276.787 32.5656 276.792 32.7902C276.797 33.0099 276.826 33.215 276.88 33.4054C276.938 33.5958 277.041 33.7521 277.187 33.8741C277.339 33.9962 277.554 34.0597 277.832 34.0646C278.174 34.0743 278.489 34.0109 278.777 33.8741C279.07 33.7374 279.343 33.5616 279.597 33.3468L280.278 34.5992C280.073 34.8727 279.824 35.0997 279.531 35.2804C279.238 35.4562 278.921 35.5831 278.579 35.6613C278.242 35.7394 277.91 35.776 277.583 35.7711ZM285.811 33.8009L286.397 30.1241C286.411 29.9825 286.414 29.8385 286.404 29.692C286.394 29.5455 286.353 29.421 286.28 29.3185C286.211 29.2111 286.087 29.1549 285.906 29.15C285.711 29.1451 285.555 29.1866 285.437 29.2745C285.32 29.3624 285.23 29.4772 285.166 29.6188C285.103 29.7604 285.057 29.9093 285.027 30.0656L283.02 30.0802C283.045 29.6798 283.145 29.3234 283.321 29.0109C283.501 28.6935 283.733 28.4249 284.016 28.2052C284.3 27.9855 284.617 27.8195 284.969 27.7072C285.325 27.5948 285.694 27.5411 286.075 27.546C286.602 27.5558 287.049 27.6705 287.415 27.8903C287.781 28.11 288.05 28.4127 288.221 28.7985C288.391 29.1842 288.45 29.6407 288.396 30.1681L287.832 33.7057C287.788 33.9938 287.749 34.2941 287.715 34.6066C287.686 34.9142 287.72 35.212 287.818 35.5001L287.81 35.6246L285.855 35.632C285.767 35.3341 285.728 35.0314 285.738 34.7238C285.747 34.4113 285.772 34.1036 285.811 33.8009ZM286.58 30.7833L286.375 32.0138L285.723 32.0065C285.533 32.0114 285.357 32.048 285.196 32.1163C285.039 32.1798 284.898 32.2726 284.771 32.3947C284.649 32.5118 284.549 32.6486 284.471 32.8048C284.397 32.9562 284.351 33.1271 284.331 33.3175C284.312 33.4445 284.309 33.5739 284.324 33.7057C284.344 33.8326 284.39 33.9401 284.463 34.028C284.541 34.1158 284.659 34.1622 284.815 34.1671C284.986 34.1671 285.154 34.1329 285.32 34.0646C285.486 33.9913 285.625 33.8888 285.738 33.757C285.85 33.6251 285.916 33.4713 285.935 33.2955L286.302 34.1158C286.219 34.3356 286.114 34.548 285.987 34.7531C285.865 34.9532 285.718 35.1339 285.547 35.295C285.381 35.4513 285.191 35.5734 284.976 35.6613C284.766 35.7491 284.527 35.7906 284.258 35.7858C283.833 35.7809 283.467 35.671 283.16 35.4562C282.857 35.2365 282.63 34.9532 282.478 34.6066C282.327 34.2599 282.261 33.879 282.281 33.464C282.3 32.9952 282.408 32.5924 282.603 32.2555C282.798 31.9137 283.05 31.6329 283.357 31.4132C283.67 31.1935 284.024 31.0323 284.419 30.9298C284.82 30.8273 285.237 30.776 285.672 30.776L286.58 30.7833ZM292.743 29.5748L291.695 35.6246H289.696L291.073 27.6998H292.962L292.743 29.5748ZM294.845 27.6339L294.574 29.6774C294.466 29.653 294.356 29.6359 294.244 29.6261C294.137 29.6115 294.032 29.6041 293.929 29.6041C293.67 29.5992 293.448 29.6407 293.263 29.7286C293.082 29.8165 292.931 29.941 292.808 30.1022C292.686 30.2584 292.584 30.4366 292.501 30.6368C292.423 30.837 292.362 31.0446 292.318 31.2594L291.966 31.1129C292.005 30.8053 292.066 30.4464 292.149 30.0363C292.237 29.6261 292.362 29.2306 292.523 28.8497C292.689 28.4689 292.909 28.1539 293.182 27.9049C293.455 27.6559 293.8 27.5314 294.215 27.5314C294.327 27.5363 294.432 27.5485 294.53 27.568C294.632 27.5875 294.737 27.6095 294.845 27.6339ZM298.195 34.0792C298.429 34.0841 298.617 34.0304 298.759 33.9181C298.9 33.8009 299.008 33.6495 299.081 33.464C299.154 33.2784 299.205 33.0905 299.235 32.9L301.11 32.8927C301.066 33.4347 300.912 33.9279 300.648 34.3722C300.385 34.8116 300.031 35.1583 299.586 35.4122C299.147 35.6661 298.644 35.7882 298.078 35.7784C297.521 35.7638 297.064 35.649 296.708 35.4342C296.356 35.2145 296.085 34.924 295.895 34.5626C295.709 34.1964 295.59 33.7911 295.536 33.3468C295.487 32.8976 295.49 32.4337 295.543 31.9552L295.609 31.3766C295.678 30.8737 295.792 30.3903 295.953 29.9264C296.12 29.4576 296.344 29.0426 296.627 28.6813C296.915 28.3199 297.269 28.0392 297.689 27.839C298.109 27.6339 298.605 27.5387 299.176 27.5533C299.782 27.568 300.263 27.7218 300.619 28.0148C300.975 28.3029 301.227 28.6788 301.373 29.1427C301.525 29.6066 301.588 30.1119 301.564 30.6588L299.682 30.6515C299.686 30.4611 299.682 30.2609 299.667 30.0509C299.652 29.8361 299.591 29.6505 299.484 29.4943C299.381 29.338 299.208 29.255 298.964 29.2452C298.676 29.2355 298.446 29.299 298.275 29.4357C298.104 29.5724 297.975 29.7531 297.887 29.9777C297.799 30.2023 297.736 30.4391 297.697 30.6881C297.662 30.9371 297.631 31.1642 297.601 31.3693L297.55 31.9552C297.536 32.1212 297.514 32.3239 297.484 32.5631C297.455 32.7975 297.448 33.0319 297.462 33.2662C297.477 33.4957 297.536 33.6886 297.638 33.8448C297.745 33.9962 297.931 34.0743 298.195 34.0792ZM306.467 24.3746L304.518 35.6246H302.512L304.467 24.3746H306.467ZM304.973 31.3912L304.467 31.4132C304.511 31.0177 304.594 30.5953 304.716 30.1461C304.838 29.692 305.009 29.2672 305.229 28.8717C305.453 28.4713 305.742 28.1466 306.093 27.8976C306.445 27.6486 306.867 27.5314 307.36 27.546C307.775 27.5558 308.107 27.6583 308.356 27.8536C308.61 28.0441 308.796 28.2906 308.913 28.5934C309.035 28.8961 309.108 29.2257 309.133 29.5822C309.157 29.9337 309.15 30.2804 309.111 30.6222L308.276 35.6246H306.276L307.104 30.6002C307.123 30.4098 307.131 30.212 307.126 30.007C307.121 29.797 307.072 29.6212 306.979 29.4796C306.887 29.3331 306.711 29.2599 306.452 29.2599C306.179 29.2452 305.952 29.3112 305.771 29.4576C305.595 29.5992 305.453 29.7823 305.346 30.007C305.239 30.2267 305.156 30.4611 305.097 30.7101C305.043 30.9542 305.002 31.1813 304.973 31.3912Z" fill="white"/>
</g>
<defs>
<filter id="filter0_d_123_121" x="0.963013" y="0" width="420.077" height="69.4098" filterUnits="userSpaceOnUse" color-interpolation-filters="sRGB">
<feFlood flood-opacity="0" result="BackgroundImageFix"/>
<feColorMatrix in="SourceAlpha" type="matrix" values="0 0 0 0 0 0 0 0 0 0 0 0 0 0 0 0 0 0 127 0" result="hardAlpha"/>
<feOffset dy="4"/>
<feGaussianBlur stdDeviation="2"/>
<feComposite in2="hardAlpha" operator="out"/>
<feColorMatrix type="matrix" values="0 0 0 0 0 0 0 0 0 0 0 0 0 0 0 0 0 0 0.25 0"/>
<feBlend mode="normal" in2="BackgroundImageFix" result="effect1_dropShadow_123_121"/>
<feBlend mode="normal" in="SourceGraphic" in2="effect1_dropShadow_123_121" result="shape"/>
</filter>
</defs>
</svg>
